/* XPM */
static char *result[] = {
/* columns rows colors chars-per-pixel */
"40 40 179 2 ",
"   c #0E0E0E",
".  c #151515",
"X  c #1B1B1B",
"o  c #161B1B",
"O  c #1F2222",
"+  c #222222",
"@  c #242A2C",
"#  c #292B2B",
"$  c #222528",
"%  c #392E29",
"&  c #2A2E31",
"*  c #2A3235",
"=  c #2D3D3E",
"-  c #363532",
";  c #363936",
":  c #333639",
">  c #34393B",
",  c #393A3B",
"<  c #3C3A37",
"1  c #6C2E10",
"2  c #6F3112",
"3  c #733617",
"4  c #773818",
"5  c #482E21",
"6  c #523424",
"7  c #7B3E21",
"8  c #37423F",
"9  c #3E403F",
"0  c #574539",
"q  c #774227",
"w  c #664330",
"e  c #654839",
"r  c #7D4B32",
"t  c #7C503A",
"y  c #323D40",
"u  c #384845",
"i  c #324949",
"p  c #3C4B4E",
"a  c #384441",
"s  c #3D4E52",
"d  c #3D5054",
"f  c #3E5B5E",
"g  c #3F5D60",
"h  c #3F6062",
"j  c #404446",
"k  c #4A4D50",
"l  c #425E5F",
"z  c #6C584D",
"x  c #765A45",
"c  c #675950",
"v  c #7B614D",
"b  c #406769",
"n  c #526468",
"m  c #5A7278",
"M  c #6B6B69",
"N  c #757E76",
"B  c #824321",
"V  c #8A4624",
"C  c #874B2D",
"Z  c #8C4C2C",
"A  c #944E2B",
"S  c #984D27",
"D  c #9D532D",
"F  c #8E563A",
"G  c #945333",
"H  c #9B5634",
"J  c #95593C",
"K  c #9D5D3C",
"L  c #A0552E",
"P  c #A35731",
"I  c #A55931",
"U  c #AA5E36",
"Y  c #A45E3D",
"T  c #AC5F38",
"R  c #9F623D",
"E  c #AC613C",
"W  c #AF6036",
"Q  c #B26137",
"!  c #B2623B",
"~  c #BC693D",
"^  c #B8673C",
"/  c #945D42",
"(  c #A35F40",
")  c #9E684F",
"_  c #9F6B53",
"`  c #AE6D4D",
"'  c #A56241",
"]  c #B56C47",
"[  c #BB734D",
"{  c #B87D4B",
"}  c #A86D52",
"|  c #AD7852",
" . c #B87251",
".. c #BB7957",
"X. c #B97A5A",
"o. c #B47657",
"O. c #C47146",
"+. c #C6744A",
"@. c #CC7548",
"#. c #CB7647",
"$. c #D47C4E",
"%. c #DD7E4B",
"&. c #C87951",
"*. c #D57E51",
"=. c #D97F51",
"-. c #BE824F",
";. c #99846D",
":. c #B7836B",
">. c #B4956B",
",. c #B98971",
"<. c #BB907B",
"1. c #DC8051",
"2. c #E2834F",
"3. c #EC8D56",
"4. c #EF8F58",
"5. c #E68652",
"6. c #F09059",
"7. c #C4996B",
"8. c #CF9361",
"9. c #DA9F6B",
"0. c #D49965",
"q. c #DDA06B",
"w. c #EDA065",
"e. c #E4A36B",
"r. c #4D7F80",
"t. c #4D8284",
"y. c #4F8889",
"u. c #5E898A",
"i. c #5F9899",
"p. c #698689",
"a. c #6D8F90",
"s. c #6D9A9A",
"d. c #6E9695",
"f. c #76969D",
"g. c #779999",
"h. c #769BA3",
"j. c #59A4A6",
"k. c #6EA6AB",
"l. c #6DA9AE",
"z. c #65A6A8",
"x. c #77A0A7",
"c. c #76A4AA",
"v. c #74A8AE",
"b. c #65AFB1",
"n. c #75ADB3",
"m. c #78AEB4",
"M. c #65B2B3",
"N. c #66B6B8",
"B. c #66B9BB",
"V. c #6CB5B7",
"C. c #73B2B7",
"Z. c #7CB6B9",
"A. c #7ABABF",
"S. c #79B2B5",
"D. c #7BBDC2",
"F. c #7DC2C5",
"G. c #7DC5C9",
"H. c #7DCFD3",
"J. c #7ED2D5",
"K. c #7DD7DA",
"L. c #889B9B",
"P. c #BF9987",
"I. c #85A2A2",
"U. c #92A2A2",
"Y. c #8EB4B5",
"T. c #84B8BA",
"R. c #8DBBBC",
"E. c #93BBBC",
"W. c #9DBEBF",
"Q. c #93B5B6",
"!. c #A0BEBF",
"~. c #8EC2BF",
"^. c #82CCCE",
"/. c #8AC6C5",
"(. c #84CFD0",
"). c #92CFD1",
"_. c #93D3D5",
"`. c #A4C5C4",
"'. c #A5CAC8",
/* pixels */
". . X O X . . X + . X + X X O . . + + X O X o . X X X X + X + + X X X . X X X . ",
". . X O X . . O X   X X X X X . O X X + O o o . X + X X X X + + . . X X + X . . ",
". . X O X . X + X X + X X X X o O $ I./.F././.~.'.O X . . X + + X + X + $ X . X ",
". o . . . . X X X X + + + . X Y.u.j.K.D.g.1.e.I ;.(.i   . X X X X + + X X . . X ",
"X X X X . . X X X . X O O Y.a.b.S.h.l.N [ w.1.P ! { /.u . + X O X X + . X . . X ",
". X X X X + . X X . . X Y.B.n.k.k.p $ 6 2.-.=.P ! O.v (.X X X + X . . . . .   . ",
"X + + X # + X X # +   Y.b.k.k.s * @ & G 3.{ 1.P ! +.q s.E.X . X X . . X X . . . ",
"X X X X X X + X O O m.z.n.f.y & & & % ~ w.R =.P E $.S N j._.+ X X X .     X X X ",
". X + . . . . . X = g.k.v.& & & & & 5 %.w.R 2.P T @.Q x m.a.X . X + X X . . . . ",
". X X . X O + # # E.i.v.m $ & & & & q 5.e.K 1.P E @.T / f.s._.o X + X .     . . ",
"X + X X X . X X o U.C.v.& & & & & & I 6.9.H *.P ^ @.! Y d.C.p.* X X . . X X . X ",
"X X . # % X   X . L.n.p.o & & & & & I 4.0.D $.P E @.Q ! j v.V.f + X X X X X X # ",
". . . X + X X X o y.J.h * & & & & & I ! ^ S S D E O.Y E u J.B.T.+ . . . X . . + ",
"+ .   . . X X . X r.h.s & & & & & & I W ] ..&.U D U D H ; h.M.Z.+ + X . . . . X ",
"  + X . X + X X + r.c.s * & & & & & I #.q Z ) ` X.[ Q D 0 x.M.R.+ + X . X + X . ",
". + X   . X X . . t.D.f & & & & & # I 4.8.B S 4 C J ` :.v A.N.E.. . . X + + . . ",
"O X . . X . X X . r.h.s & & & & & & I 6.q.H *.I A V 1 Z k f.b.R.X X . X X X X X ",
"X X + X X . X . . t.F.h & & & & & & I 6.q.G $.I T #.T A 0 D.N.W.. X .   X X X X ",
"X + + X . X . X X t.c.k & & & & & & I 6.7.z *.P ! +.T ( > h.M.W.. X .   X X + X ",
"X X + + X . X + $ t.c.d & & & & & & I 6.>.M *.I ^ +.T T > c.M.W.. . X X X + + + ",
"+ + + + X . X + $ t.D.g * & & & & & I 6.0.e 1.I ^ @.E E a D.N.!.. X . X X X X + ",
"+ + X X X . . X X t.h.p & & & & & & I 6.q.e 2.I T @.Q E ; f.M.!.X . X X . . X + ",
"X . X + X X . . o t.D.g & & & & & & H 6.q.w 2.I E +.E E 8 D.N.!.X   X X X X X X ",
"X . X + O + + X X t.x.d & & & & & & I 6.>.c 1.I ! +.E ! ; h.M.W.X . X X . . . . ",
". X X X X X + . . t.x.d * & & & & & I 6.>.M *.I ^ @.! ! > h.M.W.X X X . . . . . ",
"X . + X . + # . . y.J.h & & & & & & I 6.9.r =.I Y @.T Y a J.B.E.. . . + + X X + ",
". X X . X X + +   t.h.p & & & & & & I 4.q.H %.I E O.P H 6 f.M.E.    X $ + . . X ",
"X + . . X     X . t.A.f & & & & & & I 6.e.H $.L P T P +.Z g.B.T.  X + X . .   X ",
". X X + + + + X . t.c.d & & & & & & I 3.8.A Q ! [ X.} } t g.M.T.. X X X     . . ",
". . + + X X X X o t.h.p & & # & & & P ~ ~ ] X. .} G 7 3 < h.M.T.X   X X + X . . ",
"X . X X . . . . o y.G.g * & & & & & I T [ ) Z 1 2 H I Y a F.N.R.  X X . X X X + ",
"X . . . . X X X O m h.s & & & & & & P #.B 3 D L Q @.Q E ; f.M.E.  . X . X X X + ",
"+ + X X + + X . . p.n > # # # # # # I 6.0.H =.U Q @.Q ( - n p.`.. . X X + . .   ",
"+ + X X X X X . . < j < : : : > > k ! 6.9.H %.I T +.G <.`.'.^.X X .   . . . X X ",
"X O X .     . X   X + X X + o . o . ! 6.q.P =.I T ( P.  O o . X X       . . . X ",
"X X X . X X X X X . . X . X + X o . ! 6.9.G *./ ,.X   . . X . . X X .   . . X X ",
"X + X . X X . . . . X $ X . X + X . Q 6.9.J ..:.. X X X X X .   . . . . X . X X ",
"X X X   X X . . . . X + .   . X X . ,.] | ( < X . . + . . X .   .   . . . . . X ",
". X X . . X . . X . . .     . X   X , } :.X X . . . . X X . .   . X X X . . . X ",
"  . X . . X X X X X X . . X X . X . $ + + X X . X . . X + X + . X o X + X . . . "
};
