/* XPM */
static char *result[] = {
/* columns rows colors chars-per-pixel */
"40 40 174 2 ",
"   c #0E0E0E",
".  c #151515",
"X  c #1B1B1B",
"o  c #291F1A",
"O  c #33241B",
"+  c #3C291E",
"@  c #3B271C",
"#  c #222222",
"$  c #292929",
"%  c #3C2D22",
"&  c #3D3024",
"*  c #5E290F",
"=  c #4B2E1D",
"-  c #492917",
";  c #562C17",
":  c #582E18",
">  c #5A331F",
",  c #673015",
"<  c #623218",
"1  c #7A3B1D",
"2  c #442D20",
"3  c #4E3423",
"4  c #543422",
"5  c #543826",
"6  c #443C35",
"7  c #693D27",
"8  c #6F4027",
"9  c #754127",
"0  c #7A4429",
"q  c #7E4426",
"w  c #3F4848",
"e  c #475859",
"r  c #525D5E",
"t  c #7F5C4A",
"y  c #75655C",
"u  c #786256",
"i  c #4F5F63",
"p  c #4E6C6D",
"a  c #536A6E",
"s  c #546162",
"d  c #4E706E",
"f  c #506C70",
"g  c #4E7E7F",
"h  c #587979",
"j  c #706964",
"k  c #78756F",
"l  c #7E7D6B",
"z  c #767E7B",
"x  c gray50",
"c  c #823F1E",
"v  c #844324",
"b  c #894523",
"n  c #8D4826",
"m  c #8C4B2B",
"M  c #84482B",
"N  c #924B26",
"B  c #924D2A",
"V  c #97502A",
"C  c #9C522C",
"Z  c #8D5133",
"A  c #935132",
"S  c #9A5432",
"D  c #9F5834",
"F  c #925539",
"G  c #9C5A3B",
"H  c #A1562F",
"J  c #A15631",
"K  c #A45A34",
"L  c #A95D36",
"P  c #A35D3C",
"I  c #AE6037",
"U  c #A7623F",
"Y  c #AD623D",
"T  c #B16038",
"R  c #9F5F41",
"E  c #9A6346",
"W  c #A46142",
"Q  c #AC6442",
"!  c #AA6946",
"~  c #AA6748",
"^  c #AB694A",
"/  c #A6694C",
"(  c #B26644",
")  c #B56944",
"_  c #BE6E46",
"`  c #B46D4D",
"'  c #BD6F48",
"]  c #BC714E",
"[  c #B97555",
"{  c #B87A5D",
"}  c #B1785D",
"|  c #B67E63",
" . c #C06F47",
".. c #C57046",
"X. c #C2734E",
"o. c #CA7449",
"O. c #C57650",
"+. c #CA7750",
"@. c #C97951",
"#. c #C77F5A",
"$. c #D17B51",
"%. c #B78166",
"&. c #B9856C",
"*. c #C7815E",
"=. c #C68563",
"-. c #4D7F81",
";. c #4E8586",
":. c #5B8285",
">. c #548686",
",. c #5F8F93",
"<. c #5E9497",
"1. c #6A878E",
"2. c #6B898F",
"3. c #738283",
"4. c #728689",
"5. c #708E8E",
"6. c #7B8F85",
"7. c #7B9288",
"8. c #6D8A92",
"9. c #6E959B",
"0. c #6C9A9D",
"q. c #6C9096",
"w. c #7D9494",
"e. c #769699",
"r. c #6E9DA3",
"t. c #759CA3",
"y. c #6DA4A7",
"u. c #6CA6A9",
"i. c #6CABAE",
"p. c #70A1A6",
"a. c #7DA2A3",
"s. c #75A3AA",
"d. c #7FA7A9",
"f. c #70AAAE",
"g. c #78A8AF",
"h. c #6DAFB3",
"j. c #76AEB3",
"k. c #6EB0B4",
"l. c #70B1B5",
"z. c #7AB3B6",
"x. c #74B6BA",
"c. c #7AB6B9",
"v. c #76BABF",
"b. c #7AB8BB",
"n. c #74BDC1",
"m. c #78BCC0",
"M. c #76C1C4",
"N. c #79C2C5",
"B. c #7BC5C9",
"V. c #77CACD",
"C. c #79CACD",
"Z. c #77C4C8",
"A. c #7AD3D6",
"S. c #7CD7DA",
"D. c #7CDADD",
"F. c #848485",
"G. c #819596",
"H. c #80999A",
"J. c #8A9D9D",
"K. c #80ACAF",
"L. c #87A3A4",
"P. c #9CAAAA",
"I. c #95A6A5",
"U. c #85BABE",
"Y. c #9FBFC1",
"T. c #83C4C8",
"R. c #8BC6C9",
"E. c #86C0C3",
"W. c #94C6C9",
"Q. c #9FC7C9",
"!. c #99C7CA",
"~. c #AFCDCE",
"^. c #B3CFD0",
"/. c #BBD3D4",
/* pixels */
". . X # X . . X X . X # . X # . X # # X # X . . X X X X # # # # . X X . X X X . ",
". . . # X . . # X . X X X X X . X X X # # X X X X # X X X X # # . X X X # # X . ",
". . . # X . X # X . # # X X # # # X X $ # # # X X # . . . . # # X # X # # X . . ",
". . X . . . X X # . # # # . X R.Y.t.;.-.-.;.e.P.Y.. . . . # X . X # # X X . . X ",
". X X . . . X X X . X X X %.P.u.i.n.Y.r.s.m.n.u.u.Y.F.. . # X # X X X . . . . X ",
". X # . # X . . # . . X V.i.k.Z.p.,.-.e i :.8.s.Z.i.u.W.X X . # # . . . X . . . ",
"# # X # $ # X # $ # . !.n.V.t.1.f $ - * ; - O :.2.u.C.0./.  . # X . . . X . . . ",
"X . X # . X # # # X Y.i.r.r.p = < v H Y W m n * 2 g t.t.x.~.# # X . . . . . . X ",
". # # . . . . . X X 5.n.s.r < B W Q T ` ` A ..Q n > s g.n.L.X . X # X . . . . . ",
". X . . X # # $ $ W.0.s.p ; N +.` ( T ` ` A  .X.O.v : f t.l.Q.. X # X .   . . . ",
"# # X . # X . X . d.x.9.6 M V +.' Q T [ ] A  .` X.K B 6 t.k.J.X X X . . X X X X ",
"X X X $ $ . . X T.g j.p ; W V X.O.Q L X.] A _ ` X.K ) ; -.z.-.~.# X X X X . X $ ",
". . . . X X X X R.;.t.e 1 ^ V ] ] W L O.' A _ ^ O.L O.0 s g.-.W.# . . . X . . # ",
"X . . . . X # . m.V.f.3 K ` V [ ` R T X.X.S  .` X.L O.F 2 l.C.g.# # X . . . . X ",
". X X . X # # . z.Z.9.5 ) ~ B ) ~ P L ) ) A ) ^ ) K ' R 2 e.m.L.# # X X X X X X ",
". # X . . X . . c.m.z V J K C K J J J K K H H J K J J J Z 4.m.t.. . . X # # . . ",
"# . . . . . X X c.D.l ..] | ] ] | ] ] [ | ' ] | [ ` { | ( 7.A.H.X X . . X X . X ",
". X # X X . X . c.n.3.9 1 1 1 1 1 1 1 1 1 1 1 1 1 1 1 1 7 4.m.G.. X . . . # X X ",
"X # # # X . . X z.C.r.4 K G b I G A C P G n K R G N Y S % r.B.G.. . . . . X # X ",
"X # # X # X . # c.C.y.5 ' / V +.` R T X.] S  .^ ` K $.( % s.C.G.. . X X # # # # ",
"# # # # # . . $ z.n.1.4 W j m [ ] R T O.] S _ ` ` K $.( % 8.n.G.. . X X X X X # ",
"# # X X X . . X c.D.M.5 ! y V ] ] Q L ] O.S _ ] ` K $.( % n.D.G.X . X . X . . # ",
"# . . # X . X . c.m.1.4 ) t V ] ] Q L ` X.A  .` ` K $.( % 8.n.G.X . X X X X X X ",
". . X # # # # . c.M.q.4 ^ E V ] ` Q T ] X.S  .] ` K +.Q % 9.n.G.X . X . . . . . ",
". X X X . # # . c.A.l.4 ^ u B ] ` Q T ` X.S _ X.[ L +.) 2 x.A.G.X . X . . . . . ",
"X . # X . # $ . m.n.1.4 R j n X.` ( L [ ] S _ X.X.K O.( % 1.n.G.. . X # # X X o ",
". X X . . X # # c.B.r.5 ' / B [ ` Q L ` ` A ..X.] K O.~ % t.n.G.    X $ # X   . ",
"X # . X X   . . c.V.r.5 ' ` B [ ` Q L ` ` A ..] ] L O.W % r.C.G.  X # . . . . X ",
". . X # # # X X c.m.-.0 K J N K D D A J J B L K K C K S 7 4.m.G.. X X X     . . ",
"X . # # # X X # w.S.} O.@.=.+.O.#.@.+.#.#.O.O.#.#.@.#.#._ 6.A.G.X   X X X X . X ",
"X . # . . . . . w.m.k S A A A A Z A A A A A A A A A A A Z z m.w.  X X . X X X X ",
"X .   . . X # . w.m.1.= C A c A A b n A A v B S A v A M % 8.m.G.  X . X X X X # ",
"# # X X # # X . w.S.l.5 ' ] B [ ] W L X.O.A  .[ X.P O.W % x.A.G.X . X X X . X . ",
"# # X . X . X . w.m.1.4  .] C X.` P T X.] S _ ` ) K O.W + 1.m.G.X .   . . . . X ",
"X # X . . . . . I.<.a = P W q ( E F A Q W m P R W m ( F O a <.I.. .     . . . X ",
". X # . . X X X . !.B.O %.U Q P Q Q } %.&.U | ^ | ^ ~ ^ O B.R.. X . .   . X . X ",
"# # . X X X . . . . X # . . . # # o . X X X # X . . # . # X .   . . . . X . X X ",
". X X . . X . . . . X # . . . X . . . . . X X X . . # . . X .     . . . . . . X ",
". X X . . . X . X . . .   . . X . . # X X # X X . . . . X X .   . X X X . . . X ",
"  X . . X X X X . X X . . X X . . . # # # X X . X . . # X . # X X X X # X . . . "
};
