/* XPM */
static char *result[] = {
/* columns rows colors chars-per-pixel */
"40 40 227 2 ",
"   c #010000",
".  c #0C0503",
"X  c #0E0805",
"o  c #0B090C",
"O  c #090708",
"+  c #1C0E04",
"@  c #130B0A",
"#  c #150906",
"$  c #1A120C",
"%  c #080B12",
"&  c #1B1915",
"*  c #150D10",
"=  c #250C08",
"-  c #221308",
";  c #3E120B",
":  c #311701",
">  c #261914",
",  c #301A1B",
"<  c #352319",
"1  c #281821",
"2  c #2B2A27",
"3  c #3D2525",
"4  c #282A35",
"5  c #49170B",
"6  c #481816",
"7  c #4F150B",
"8  c #4A2507",
"9  c #532906",
"0  c #542B08",
"q  c #4C2C18",
"w  c #5C3013",
"e  c #7D3E08",
"r  c #733114",
"t  c #472825",
"y  c #562424",
"u  c #4F3130",
"i  c #603B2B",
"p  c #69442D",
"a  c #79563E",
"s  c #79512F",
"d  c #1B2947",
"f  c #18374F",
"g  c #2D354D",
"h  c #683E42",
"j  c #713E4A",
"k  c #364371",
"l  c #394576",
"z  c #394B7C",
"x  c #36497A",
"c  c #23577A",
"v  c #565450",
"b  c #7B494C",
"n  c #685548",
"m  c #734A51",
"M  c #795958",
"N  c #6F434B",
"B  c #686158",
"V  c #454C75",
"C  c #465975",
"Z  c #4E4B6A",
"A  c #765063",
"S  c #6F6C66",
"D  c #757778",
"F  c #716C79",
"G  c #8D2C1B",
"H  c #90321A",
"J  c #B6341E",
"K  c #963A3A",
"L  c #AB3422",
"P  c #B93822",
"I  c #AA3B3A",
"U  c #A73E37",
"Y  c #BE3E36",
"T  c #B63C38",
"R  c #D33D26",
"E  c #81400F",
"W  c #B95F18",
"Q  c #A95712",
"!  c #BC6315",
"~  c #845339",
"^  c #B44D2B",
"/  c #AD433A",
"(  c #BB4734",
")  c #A45C20",
"_  c #99623B",
"`  c #B56B3B",
"'  c #B86D2D",
"]  c #C04A1D",
"[  c #D36C17",
"{  c #D06C16",
"}  c #EC761E",
"|  c #ED791D",
" . c #E47313",
".. c #F37D1B",
"X. c #F67A19",
"o. c #DF462E",
"O. c #C5542F",
"+. c #CC5A2C",
"@. c #DC5A2A",
"#. c #C24E32",
"$. c #C34434",
"%. c #D84631",
"&. c #CC5A37",
"*. c #E34A2D",
"=. c #ED5F25",
"-. c #E5532A",
";. c #E84D31",
":. c #EE5033",
">. c #F25135",
",. c #DD6A25",
"<. c #D76228",
"1. c #D4732A",
"2. c #D77A28",
"3. c #D57831",
"4. c #CC7C38",
"5. c #EC6524",
"6. c #F26928",
"7. c #E57B23",
"8. c #EB7C21",
"9. c #E87321",
"0. c #EE6C30",
"q. c #8C3D43",
"w. c #864B49",
"e. c #8C5D4B",
"r. c #885C58",
"t. c #9B4D4C",
"y. c #A74D4C",
"u. c #96654D",
"i. c #866A58",
"p. c #897456",
"a. c #BA7A49",
"s. c #B37651",
"d. c #B06E4C",
"f. c #956862",
"g. c #857364",
"h. c #947B62",
"j. c #857771",
"k. c #AB7A78",
"l. c #ED5F42",
"z. c #C37054",
"x. c #EB6A44",
"c. c #EE6C4B",
"v. c #C57D6C",
"b. c #FC8115",
"n. c #F6801B",
"m. c #FB831C",
"M. c #E88F1C",
"N. c #F88728",
"B. c #F08D3B",
"V. c #E2A32F",
"C. c #85816B",
"Z. c #A78666",
"A. c #BB856D",
"S. c #BA8A72",
"D. c #B29172",
"F. c #D18F59",
"G. c #E49147",
"H. c #F49544",
"J. c #EC8B56",
"K. c #F29958",
"L. c #E9A25C",
"P. c #C88563",
"I. c #CE9466",
"U. c #E9946B",
"Y. c #F1916D",
"T. c #D4A27B",
"R. c #ECA363",
"E. c #EDA76B",
"W. c #E8AA77",
"Q. c #F3A779",
"!. c #F3B57B",
"~. c #F3B076",
"^. c #F1AC6D",
"/. c #3A5583",
"(. c #255896",
"). c #355E93",
"_. c #324C82",
"`. c #336493",
"'. c #396294",
"]. c #3A6B99",
"[. c #396C91",
"{. c #3774A4",
"}. c #495B85",
"|. c #45658F",
" X c #4A7798",
".X c #527596",
"XX c #506A8D",
"oX c #4F7EA3",
"OX c #7E8991",
"+X c #5284A8",
"@X c #7394AB",
"#X c #8D9191",
"$X c #BD9882",
"%X c #B1A89F",
"&X c #B5B5AC",
"*X c #AEAFA7",
"=X c #C69A82",
"-X c #CBA484",
";X c #DAB58E",
":X c #D2AD8F",
">X c #E7AC87",
",X c #E4B38A",
"<X c #ECB287",
"1X c #F2B982",
"2X c #F4B78E",
"3X c #E7BE96",
"4X c #F3BD90",
"5X c #F0AD82",
"6X c #D2BFA5",
"7X c #F9C28C",
"8X c #E9C39C",
"9X c #EFC89F",
"0X c #F4C99C",
"qX c #F6C799",
"wX c #FCD09C",
"eX c #DBC6AB",
"rX c #E5C7A6",
"tX c #F5CEA2",
"yX c #F5D0A6",
"uX c #FFD3A3",
"iX c #F8D7B4",
"pX c #EFD2B2",
"aX c #9BB3C4",
"sX c #D0D9DE",
"dX c #FBEAD7",
"fX c #E2E2DE",
"gX c None",
/* pixels */
"gXgXgXgXgXgXgXgXgXgXgXgXgXgXgXgXgXgXgXgXgXgXgXgXgXgXgXgXgXgXgXgXgXgXgXgXgXgXgXgX",
"gXgXgXgXgXgXgXgXgXgXgXgXgXgXgXgXgXgXgXgXgXgXgXgXgXgXgXgXgXgXgXgXgXgXgXgXgXgXgXgX",
"gXgXgXgXgXgXgXgXgXgXgXgXgXgXgXgXgXgXgXgXgXgXgXgXgXgXgXgXgXgXgXgXgXgXgXgXgXgXgXgX",
"gXgXgXgXgXgXgXgXgXgXgXgXgXgXgXgXgXgXgXgXgXgXgXgXgXgXgXgXgXgXgXgXgXgXgXgXgXgXgXgX",
"gXgXgXgXgXgXgXgXgXgXgXgXgXgXgXgXI I I I I I I I I I I I I I I I I gXgXgXgXgXgXgX",
"gXgXgXgXgXgXgXgXgXgXgXgXgXgXgXT Y Y Y Y Y Y #.O.O.O.O.O.O.O.#./ I gXgXgXgXgXgXgX",
"gXgXgXgXgXgXgXgXgXI I I I I I $.%.o.o.o.o.*.5.} } } } } | } ,.( I gXgXgXgXgXgXgX",
"gXgXgXgXgXgXgXgXI R $.O.+.O.O.@.=.6.=.=.=.6.9.X.n.n.n.n.} ,.+.#.gXgXgXgXgXgXgXgX",
"gXgXgXgXgXgXgXI Y %.-.0.| | | ..| X.X.| ..........n.n.| ,.( / gXgXgXgXgXgXgXgXgX",
"gXgXgXgXgXgXgX/ $.-.5...m.m.b.b.b.n.n.....X.....n.X.b.n.| <.^ w gXgXgXgXgXgXgXgX",
"gXgXgXgXgXgXgXI ^ 9.......8.8.8.} | | ..n.n...8.| | | | | | W 8   gXgXgXgXgXgXgX",
"gXgXgXgXgXgXgX6 G [ b.b.8.a.h.g.e.` 7.N.B.H.H.B.a.u.e.e.` 7.{ 8   gXgXgXgXgXgXgX",
"gXgXgXgXgXgXgX% q ) 8.8.4.j. X(.z M 2.N.H.L.R.I.j.V x l M 3.W 9   gXgXgXgXgXgXgX",
"gXgXgXgXgXk g d g n i.S D .X{.(.z M 1.m.N.G.D.#X.X`.(._.A &.] 5   gXgXgXgXgXgXgX",
"gXgXgXgXz z _._.V l }.|.+X+X+X|.Z e.2.X. .' S  XoXoX'.l h U L ;   gXgXgXgXgXgXgX",
"gXgXgXz /.].].].)._.}.#X*X&X%Xk.y.O. .{ e 8 2 4 .X#XD 4 1 6 ; #   gXgXgXgXgXgXgX",
"gXgXl z '.{.{.`.}.Z XX-X0XyX7XY.c.0.6.{ i & O $ p.;XZ.&           gXgXgXgXgXgXgX",
"gXgXl z '.{.c f 3 K z.>X0X7X~.Q.Q.K.N.3.Z.S 2 @ i.;XC.&   gXgXgXgXgXgXgXgXgXgXgX",
"gXgXl z ).'.f % 7 J l.Y.5X^.R.1XqX!.H.R.eX&Xv 4 g.;XZ.3 > gXgXgXgXgXgXgXgXgXgXgX",
"gXgXl z z z d % 7 J >.x.c.J.R.<XqXqX1X0XdXsX@X|.#X3XT.u.p >   gXgXgXgXgXgXgXgXgX",
"gXgXgXx _.l d o ; G P R ;.0.J.5XqXyXyXiXdXfXaX@X*XrX<XP.a >   gXgXgXgXgXgXgXgXgX",
"gXgXgXgXgXgXgXgXgX= 7 L *.;.l.U.8XyXtXyXiXpXrX6XrX0X<XP.~ >   gXgXgXgXgXgXgXgXgX",
"gXgXgXgXgXgXgXgXgXO = r L R ;.c.Q.2X0XtXtXtXqX7X7X,XP.e.i >   gXgXgXgXgXgXgXgXgX",
"gXgXgXgXgXgXgXgXgXgXgX= 6 H o.>.:.U.2XtXtXqX!.E.U.P.a < $ gXgXgXgXgXgXgXgXgXgXgX",
"gXgXgXgXgXgXgXgXgXgXgX  . 7 G L T z.S.$X$XD.s._ ~ s t # gXgXgXgXgXgXgXgXgXgXgXgX",
"gXgXgXgXgXgXgXgXgXgXgX    X = y j w.m m m N 2 - $ @ @ gXgXgXgXgXgXgXgXgXgXgXgXgX",
"gXgXgXgXgXgXgXgXgXgXgX    * 1 u q.r.f.r.N u t , @     gXgXgXgXgXgXgXgXgXgXgXgXgX",
"gXgXgXgXgXgXgXgXgXgXgX  @ 3 j w.y.k.;X=Xf.w.w.b t O   gXgXgXgXgXgXgXgXgXgXgXgXgX",
"gXgXgXgXgXgXgXgXgXgXgX  # y K t.y.P.8X8XT.Z.P.s.i X   gXgXgXgXgXgXgXgXgXgXgXgXgX",
"gXgXgXgXgXgXgXgXgXgXgX  # y K / / z.>XtX0X8X!.F.p X   gXgXgXgXgXgXgXgXgXgXgXgXgX",
"gXgXgXgXgXgXgXgXgXgXgX  = r +.,.3.G.Q.7XwXuXwXT.a @   gXgXgXgXgXgXgXgXgXgXgXgXgX",
"gXgXgXgXgXgXgXgXgXgXgX  - E { M.V.V.L.W.;X3X9XT.n @   gXgXgXgXgXgXgXgXgXgXgXgXgX",
"gXgXgXgXgXgXgXgXgXgXgXgX+ 8 r s p.C.C.D B n n n 2 O   gXgXgXgXgXgXgXgXgXgXgXgXgX",
"gXgXgXgXgXgXgXgXgXgXgXgXgX. O 2 Z C .XC 2 $ X O       gXgXgXgXgXgXgXgXgXgXgXgXgX",
"gXgXgXgXgXgXgXgXgXgXgXgXgX  O q _ ` Z.d.) e :     gXgXgXgXgXgXgXgXgXgXgXgXgXgXgX",
"gXgXgXgXgXgXgXgXgXgXgXgXgX  X 0 !  .{ [ [ Q 8 O gXgXgXgXgXgXgXgXgXgXgXgXgXgXgXgX",
"gXgXgXgXgXgXgXgXgXgXgXgXgX  O - 8 9 9 9 0 8 +   gXgXgXgXgXgXgXgXgXgXgXgXgXgXgXgX",
"gXgXgXgXgXgXgXgXgXgXgXgXgXgX                    gXgXgXgXgXgXgXgXgXgXgXgXgXgXgXgX",
"gXgXgXgXgXgXgXgXgXgXgXgXgXgXgXgXgXgXgXgXgXgXgXgXgXgXgXgXgXgXgXgXgXgXgXgXgXgXgXgX",
"gXgXgXgXgXgXgXgXgXgXgXgXgXgXgXgXgXgXgXgXgXgXgXgXgXgXgXgXgXgXgXgXgXgXgXgXgXgXgXgX"
};
