/* XPM */
static char *result[] = {
/* columns rows colors chars-per-pixel */
"40 40 16 1 ",
"  c black",
". c #5E3643",
"X c #394778",
"o c #7A444A",
"O c #A93B3B",
"+ c #F47E1B",
"@ c #E6482E",
"# c #A05B53",
"$ c #BF7958",
"% c #F4B41B",
"& c #EEA160",
"* c #3978A8",
"= c #CFC6B8",
"- c #F4CCA1",
"; c white",
": c None",
/* pixels */
"::::::::::::::::::::::::::::::::::::::::",
"::::::::::::::::::::::::::::::::::::::::",
"::::::::::::::::::::::::::::::::::::::::",
"::::::::::::::::::::::::::::::::::::::::",
"::::::::::::::::::::::::::::::::::::::::",
"::::::::::::::::::::::::::::::::::::::::",
"::::::::::::::::::::::::::::::::::::::::",
"::::::::::::::::::::::::::::::::::::::::",
"::::::::::::::::::::::::::::::::::::::::",
"::::::::::::::::::::::::::::::::::::::::",
"::::::::::::::::::::::::::::::::::::::::",
"::::::::::::::::::::::::::::::::::::::::",
"::::::::::::::::::OOOOOOOO::::::::::::::",
":::::::::::::::OOO@@@++++O::::::::::::::",
"::::::::::::::O@++++++++O:::::::::::::::",
"::::::::::::::O++++++++++ ::::::::::::::",
":::::::::::::: ++*X+&&XX+ ::::::::::::::",
":::::::::::::XXX**X++**X@ ::::::::::::::",
"::::::::::::X**X--@+  -   ::::::::::::::",
"::::::::::::X* @-&-+= - ::::::::::::::::",
"::::::::::::XX @@&--;*-$ :::::::::::::::",
"::::::::::::::: @@-----$ :::::::::::::::",
":::::::::::::::: @@--&$ ::::::::::::::::",
"::::::::::::::::  o..  :::::::::::::::::",
":::::::::::::::: o#-o# :::::::::::::::::",
":::::::::::::::: OO--& :::::::::::::::::",
":::::::::::::::: +%&-- :::::::::::::::::",
"::::::::::::::::: X*   :::::::::::::::::",
"::::::::::::::::: +++ ::::::::::::::::::",
":::::::::::::::::     ::::::::::::::::::",
"::::::::::::::::::::::::::::::::::::::::",
"::::::::::::::::::::::::::::::::::::::::",
"::::::::::::::::::::::::::::::::::::::::",
"::::::::::::::::::::::::::::::::::::::::",
"::::::::::::::::::::::::::::::::::::::::",
"::::::::::::::::::::::::::::::::::::::::",
"::::::::::::::::::::::::::::::::::::::::",
"::::::::::::::::::::::::::::::::::::::::",
"::::::::::::::::::::::::::::::::::::::::",
"::::::::::::::::::::::::::::::::::::::::"
};
