/* XPM */
static char *result[] = {
/* columns rows colors chars-per-pixel */
"40 40 157 2 ",
"   c #AEB05E",
".  c #ADAF5D",
"X  c #ACAE5D",
"o  c #ACAE5C",
"O  c #ABAD5C",
"+  c #A9AB5A",
"@  c #ADAF5E",
"#  c #ACAF5D",
"$  c #AAAC5B",
"%  c #AAAD5B",
"&  c #A9AC5B",
"*  c #9BA153",
"=  c #A0A352",
"-  c #9CA253",
";  c #9DA153",
":  c #9EA253",
">  c #A7AA5A",
",  c #9FA354",
"<  c #A8AB5A",
"1  c #ABAE5C",
"2  c #A5A958",
"3  c #A5A858",
"4  c #A4A857",
"5  c #A4A757",
"6  c #A6A959",
"7  c #A1A555",
"8  c #A2A656",
"9  c #A6A958",
"0  c #9BA051",
"q  c #9B9F51",
"w  c #9B9F4D",
"e  c #989F51",
"r  c #9C9F4F",
"t  c #989F50",
"y  c #999E50",
"u  c #9EA354",
"i  c #9A9F51",
"p  c #9CA152",
"a  c #9A9E4C",
"s  c #989F52",
"d  c #999E4F",
"f  c #979F50",
"g  c #A0A555",
"h  c #A5AA5A",
"j  c #9DA252",
"k  c #979E4F",
"l  c #989D4F",
"z  c #9BA052",
"x  c #9A9F4F",
"c  c #9CA151",
"v  c #999E4E",
"b  c #9FA456",
"n  c #A3A859",
"m  c #A4A958",
"M  c #989D4E",
"N  c #9A9E50",
"B  c #979F4F",
"V  c #A6AB5B",
"C  c #ADB260",
"Z  c #ACB15B",
"A  c #A3A858",
"S  c #9A9E51",
"D  c #979E4E",
"F  c #A9AE5C",
"G  c #AAAF5C",
"H  c #A2A759",
"J  c #979C4C",
"K  c #9BA050",
"L  c #9CA052",
"P  c #9FA454",
"I  c #A3A857",
"U  c #A5AA58",
"Y  c #A8AD5A",
"T  c #A1A454",
"R  c #A4A956",
"E  c #A1A656",
"W  c #9DA253",
"Q  c #ADB15F",
"!  c #A9AD5B",
"~  c #ADB05E",
"^  c #ADB05D",
"/  c #ACB15D",
"(  c #A7AC5C",
")  c #9DA254",
"_  c #989D4D",
"`  c #9EA352",
"'  c #A2A757",
"]  c #A7AA59",
"[  c #A6AB57",
"{  c #9CA051",
"}  c #999D50",
"|  c #A0A455",
" . c #A0A554",
".. c #9FA453",
"X. c #9FA252",
"o. c #AAAD5D",
"O. c #AAAE5C",
"+. c #A9AD5A",
"@. c #A2A654",
"#. c #9A9F4E",
"$. c #9A9F50",
"%. c #A4A858",
"&. c #9FA451",
"*. c #A9AE5B",
"=. c #ADB25F",
"-. c #AEB05D",
";. c #ADB05C",
":. c #A9AD59",
">. c #ACB05C",
",. c #AEB15E",
"<. c #AEB15D",
"1. c #ADB15E",
"2. c #A8AC59",
"3. c #ABAE5B",
"4. c #ADB25E",
"5. c #ABB05D",
"6. c #9FA452",
"7. c #AEB25F",
"8. c #AEB35E",
"9. c #AEB35D",
"0. c #A5AA57",
"q. c #ACB15F",
"w. c #A6AB5A",
"e. c #A0A553",
"r. c #9CA150",
"t. c #9DA251",
"y. c #9EA350",
"u. c #A8AD5E",
"i. c #A8AD5D",
"p. c #9EA353",
"a. c #A2A758",
"s. c #9BA04F",
"d. c #9B9F50",
"f. c #A0A454",
"g. c #9DA04E",
"h. c #A5A756",
"j. c #9BA152",
"k. c #A2A556",
"l. c #A3A656",
"z. c #A3A757",
"x. c #A1A455",
"c. c #9DA152",
"v. c #A6AA59",
"b. c #8F9B56",
"n. c #ABAE5D",
"m. c #A9AD5C",
"M. c #A7AB5C",
"N. c #A3A85B",
"B. c #A6AA5B",
"V. c #9EA459",
"C. c #A5AA5B",
"Z. c #A7AA5B",
"A. c #A4A95A",
"S. c #979F57",
"D. c #A5A95B",
"F. c #9FA75B",
"G. c #909C56",
/* pixels */
"                                . . X o O + @ @ . # o O O . . @     @ . $ % % & ",
"* = - ; ; ; : . & > , < 1 2 3 4 5 6 < < 3 7 8 9 2 < 1 . . @ . @ , % X : 0 q w 1 ",
"e r t y y y y y y y y y y y y y y y u y y y y q y y y y y y i p y y y y y y a s ",
"e r t i y y i i i d y d y y y y y y y y y y y y y y y y y y y y y y y y y y a s ",
"e r f y y y i i i g h j d y y y y y y y y y y y y y y y y y y y y y y y y y a s ",
"e r k l i z i i i x c v l y y y y y y y y y y y y y y y y y y y y y y y y y a s ",
"e r t i b n m m m c M x N y y y y y y y y y y y y y y y y y y y y y y y y y a s ",
"e r B x V C Z Z Z A y i S y y y y y y y y y i i i i i i i y y y y y y y y y a s ",
"e r D v A F G G G H z i y y y y y y y y y y i i i i i i i y y y y y y y y y a s ",
"e r B J K c q q q i y i y y y y y y y y y y i i z L q i i y y y y p y y y y a s ",
"e r f d y y y y y y y y y y y y y y y M c P I U Y 1 < T = R E N y W y y y y a s ",
"e r t y y y y y y y y y y y y y y y y x A Q   X ! ~ . @ ^ / ( ) y y y y y y a s ",
"e r t y y y y y y y y y y y y y y y y _ ` ' ] . . . .     [ 0 i y y y y y y a s ",
"e r t y y y y y y y y y y y y y y y y d d d y y l N { : : K y y y y y y y y a s ",
"e r t y y y y y y y y y y y y y y y y y y y y y y y y y y y y y y y y y y y a s ",
"e r t y y y y y y y y y y y y y y y y y y y y y y y y y y y y y y y y y y y a s ",
"e r t y y y y y y y y y y y y y y y y y y y y y y y y y y y y y y y y y y y a s ",
"e r t y y y y y y y y y y y y y y y y y y y y y y y y y y y y y y y y y y y a s ",
"e r t y y y y y y y y y y y y y y y y y y y y y y y y y y y y y y y y y y y a s ",
"e r t y y y y y y y y y y y y y y y y y y y y y y i y y y y y y y y y y y y a s ",
"e r t y y y y y y l l } d M _ d y y y y y y y W ~ # : y y y y y y y y y y y a s ",
"e r t y y y y y y l l i d x x N y y y y y y y | O 1     . 5 y y y y y y y y a s ",
"e r t y y y y y y l z b P  .j d y y y y y y y y y y i < 1 o . 7 y y y y y y a s ",
"e r t y y y x c ..X.5 o.1 O.+.@.#.$.l y y y y y y y y y %.& o , y y y y y y a s ",
"e r t y y d &.*.=.~     -.;.;.:.&.d y y y y y y y y y y y i 8 . y y y y y y a s ",
"e r t y y x R =.=.        ;.;.>.[ K y y y y y y y y y y y y y p y y y y y y a s ",
"e r t y y $.R /     ,.<.1.2.3.4.5.g M y y y y y y y y y y y y y y y y y y y a s ",
"e r t y y d 6.G 7.8.9.9.0._ m q./ w.$.y y y y y y y y y y y y y y y y y y y a s ",
"e r t y y y K  .E e.e.e.r._ g G 5.h i y y y y y y y y y y y y y y y y y y y a s ",
"e r t y y y y y y d d d _ v _ t.y.0 y y y y y y y y y y y y y y y y y y y y a s ",
"e r t y y y y y y y y y y y y y y y y y y y y y y y y y y y y y y y y y y y a s ",
"e r t y y y y y y y y y y y y y y y y y y y y y y y y y y y y y y y y y y y a s ",
"e r t y y y y y y y y y y y y y y y y y y y y y y y y y y y y i i y y y y y a s ",
"e r t y y y y y y y y y y y y y y y y y y y y y y y y y l y i u.i.p.v y y y a s ",
"e r t y y y y y y y y y y y y y y y y y y y y y y y y y y i S a.' s._ y y y a s ",
"e r t y y y y y y y y y y y y y y y y y y y y y y y y y y i i l d v x N y y a s ",
"e r t y y y y y y y y y y y y y y y y y y y y y y y y y y y i i d.K $.y y y a s ",
"e r t y y y y y y y y y y y y y p f.y y y y y y y y y y y y y y y y y y y y g.s ",
"e h.j.y p y W > , %.k.l.8 & z.& 3 1 5 $ O X i N y : y L y y y y , 2 x.c.c.v.o s ",
"b.o.#   @ @ @ n.n.@ @   @ @ @   ~ @ X m.M.n.N.n.B.V.C.# Z.A.S.D.F.o.V @ B.o.A.G."
};
