/* XPM */
static char *result[] = {
/* columns rows colors chars-per-pixel */
"34 40 214 2 ",
"   c black",
".  c #010102",
"X  c #050403",
"o  c #020204",
"O  c #170E0B",
"+  c #140A0D",
"@  c #0B0F1B",
"#  c #120E10",
"$  c #0F161F",
"%  c #1D1018",
"&  c #281302",
"*  c #24170D",
"=  c #371D06",
"-  c #391D06",
";  c #241515",
":  c #27221A",
">  c #37251D",
",  c #072539",
"<  c #3B3127",
"1  c #332F36",
"2  c #481D08",
"3  c #421619",
"4  c #482405",
"5  c #522805",
"6  c #522906",
"7  c #562F1C",
"8  c #773B07",
"9  c #75380C",
"0  c #703019",
"q  c #422C22",
"w  c #44252A",
"e  c #412D34",
"r  c #542E3C",
"t  c #573434",
"y  c #53303C",
"u  c #5E353E",
"i  c #613A37",
"p  c #70393A",
"a  c #5D453F",
"s  c #584A3A",
"d  c #7C4A3E",
"f  c #1D304F",
"g  c #3D3A51",
"h  c #283660",
"j  c #293E63",
"k  c #5E3745",
"l  c #633744",
"z  c #603844",
"x  c #394146",
"c  c #394677",
"v  c #354E7B",
"b  c #39487A",
"n  c #3E5C73",
"m  c #724343",
"M  c #704047",
"N  c #784549",
"B  c #73494E",
"V  c #685744",
"C  c #7B5257",
"Z  c #756149",
"A  c #63625C",
"S  c #585C7C",
"D  c #624C69",
"F  c #556D7E",
"G  c #933822",
"H  c #823B3B",
"J  c #963336",
"K  c #B43E2D",
"L  c #A93B3A",
"P  c #A83A3B",
"I  c #A93B3B",
"U  c #AA3B3B",
"Y  c #AB3C3A",
"T  c #AB3D3A",
"R  c #AA3C3B",
"E  c #AC3D39",
"W  c #BA3E37",
"Q  c #BF3E37",
"!  c #B23F38",
"~  c #904B0B",
"^  c #9F5311",
"/  c #A25312",
"(  c #BB611A",
")  c #834F30",
"_  c #825E3F",
"`  c #AF462E",
"'  c #B8532A",
"]  c #AC413B",
"[  c #B34337",
"{  c #BC4C33",
"}  c #BE4937",
"|  c #B76837",
" . c #CF611D",
".. c #D16C16",
"X. c #D46D18",
"o. c #D57014",
"O. c #E2751E",
"+. c #EF7A1C",
"@. c #ED781E",
"#. c #F7731D",
"$. c #F37A1C",
"%. c #F47D1C",
"&. c #FC7C1C",
"*. c #D4492C",
"=. c #C5532E",
"-. c #C7552F",
";. c #D45D2E",
":. c #C04335",
">. c #C34E31",
",. c #D2553E",
"<. c #EE5229",
"1. c #E2592F",
"2. c #EE5C2C",
"3. c #E14730",
"4. c #DE6B24",
"5. c #D86428",
"6. c #CC702C",
"7. c #D87A26",
"8. c #EC6E22",
"9. c #F26523",
"0. c #F36B23",
"q. c #F47B3B",
"w. c #80484B",
"e. c #824D4C",
"r. c #964042",
"t. c #994F44",
"y. c #90544E",
"u. c #905A4B",
"i. c #805552",
"p. c #875F54",
"a. c #9C5850",
"s. c #A24949",
"d. c #BA4C44",
"f. c #B55842",
"g. c #B0544F",
"h. c #A05F5F",
"j. c #9E6446",
"k. c #9D694E",
"l. c #A56242",
"z. c #B9754C",
"x. c #AA6851",
"c. c #B47D50",
"v. c #976F67",
"b. c #97636A",
"n. c #857567",
"m. c #A87A6B",
"M. c #CE6B48",
"N. c #C77C50",
"B. c #F78019",
"V. c #FA831A",
"C. c #CF912E",
"Z. c #DF8232",
"A. c #E28626",
"S. c #F58120",
"D. c #F68B2D",
"F. c #E39F26",
"G. c #EB883C",
"H. c #F58A3A",
"J. c #E5AC24",
"K. c #B68258",
"L. c #8A8D64",
"P. c #878369",
"I. c #8B8F76",
"U. c #A88768",
"Y. c #B88B6E",
"T. c #AD9072",
"R. c #BD957A",
"E. c #DD8744",
"W. c #C6845B",
"Q. c #F19647",
"!. c #EC8354",
"~. c #EF9D5A",
"^. c #F49D52",
"/. c #D69166",
"(. c #CF9B74",
"). c #D99C73",
"_. c #EAA269",
"`. c #E3AC7B",
"'. c #F5B179",
"]. c #395384",
"[. c #2E6893",
"{. c #3F6494",
"}. c #396B9C",
"|. c #3B74A4",
" X c #566F8D",
".X c #517C9A",
"XX c #686884",
"oX c #6E6F89",
"OX c #4F82A5",
"+X c #B79D81",
"@X c #BFAE98",
"#X c #889DA8",
"$X c #8BA9BD",
"%X c #AAAAA3",
"&X c #C7A085",
"*X c #CEA786",
"=X c #ECB88B",
"-X c #F4B681",
";X c #D3BEA4",
":X c #E6BDAB",
">X c #F7C18D",
",X c #E6C199",
"<X c #FAC895",
"1X c #D8C4AB",
"2X c #EAC8A4",
"3X c #F2C9A1",
"4X c #F7CEA1",
"5X c #FDD2A4",
"6X c #FFDDAF",
"7X c #EED4B5",
"8X c #C1D0D9",
"9X c #D9DEDE",
"0X c #FDE3CD",
"qX c None",
/* pixels */
"qXqXqXqXqXqXqXqXqXqXqXqXqXqXqXqXqXqXqXqXqXqXqXqXqXqXqXqXqXqXqXqXqXqX",
"qXqXqXqXqXqXqXqXqXqXqXqXqXqXqXqXqXqXqXqXqXqXqXqXqXqXqXqXqXqXqXqXqXqX",
"qXqXqXqXqXqXqXqXqXqXqXqXqXqXqXqXqXqXqXqXqXqXqXqXqXqXqXqXqXqXqXqXqXqX",
"qXqXqXqXqXqXqXqXqXqXqXqXqXqXqXqXqXqXqXqXqXqXqXqXqXqXqXqXqXqXqXqXqXqX",
"qXqXqXqXqXqXqXqXqXqXE I I I I I I I I E qXqXqXqXqXqXqXqXqXqXqXqXqXqX",
"qXqXqXqXqXqXqXqXqX! =.-.-.-.-.>.:.Q Q W ! qXqXqXqXqXqXqXqXqXqXqXqXqX",
"qXqXqXqXqXqXqXqXL { 4.@.@.@.@.8.1.3.3.*.W R R L qXqXqXqXqXqXqXqXqXqX",
"qXqXqXqXqXqXqX[ =.;.@.B.B.B.B.$.9.2.9.1.;.-.-.=.[ qXqXqXqXqXqXqXqXqX",
"qXqXqXqXqXqXU { 4.+.%.%.%.%.%.$.$.$.$.$.+.+.+.4.{ Y Y T R U qXqXqXqX",
"qXqXqXqXqXE =.5.@.V.V.B.B.$.0.0.$.B.B.B.B.B.B.@.5.;.;.-.] P qXqXqXqX",
"qXqXqXqXU { 4.%.%.+.@.@.+.8.1.1.8.%.S.S.S.S.%.%.$.@.O.5.{ U qXqXqXqX",
"qXqXqX} =.5.G.H.0.;.l.l.5.;.h.h.;.0.H.Q.Q.H.S.B.V.o.~ 9 G qXqXqXqXqX",
"qXqXJ ` 4.D.Q.!.2.d.D D d.g. X Xg.1.!.~.~.Q.D.B.&.( 2 o qXqXqXqXqXqX",
"qXqX3 0  .V.D.q.2.d.S {.XXoX|.|.XXb.M.q.H.D.S.#.9.' y f h qXqXqXqXqX",
"qXqXo - ( V.%.0.<.d.S [.[.}..XOXOXoXg.*. .O.+.#.2.d.D v v b qXqXqXqX",
"qXqXo - ( &.9.<.<.K e , , x n.+X%XI.p 2 2 8 ..&.#.M.XX}.}.{.b c qXqX",
"qXqX  = ^  .*.3.3.K 7 # . > c.-X<X+Xq . # 7 ( B.@.| F [.|.}.].b qXqX",
"qXqXqXqX4 7 H ] *.,.m.A # > Y.<X5XR.> $ A U.Z.O.| d 1 f [.}.].b qXqX",
"qXqXqXqXo # t t.,.!.:X%Xx x +X5X5X+Xx x %X2X^.7.t.t # $ v }.].b qXqX",
"qXqXqXqXo # t a.N.'.0X8X.XF @X5X5X@XF .X8X0X'.E.a.t # $ j ].v b qXqX",
"qXqXqXqX  + w d N.-X0X9X$X#X;X4X4X;X#X$X9X0X-XN.d w O @ h b b c qXqX",
"qXqXqXqXqXqX+ q j.).3X7X1X;X2X4X4X2X;X1X7X3X).j.q + qXqXqXqXqXqXqXqX",
"qXqXqXqXqXqX  ; i k.(.=X>X<X4X4X4X4X<X>X=X(.k.i ;   qXqXqXqXqXqXqXqX",
"qXqXqXqXqXqXqXqXO q k./._.'.<X4X4X<X'._./.k.q O qXqXqXqXqXqXqXqXqXqX",
"qXqXqXqXqXqXqXqX% > d x.z.K.R.R.R.R.W.z.x.d > % qXqXqXqXqXqXqXqXqXqX",
"qXqXqXqXqXqXz i y u N w.N M B B B B e.e.M l y y i z qXqXqXqXqXqXqXqX",
"qXqXqXqXqXm u.y.N M w.e.N M l l M N w.w.M l l M y.u.m qXqXqXqXqXqXqX",
"qXqXqXqXk i.W.W.y.w.y.a.a.y.w.w.y.a.a.y.w.M l e.W.W.i.k qXqXqXqXqXqX",
"qXqXqXC v.Y.`.).p.M r.s.s.s.r.r.s.s.s.s.r.H l i.(.`.Y.v.C qXqXqXqXqX",
"qXqXr i.&X3X4X*Xp.p r.] ] ] ] ] ] ] ] ] ] r.p p.*X4X3X&Xi.r qXqXqXqX",
"qXqX; a *X6X6X=XN.( 6.7.7.6.f.f.6.7.7.7.5. .' N.=X6X6X*Xa ; qXqXqXqX",
"qXqX  < T.,X,X`.E.A.F.J.J.C.l.l.C.J.J.F.A.O.O.E.`.,X,XT.<   qXqXqXqX",
"qXqXqX: s V V Z n.P.I.L.P.Z t t Z L.L.I.P.n.p.p.Z V V s : qXqXqXqXqX",
"qXqXqXqXX # . $ n .X.X XS g # # f v  X.X.X XS g $ . # X qXqXqXqXqXqX",
"qXqXqXqXqX    * _ K.K.c.z.) * . $ 1 p.K.K.c.z.) *     qXqXqXqXqXqXqX",
"qXqXqXqXqXqX  = / X.....X./ =     = / X.....X./ =   qXqXqXqXqXqXqXqX",
"qXqXqXqXqXqXqX& 4 5 5 6 6 4 & qXqX& 4 5 5 6 6 4 & qXqXqXqXqXqXqXqXqX",
"qXqXqXqXqXqXqXqX            qXqXqXqX            qXqXqXqXqXqXqXqXqXqX",
"qXqXqXqXqXqXqXqXqXqXqXqXqXqXqXqXqXqXqXqXqXqXqXqXqXqXqXqXqXqXqXqXqXqX",
"qXqXqXqXqXqXqXqXqXqXqXqXqXqXqXqXqXqXqXqXqXqXqXqXqXqXqXqXqXqXqXqXqXqX"
};
