/* XPM */
static char *result[] = {
/* columns rows colors chars-per-pixel */
"34 40 214 2 ",
"   c black",
".  c #000001",
"X  c #020100",
"o  c #020001",
"O  c #020101",
"+  c #050302",
"@  c #020306",
"#  c #0F0605",
"$  c #170C08",
"%  c #1E1107",
"&  c #1D1108",
"*  c #000E17",
"=  c #180D10",
"-  c #161114",
";  c #2B190D",
":  c #381C04",
">  c #351B08",
",  c #221511",
"<  c #281911",
"1  c #2D1F12",
"2  c #311C15",
"3  c #392716",
"4  c #362118",
"5  c #3A271B",
"6  c #161F3A",
"7  c #212226",
"8  c #2F2B23",
"9  c #393028",
"0  c #451216",
"q  c #44220D",
"w  c #562D09",
"e  c #75391F",
"r  c #43252C",
"t  c #4C2C2B",
"y  c #5E2023",
"u  c #40322C",
"i  c #4A372B",
"p  c #5F3F2B",
"a  c #573138",
"s  c #7C3A3D",
"d  c #7D5116",
"f  c #644427",
"g  c #7A4722",
"h  c #6F4035",
"j  c #6D4B34",
"k  c #7B4E3E",
"l  c #252D4F",
"z  c #643B43",
"x  c #3F4546",
"c  c #3B4656",
"v  c #1E4669",
"b  c #334270",
"n  c #324372",
"m  c #3A487B",
"M  c #394B7D",
"N  c #2D5879",
"B  c #5E435C",
"V  c #51525B",
"C  c #694349",
"Z  c #6E4048",
"A  c #7A4549",
"S  c #7B5E59",
"D  c #495E7E",
"F  c #6A4C63",
"G  c #615E7E",
"H  c #7A657C",
"J  c #797571",
"K  c #8F3D0E",
"L  c #84352C",
"P  c #903A28",
"I  c #A6383B",
"U  c #A7393B",
"Y  c #AF3F38",
"T  c #AF3E39",
"R  c #A8393C",
"E  c #81410C",
"W  c #AB5515",
"Q  c #BD5F10",
"!  c #B85F14",
"~  c #8E641E",
"^  c #9E5D22",
"/  c #87583F",
"(  c #B85227",
")  c #AE403B",
"_  c #B24235",
"`  c #B44436",
"'  c #B54537",
"]  c #B54831",
"[  c #AD5F3B",
"{  c #B96034",
"}  c #C96618",
"|  c #D97016",
" . c #E0731F",
".. c #ED7A1D",
"X. c #F6771C",
"o. c #F57E1B",
"O. c #F37C1C",
"+. c #C9552C",
"@. c #CF5D2B",
"#. c #CC5A2C",
"$. c #C04A30",
"%. c #C04838",
"&. c #D14433",
"*. c #D65236",
"=. c #E84B2D",
"-. c #E1572F",
";. c #ED5229",
":. c #EC5A2A",
">. c #DB6626",
",. c #D46129",
"<. c #CE7028",
"1. c #D66830",
"2. c #DB6039",
"3. c #C5753E",
"4. c #D97C32",
"5. c #E46C24",
"6. c #F36621",
"7. c #F56F21",
"8. c #EE7021",
"9. c #F07227",
"0. c #EA6037",
"q. c #884946",
"w. c #854E4E",
"e. c #994641",
"r. c #9C584D",
"t. c #945950",
"y. c #A44745",
"u. c #BA4F44",
"i. c #BD574C",
"p. c #83694E",
"a. c #A86845",
"s. c #AA7345",
"d. c #B37948",
"f. c #A76059",
"g. c #A5745A",
"h. c #AF795A",
"j. c #80616B",
"k. c #977064",
"l. c #AF7E70",
"z. c #C35C41",
"x. c #C07F54",
"c. c #D87C50",
"v. c #FF8015",
"b. c #FF8115",
"n. c #FF8116",
"m. c #FF8317",
"M. c #F78019",
"N. c #F4811F",
"B. c #FB811A",
"V. c #D08F26",
"C. c #E78320",
"Z. c #F58627",
"A. c #E88839",
"S. c #F58D38",
"D. c #EAA621",
"F. c #988D5C",
"G. c #A38C45",
"H. c #A7A358",
"J. c #B8916C",
"K. c #B78D7B",
"L. c #B89B7C",
"P. c #CB8758",
"I. c #D48B5A",
"U. c #F18649",
"Y. c #F29445",
"T. c #F19F5A",
"R. c #DF9A67",
"E. c #C58670",
"W. c #ED8362",
"Q. c #E0A074",
"!. c #EFAD72",
"~. c #F7B07B",
"^. c #395283",
"/. c #395B8C",
"(. c #365F91",
"). c #396798",
"_. c #396898",
"`. c #39699A",
"'. c #3974A4",
"]. c #3978A8",
"[. c #527389",
"{. c #45739E",
"}. c #557F9F",
"|. c #677084",
" X c #7C7D80",
".X c #538399",
"XX c #7F8E95",
"oX c #819AA7",
"OX c #87A7BD",
"+X c #ABAFAD",
"@X c #D7A985",
"#X c #DDAD83",
"$X c #C0AE98",
"%X c #C0AF98",
"&X c #DEBA97",
"*X c #EABB8C",
"=X c #F1B584",
"-X c #FCBD82",
";X c #CEBEA8",
":X c #F0C195",
">X c #F7C897",
",X c #FFCB92",
"<X c #F1C89F",
"1X c #FED09F",
"2X c #E7C7A2",
"3X c #F7CEA1",
"4X c #F4CCA9",
"5X c #FDD6A7",
"6X c #ECC9B0",
"7X c #ECD6BB",
"8X c #C2D1DB",
"9X c #FDE4CE",
"0X c #D8DEE0",
"qX c None",
/* pixels */
"qXqXqXqXqXqXqXqXqXqXqXqXqXqXqXqXqXqXqXqXqXqXqXqXqXqXqXqXqXqXqXqXqXqX",
"qXqXqXqXqXqXqXqXqXqXqXqXqXqXqXqXqXqXqXqXqXqXqXqXqXqXqXqXqXqXqXqXqXqX",
"qXqXqXqXqXqXqXqXqXqXU I I I I I I I I U qXqXqXqXqXqXqXqXqXqXqXqXqXqX",
"qXqXqXqXqXqXqXqXqXqXY ' ' ' ' ' _ ) ) Y qXqXqXqXqXqXqXqXqXqXqXqXqXqX",
"qXqXqXqXqXqXqXqXqXT @.>.>.>.>.,.&.&.&.%.T R R R R R R R R U qXqXqXqX",
"qXqXqXqXqXqXqXqXY $.5.o.o.O.o.8.:.=.=.*.$._ _ _ _ _ _ _ ) T qXqXqXqX",
"qXqXqXqXqXqXqX` #.>...M.M.M.M.o.7.6.6.5.>.,.,.,.,.,.>.,.' Y qXqXqXqX",
"qXqXqXqXqXqXT $.5.o.o.o.o.o.O.O.O.o.o.O.O.O.O.O.O... .,.] I qXqXqXqX",
"qXqXqXqXqX` +.>...B.B.M.M.X.6.6.X.M.M.o.M.M.M.M.B.| K g P qXqXqXqXqX",
"qXqXqXqXT %.5.O.O.......O.8.-.-.8.O.N.N.N.N.o.M.B.! q X qXqXqXqXqXqX",
"qXqXqXR +.1.A.S.9.,.[ [ >.2.f.f.2.7.S.Y.Y.S.N.M.B.! > o qXqXqXqXqXqX",
"qXqXI ] >.Z.Y.U.0.%.F F u.i.|.|.i.0.U.T.T.Y.Z.M.M.! > o qXqXm m qXqX",
"qXqXy L } Z.S.U.:.u.G D j.H {.{.H f.c.U.Y.S.Z.X.7.( t 6 b b /./.qXqX",
"qXqXo q ! B.N.9.;.u.G '.{.{.'.'.{.H i.:.9.N.N.7.:.%.B n n ^.`.].qXqX",
"qXqXX > ! B.7.6.;.' V v v N |.XXoX Xq.K K W | X.6.z.G (.(.(.'.].qXqX",
"qXqXo > ! X.:.=.=._ 5 * * 9 g.#X&XL.i $ $ w } B.X.3.|.'.'.'.'.].qXqX",
"qXqX+ 2 E W $.&.=.$.h 8 O 4 x.-X1XL.8 O 7 j <.O. .a.V N (.`._.).qXqX",
"qXqXqXqX; q h y.&.2.K.J 7 5 J.1X5XL.8 7 J L.A. .[ h 7 7 v ^.^.M qXqX",
"qXqXqXqXX - a e.*.W.6X+Xc x L.5X5XL.x c +X6XT.4.r.a $ @ l m M b qXqX",
"qXqXqXqXX - a r.c.~.9X8X}.[.%X1X1X$X[.}.8X9X~.c.r.a $ . qXqXqXqXqXqX",
"qXqXqXqX  = t k x.=X9X0XOXoX;X3X3X;XoXOX0X9X=Xx.k r =   qXqXqXqXqXqX",
"qXqXqXqXqXqX= t a.Q.4X7X;X;X2X3X3X2X;X;X7X4XQ.a.t = qXqXqXqXqXqXqXqX",
"qXqXqXqXqXqXo , h h.@X:X>X>X3X3X3X3X>X>X:X@Xh.k <   qXqXqXqXqXqXqXqX",
"qXqXqXqXqXqXo O , p h.Q.!.-X>X5X5X>X-X!.Q.h.p ; + qXqXqXqXqXqXqXqXqX",
"qXqXqXqXqXqX% & # 4 / x.I.R.#X&X&X#XR.I.x./ 4 o qXqXqXqXqXqXqXqXqXqX",
"qXqXqXqXqX2 g k t t A t.t.t.k.k.k.k.f.r.q.z r 2 qXqXqXqXqXqXqXqXqXqX",
"qXqXqXqXo 5 d.P.w.z A A Z z z z z Z w.w.A Z Z C qXqXqXqXqXqXqXqXqXqX",
"qXqXqXqX. 5 x.R.t.A w.w.w.A Z Z A t.l.K.K.K.K.k.u qXqXqXqXqXqXqXqXqX",
"qXqXqXqX  3 s.P.t.A t.r.r.t.q.A q.g.@X<X<X<X<XJ.9 o qXqXqXqXqXqXqXqX",
"qXqXqXqXqX1 f j Z Z e.y.y.y.e.s t k @X5X5X5X,XJ.5 X qXqXqXqXqXqXqXqX",
"qXqXqXqXqXqXX , t s e.) ) ) ) L > i L.<X<X*X!.s.4 o qXqXqXqXqXqXqXqX",
"qXqXqXqXqXqXX & e { <.<.<.<.u.e.d ~ x.E.k.p./ p & X qXqXqXqXqXqXqXqX",
"qXqXqXqXqXqXo > W C.D.D.D.V.a.a.V.V.{ L 4 $ $ # O o qXqXqXqXqXqXqXqX",
"qXqXqXqXqXqXqX: E ^ G.H.H.F.j.S ~ ~ e 0 #     @   qXqXqXqXqXqXqXqXqX",
"qXqXqXqXqXqXqXqX% 8 D .X.X[.D c 7 & $ # O     X qXqXqXqXqXqXqXqXqXqX",
"qXqXqXqXqXqXqXqXX - V  X XJ S z - @ o         + qXqXqXqXqXqXqXqXqXqX",
"qXqXqXqXqXqXqXqXX > ^ 4.4.4.4.^ > . qXqXqXqXqXqXqXqXqXqXqXqXqXqXqXqX",
"qXqXqXqXqXqXqXqX+ : Q b.v.n.m.Q : + qXqXqXqXqXqXqXqXqXqXqXqXqXqXqXqX",
"qXqXqXqXqXqXqXqXqXqXqXqXqXqXqXqXqXqXqXqXqXqXqXqXqXqXqXqXqXqXqXqXqXqX",
"qXqXqXqXqXqXqXqXqXqXqXqXqXqXqXqXqXqXqXqXqXqXqXqXqXqXqXqXqXqXqXqXqXqX"
};
