/* XPM */
static char *result[] = {
/* columns rows colors chars-per-pixel */
"34 40 214 2 ",
"   c black",
".  c #000001",
"X  c #020100",
"o  c #020101",
"O  c #020201",
"+  c #020306",
"@  c #0D0506",
"#  c #110006",
"$  c #190903",
"%  c #1E1209",
"&  c #000E17",
"*  c #160F10",
"=  c #180D10",
"-  c #201105",
";  c #331B05",
":  c #351B08",
">  c #361D08",
",  c #251612",
"<  c #281912",
"1  c #2B1B14",
"2  c #381E1E",
"3  c #3A2415",
"4  c #161F3A",
"5  c #261F21",
"6  c #361D27",
"7  c #22272A",
"8  c #372920",
"9  c #372C21",
"0  c #451216",
"q  c #4B2609",
"w  c #6D3F1C",
"e  c #46272C",
"r  c #492F28",
"t  c #5E2023",
"y  c #55292B",
"u  c #5E3E2B",
"i  c #4F2E33",
"p  c #573138",
"a  c #7C3623",
"s  c #77512F",
"d  c #6E4235",
"f  c #734A35",
"g  c #252D4F",
"h  c #353F60",
"j  c #643C44",
"k  c #6F3E47",
"l  c #3C484E",
"z  c #174869",
"x  c #304170",
"c  c #334270",
"v  c #3A4A7C",
"b  c #384D7E",
"n  c #2D5879",
"m  c #51525B",
"M  c #694349",
"N  c #6F464C",
"B  c #7B4347",
"V  c #75554B",
"C  c #4E5C7E",
"Z  c #664961",
"A  c #7C6462",
"S  c #6D647E",
"D  c #7F6177",
"F  c #7A7978",
"G  c #8F350F",
"H  c #903A28",
"J  c #843B3A",
"K  c #A5373C",
"L  c #A6383B",
"P  c #A73A3C",
"I  c #AC3D3A",
"U  c #80470F",
"Y  c #905510",
"T  c #AB5515",
"R  c #BD5F10",
"E  c #B96014",
"W  c #9E5D22",
"Q  c #99443F",
"!  c #B85227",
"~  c #AD413B",
"^  c #B24036",
"/  c #B24137",
"(  c #B54537",
")  c #BB4532",
"_  c #B94636",
"`  c #BF4B31",
"'  c #B24138",
"]  c #B5543F",
"[  c #8E6724",
"{  c #AA613B",
"}  c #B96034",
"|  c #D56F16",
" . c #D0661E",
".. c #E07317",
"X. c #EE791C",
"o. c #EA7E1F",
"O. c #F5771C",
"+. c #F47E1B",
"@. c #F27B1C",
"#. c #F57D1C",
"$. c #F9781B",
"%. c #FF7F1D",
"&. c #D64B2F",
"*. c #C9552C",
"=. c #CE5B2B",
"-. c #D04333",
";. c #D95E3A",
":. c #EA4D2B",
">. c #E2512F",
",. c #ED5A2A",
"<. c #CA6D29",
"1. c #DB6526",
"2. c #DE6E25",
"3. c #D5612A",
"4. c #D6772B",
"5. c #C5753E",
"6. c #D87E33",
"7. c #ED6F22",
"8. c #F36621",
"9. c #E27022",
"0. c #F47022",
"q. c #EA6037",
"w. c #844D4A",
"e. c #964F4C",
"r. c #8A5A40",
"t. c #92584D",
"y. c #9A594B",
"u. c #935E55",
"i. c #A44745",
"p. c #BC4C42",
"a. c #BE5849",
"s. c #A45B55",
"d. c #83694E",
"f. c #A96947",
"g. c #AA7345",
"h. c #B37948",
"j. c #AB675E",
"k. c #A27155",
"l. c #AE795A",
"z. c #966D64",
"x. c #9A7760",
"c. c #997869",
"v. c #B07F70",
"b. c #C27E57",
"n. c #DD7453",
"m. c #FF8115",
"M. c #FF8116",
"N. c #FF8317",
"B. c #F78019",
"V. c #F4801F",
"C. c #FA811A",
"Z. c #D08F26",
"A. c #F68625",
"S. c #E99D21",
"D. c #EE843C",
"F. c #E68939",
"G. c #F38834",
"H. c #F6933A",
"J. c #EAAA21",
"K. c #A38C45",
"L. c #BC824F",
"P. c #A29C5A",
"I. c #BD8E63",
"U. c #BA8F7D",
"Y. c #B59576",
"T. c #BB9E7F",
"R. c #CC8758",
"E. c #D48554",
"W. c #F1884D",
"Q. c #F29445",
"!. c #EB9B5D",
"~. c #F5A158",
"^. c #DE9E6D",
"/. c #C58670",
"(. c #ED8362",
"). c #E3A374",
"_. c #F4B17C",
"`. c #395788",
"'. c #365F91",
"]. c #396192",
"[. c #396999",
"{. c #3974A4",
"}. c #3978A8",
"|. c #527389",
" X c #45739E",
".X c #666A86",
"XX c #667583",
"oX c #54819C",
"OX c #8197A2",
"+X c #87A7BD",
"@X c #ABAFAD",
"#X c #D7A982",
"$X c #DCAD87",
"%X c #C0AE98",
"&X c #C0AF98",
"*X c #FABC81",
"=X c #FFBF83",
"-X c #E1BA94",
";X c #CEBCA4",
":X c #F8C997",
">X c #F1C79C",
",X c #FFCF9C",
"<X c #CEC2AF",
"1X c #E7C7A2",
"2X c #F7CEA1",
"3X c #F0CBAD",
"4X c #FDD3A5",
"5X c #FFDBAC",
"6X c #ECD6BB",
"7X c #C2D1DB",
"8X c #FEE4CD",
"9X c #FCE3D0",
"0X c #D8DEE0",
"qX c None",
/* pixels */
"qXqXqXqXqXqXqXqXqXqXqXqXqXqXqXqXqXqXqXqXqXqXqXqXqXqXqXqXqXqXqXqXqXqX",
"qXqXqXqXqXqXqXqXqXqXqXqXqXqXqXqXqXqXqXqXqXqXqXqXqXqXqXqXqXqXqXqXqXqX",
"qXqXqXqXqXqXqXqXqXqXqXL L L L L L L L qXqXqXqXqXqXqXqXqXqXqXqXqXqXqX",
"qXqXqXqXqXqXqXqXqXqX/ ( ( ( ( ( ^ ^ ^ / qXqXqXqXqXqXqXqXqXqXqXqXqXqX",
"qXqXqXqXqXqXqXqXqX' =.1.1.1.1.3.&.-.-.) ' K K K K K K K K qXqXqXqXqX",
"qXqXqXqXqXqXqXqX/ ` 9.+.+.+.+.7.,.:.:.&.` ^ ^ ^ ^ ( ( ^ ~ I qXqXqXqX",
"qXqXqXqXqXqXqX' =.1.X.B.B.B.B.#.0.8.8.7.1.3.3.3.3.3.1.3.( P qXqXqXqX",
"qXqXqXqXqXqXI ` 9.+.+.+.+.+.@.@.@.+.+.@.@.@.@.@.@.X... .) L qXqXqXqX",
"qXqXqXqXqX_ *.1.X.C.C.C.B.O.8.8.O.B.B.B.B.B.B.B.C.| Y w H qXqXqXqXqX",
"qXqXqXqX' ` 2.V.#.@.o.o.@.7.>.>.7.#.V.V.V.V.+.B.C.E q X qXqXqXqXqXqX",
"qXqXqX_ *.3.D.G.0.3.{ { 1.;.s.s.;.0.G.Q.Q.G.V.B.C.E : o qXqXqXqXqXqX",
"qXqXL ) 1.G.Q.W.q.p.Z Z p.a..X.Xa.q.W.!.!.Q.A.B.C.E : o qXqXv v qXqX",
"qXqXt a  .A.H.D.,.p.C C D D  X XD j.n.W.Q.H.A.O.0.! r 4 c c `.].qXqX",
"qXqXo q E C.A.0.,.p..X{. X X{.{. XS a.,.7.V.+.0.,.p.Z x b `.[.}.qXqX",
"qXqXX : E %.0.8.:.( m z z n XXOXOXF J G G T ..$.8.a.S '.'.'.{.}.qXqX",
"qXqXo : E O.,.:.:.^ 2 & & 9 k.#X-XY.r $ $ q E C.$.5.XX{.{.{.{.}.qXqX",
"qXqX  ; U T ` -.>.` d 7 O 3 L.=X,XT.9 O 7 d <.@.2.{ m n '.[.[.].qXqX",
"qXqXqXqX- 3 d i.-.;.U.F 5 9 Y.,X4XY.9 5 F T.F.9.{ d 5 7 h b b v qXqX",
"qXqXqXqXX * p e.;.(.3X@Xl l T.4X4XT.l l @X3X~.4.y.p * + g v v c qXqX",
"qXqXqXqXX * p y.E._.9X7XoX|.&X4X4X%X|.oX7X9X_.E.y.p * . qXqXqXqXqXqX",
"qXqXqXqX  = e w.b._.8X0X+XOX;X2X2X;XOX+X0X8X_.b.w.e =   qXqXqXqXqXqX",
"qXqXqXqXqXqX= r f.).3X6X<X;X1X2X2X1X;X<X6X3X).f.r = qXqXqXqXqXqXqXqX",
"qXqXqXqXqXqXX , d l.#X>X:X:X2X2X2X2X:X:X>X#Xl.f <   qXqXqXqXqXqXqXqX",
"qXqXqXqXqXqXo O , u l.^._.*X:X4X4X:X*X_.^.l.u 1 qXqXqXqXqXqXqXqXqXqX",
"qXqXqXqXqXqXo @ @ 2 r.b.R.^.$X-X-X$X^.E.b.r.r - qXqXqXqXqXqXqXqXqXqX",
"qXqXqXqXqXqX6 2 5 r B t.t.u.z.z.z.z.k.y.w.w.r.s > qXqXqXqXqXqXqXqXqX",
"qXqXqXqXqXqXM N N N w.w.k j j j j k B B j w.R.h.3 o qXqXqXqXqXqXqXqX",
"qXqXqXqXqX8 c.U.U.U.U.v.u.B k k B w.w.w.k t.!.L.3 . qXqXqXqXqXqXqXqX",
"qXqXqXqXo 9 Y.>X>X>X>X$Xj.w.B w.e.s.s.e.B t.R.g.9   qXqXqXqXqXqXqXqX",
"qXqXqXqXX 9 I.:X4X5X5X#XV y J Q i.i.i.Q k k f w 8 qXqXqXqXqXqXqXqXqX",
"qXqXqXqXX 3 g.).-X>X>XY.r : a ~ ~ ~ ~ Q B i , X qXqXqXqXqXqXqXqXqXqX",
"qXqXqXqXX % u r.d.x./.b.[ U Q ] <.4.4.<.} a % X qXqXqXqXqXqXqXqXqXqX",
"qXqXqXqXo O @ * * 2 J } Z.Z.f.f.Z.J.J.S.o.T : o qXqXqXqXqXqXqXqXqXqX",
"qXqXqXqXqXo + O O # 0 a Y [ V A P.P.P.K.W U > qXqXqXqXqXqXqXqXqXqXqX",
"qXqXqXqXqXqXX O O O # $ % 5 h C |.oXoXC 7 - qXqXqXqXqXqXqXqXqXqXqXqX",
"qXqXqXqXqXqX          o + * j A F F F m * X qXqXqXqXqXqXqXqXqXqXqXqX",
"qXqXqXqXqXqXqXqXqXqXqXqX. : W 4.6.6.6.W : X qXqXqXqXqXqXqXqXqXqXqXqX",
"qXqXqXqXqXqXqXqXqXqXqXqX  > R N.M.m.m.R >   qXqXqXqXqXqXqXqXqXqXqXqX",
"qXqXqXqXqXqXqXqXqXqXqXqXqXqXqXqXqXqXqXqXqXqXqXqXqXqXqXqXqXqXqXqXqXqX",
"qXqXqXqXqXqXqXqXqXqXqXqXqXqXqXqXqXqXqXqXqXqXqXqXqXqXqXqXqXqXqXqXqXqX"
};
