/* XPM */
static char *result[] = {
/* columns rows colors chars-per-pixel */
"34 40 207 2 ",
"   c black",
".  c #010000",
"X  c #020100",
"o  c #060503",
"O  c #0A0302",
"+  c #0B0504",
"@  c #0B0605",
"#  c #0A0705",
"$  c #1C0804",
"%  c #190C06",
"&  c #130A08",
"*  c #140B08",
"=  c #1D110A",
"-  c #19120C",
";  c #000613",
":  c #1D191C",
">  c #290D08",
",  c #2B1105",
"<  c #3C1D03",
"1  c #36110B",
"2  c #38130F",
"3  c #2C1B18",
"4  c #3B1818",
"5  c #192234",
"6  c #262B2D",
"7  c #3B2620",
"8  c #2A2F3D",
"9  c #54190F",
"0  c #701E10",
"q  c #45210A",
"w  c #542907",
"e  c #43291E",
"r  c #592017",
"t  c #7D2617",
"y  c #693B15",
"u  c #46272C",
"i  c #4F3123",
"p  c #553425",
"a  c #5D3038",
"s  c #7B363C",
"d  c #733839",
"f  c #66412C",
"g  c #754C20",
"h  c #6E473B",
"j  c #1A2545",
"k  c #1B3041",
"l  c #323E6A",
"z  c #413E55",
"x  c #1D4B69",
"c  c #364676",
"v  c #394778",
"b  c #3A4779",
"n  c #354879",
"m  c #3B4C7C",
"M  c #504049",
"N  c #75464D",
"B  c #645240",
"V  c #66535F",
"C  c #7B5655",
"Z  c #40476E",
"A  c #505A61",
"S  c #48517A",
"D  c #565677",
"F  c #6C6965",
"G  c #7E7674",
"H  c #942E1E",
"J  c #A1361D",
"K  c #8F3531",
"L  c #A53C35",
"P  c #A2383A",
"I  c #A6383C",
"U  c #A93B3A",
"Y  c #A93B3B",
"T  c #AA3B3A",
"R  c #AA3C3B",
"E  c #BD3F37",
"W  c #B33F3B",
"Q  c #BA3C38",
"!  c #C03924",
"~  c #CD3E28",
"^  c #C13F36",
"/  c #844108",
"(  c #984D0F",
")  c #A04B17",
"_  c #A55A1B",
"`  c #B3561B",
"'  c #984322",
"]  c #885539",
"[  c #AF403A",
"{  c #B74432",
"}  c #BF543F",
"|  c #BD6720",
" . c #A9673F",
".. c #D06C18",
"X. c #D56F19",
"o. c #EC761D",
"O. c #EF7A1B",
"+. c #F5741F",
"@. c #F37B1B",
"#. c #F57E1A",
"$. c #F37F1F",
"%. c #C6542E",
"&. c #CA572F",
"*. c #D15D2A",
"=. c #CE4931",
"-. c #E0452D",
";. c #E04A2E",
":. c #EC5335",
">. c #F05F38",
",. c #D8612A",
"<. c #DA7526",
"1. c #C67032",
"2. c #D27E35",
"3. c #E96026",
"4. c #EF6025",
"5. c #E46E25",
"6. c #EA7C20",
"7. c #E07E2A",
"8. c #824848",
"9. c #9D4448",
"0. c #90504D",
"q. c #8E5A5A",
"w. c #A94B47",
"e. c #A95858",
"r. c #806A4A",
"t. c #936146",
"y. c #856452",
"u. c #916352",
"i. c #B5754B",
"p. c #BD6A5B",
"a. c #A2775B",
"s. c #8C6C61",
"d. c #8E7A60",
"f. c #B27565",
"g. c #C07E5D",
"h. c #ED6547",
"j. c #EF7957",
"k. c #E8801F",
"l. c #FC8116",
"z. c #F88019",
"x. c #F78422",
"c. c #F98A2F",
"v. c #E3A22A",
"b. c #B08660",
"n. c #BA826A",
"m. c #B1907D",
"M. c #BC957D",
"N. c #D08E59",
"B. c #E78E41",
"V. c #EC804F",
"C. c #F59441",
"Z. c #EF9C5E",
"A. c #F49E52",
"S. c #E1A255",
"D. c #C68265",
"F. c #CD9467",
"G. c #D78670",
"H. c #CA9F7E",
"J. c #E19969",
"K. c #F1916D",
"L. c #EFA866",
"P. c #EFA46A",
"I. c #E1A572",
"U. c #F2A57D",
"Y. c #F2B179",
"T. c #384F81",
"R. c #2B528C",
"E. c #395D8D",
"W. c #37628D",
"Q. c #2B629C",
"!. c #386A9A",
"~. c #3B77A4",
"^. c #446583",
"/. c #58778E",
"(. c #4E779D",
"). c #6A7686",
"_. c #5185A9",
"`. c #7595AC",
"'. c #808889",
"]. c #9D8183",
"[. c #979891",
"{. c #A0A19D",
"}. c #B6B4AA",
"|. c #D4A889",
" X c #DAB68F",
".X c #DCB892",
"XX c #E5AB81",
"oX c #E3B28A",
"OX c #F6BD85",
"+X c #F3B48B",
"@X c #E4BF99",
"#X c #D3BFA6",
"$X c #EDC69E",
"%X c #F1C195",
"&X c #F8C290",
"*X c #F9C996",
"=X c #F5C89A",
"-X c #DCC6AC",
";X c #E4C8A6",
":X c #F5D0A4",
">X c #FED2A0",
",X c #F5D5B2",
"<X c #9CB5C5",
"1X c #FEE9D4",
"2X c #D6DCE1",
"3X c #E6E4E0",
"4X c None",
/* pixels */
"4X4X4X4X4X4X4X4X4X4X4X4X4X4X4X4X4X4X4X4X4X4X4X4X4X4X4X4X4X4X4X4X4X4X",
"4X4X4X4X4X4X4X4X4X4X4X4X4X4X4X4X4X4X4X4X4X4X4X4X4X4X4X4X4X4X4X4X4X4X",
"4X4X4X4X4X4X4X4X4X4X4X4X4X4X4X4X4X4X4X4X4X4X4X4X4X4X4X4X4X4X4X4X4X4X",
"4X4X4X4X4X4X4X4X4X4X4X4X4X4X4X4X4X4X4X4X4X4X4X4X4X4X4X4X4X4X4X4X4X4X",
"4X4XP Y T Y Y Y Y Y Y Y Y Y Y Y Y T U 4X4X4X4X4X4X4X4X4X4X4X4X4X4X4X",
"4X4XU [ { %.%.%.%.%.%.%.%.^ ^ ^ ^ ^ E W 4X4X4X4X4X4X4X4X4X4X4X4X4X4X",
"4X4XI { *.o.o.o.o.o.o.o.3.;.-.-.;.;.=.E T T T R Y 4X4X4X4X4X4X4X4X4X",
"4X4X4XW &.,.o.#.z.z.z.z.+.4.4.4.4.4.3.*.%.%.%.=.^ Q 4X4X4X4X4X4X4X4X",
"4X4X4X4XI { ,.@.#.#.#.#.@.@.@.@.@.@.@.O.O.O.o.3.;.^ T P 4X4X4X4X4X4X",
"4X4X4X2 ' *.5.z.l.z.z.#.#.#.#.#.#.z.l.l.l.z.#.+.3.=.[ W 4X4X4X4X4X4X",
"4X4X. = ( o.$.6.6.6.6.$.$.$.$.#.@.6.6.6.6.$.#.z.o.%.L P 4X4X4X4X4X4X",
"4X4X  , ( 6.1.t.y.t.i.B.C.C.c.x.<. .u.s.a.2.z.l.O.) r 2 4X4X4X4X4X4X",
"4X4X  , ( <.u.Z n S G F.Z.Z.C.x.1.V T.!./.a.7.$.X.y = ; 4X4X4X4X4X4X",
"4X4X  , J ,.q.m R.Q.(.'.m.B.c.x.1.V R.Q.~./.G s.C M 8 j c 4X4X4X4X4X",
"4X4X  % t { N Z W.(.~.!.F | o.@.1.C S (._._.(.^.m n m T.m c 4X4X4X4X",
"4X4X  + , q 3 5 F {.).k : q / X.5.} e.m.}.}.{.).T.R.!.!.!.E.v 4X4X4X",
"4X4X@       X - y. Xd.-   : f ..+.>.j.U.=X>X@X].D m W.!.~.!.T.v 4X4X",
"4X4X4X4X4X4X  o r. Xd.- 6 F b.7.c.Z.U.Y.Y.*X%XG.w.a k x !.!.T.v 4X4X",
"4X4X4X4X4X4X* 7 d..Xd.6 A }.$XA.A.OX=XY.P.Y.U.j.;.0 + k W.W.T.v 4X4X",
"4X4X4X4X4X& p t.H.@X[.^.`.2X1X*XOX=X%XY.Z.V.h.>.-.0 + 5 n T.n v 4X4X",
"4X4X4X4X. % f g.XX$X}.`.<X3X1X,X:X:X%XP.V.>.-.~ J 9 & j l b b v 4X4X",
"4X4X4X4X. % f g.XX$X;X#X-X,X,X:X:X:X+Xj.:.:.~ t 1 $ 4X4X4X4X4X4X4X4X",
"4X4X4X4X4X@ i ] n.oX&X&X*X=X:X:X=X+XK.h.-.! H 9   4X4X4X4X4X4X4X4X4X",
"4X4X4X4X4X4X* 3 h g.J.P.OX=X:X:X+Xj.:.:.~ 0 > O 4X4X4X4X4X4X4X4X4X4X",
"4X4X4X4X4X4X4X. e h ] t.a.M.M.M.n.} { J t , . 4X4X4X4X4X4X4X4X4X4X4X",
"4X4X4X4X4X4X4X4X@ = - - 7 h N N N 8.d 4 % + . 4X4X4X4X4X4X4X4X4X4X4X",
"4X4X4X4X4X4X4X4X4XX + 3 u a N q.s.q.N u : + . 4X4X4X4X4X4X4X4X4X4X4X",
"4X4X4X4X4X4X4X4X4XX 7 8.0.8.a.|.|.f.0.8.a 3 . 4X4X4X4X4X4X4X4X4X4X4X",
"4X4X4X4X4X4X4X4X  # p i.D.n.H.$XoXp.9.9.s 4 . 4X4X4X4X4X4X4X4X4X4X4X",
"4X4X4X4X4X4X4X4X  # f N.Y.%X$X=XXXp.[ [ K 4 . 4X4X4X4X4X4X4X4X4X4X4X",
"4X4X4X4X4X4X4X4X  # B XX>X>X>XOXL.B.<.5.` q X 4X4X4X4X4X4X4X4X4X4X4X",
"4X4X4X4X4X4X4X4X  # B H.$X@XoXI.S.v.v.k.| w . 4X4X4X4X4X4X4X4X4X4X4X",
"4X4X4X4X4X4X4X4XO o 3 B B B F G '.d.r.g y < 4X4X4X4X4X4X4X4X4X4X4X4X",
"4X4X4X4X4X4X4X4X4X  o + + % 8 ^./.D z :   4X4X4X4X4X4X4X4X4X4X4X4X4X",
"4X4X4X4X4X4X4X4X4X4X  X , / _ i.i.i.] 3   4X4X4X4X4X4X4X4X4X4X4X4X4X",
"4X4X4X4X4X4X4X4X4X4X4X. q ` X...X.X._ q   4X4X4X4X4X4X4X4X4X4X4X4X4X",
"4X4X4X4X4X4X4X4X4X4X4XX % q w w w w q % . 4X4X4X4X4X4X4X4X4X4X4X4X4X",
"4X4X4X4X4X4X4X4X4X4X4X@   . . . . . .     4X4X4X4X4X4X4X4X4X4X4X4X4X",
"4X4X4X4X4X4X4X4X4X4X4X4X4X4X4X4X4X4X4X4X4X4X4X4X4X4X4X4X4X4X4X4X4X4X",
"4X4X4X4X4X4X4X4X4X4X4X4X4X4X4X4X4X4X4X4X4X4X4X4X4X4X4X4X4X4X4X4X4X4X"
};
