/* XPM */
static char *result[] = {
/* columns rows colors chars-per-pixel */
"34 40 215 2 ",
"   c black",
".  c #040200",
"X  c #040201",
"o  c #070302",
"O  c #030204",
"+  c #050405",
"@  c #020409",
"#  c #0D0808",
"$  c #110702",
"%  c #190A04",
"&  c #190B07",
"*  c #171111",
"=  c #10131E",
"-  c #25120A",
";  c #2C120C",
":  c #28140E",
">  c #301700",
",  c #3D1F05",
"<  c #32190A",
"1  c #221611",
"2  c #3E230C",
"3  c #392319",
"4  c #16223C",
"5  c #192D3F",
"6  c #232429",
"7  c #392120",
"8  c #393026",
"9  c #3A3A3C",
"0  c #46140B",
"q  c #52160B",
"w  c #57240C",
"e  c #563016",
"r  c #773A0D",
"t  c #763A0F",
"y  c #752917",
"u  c #472924",
"i  c #5D2423",
"p  c #4E3A2C",
"a  c #583537",
"s  c #6F4925",
"d  c #664232",
"f  c #7A4D35",
"g  c #2B365C",
"h  c #3E3E5A",
"j  c #2E3B66",
"k  c #443F4E",
"l  c #713F43",
"z  c #1E4E6D",
"x  c #34406D",
"c  c #394677",
"v  c #384976",
"b  c #394F7F",
"n  c #5D5152",
"m  c #5E5E5D",
"M  c #6A5742",
"N  c #795152",
"B  c #705B5A",
"V  c #5A4C6B",
"C  c #5E5062",
"Z  c #665769",
"A  c #5F6A70",
"S  c #6A6576",
"D  c #656F7A",
"F  c #952E1E",
"G  c #A2321F",
"H  c #832E2A",
"J  c #8D372A",
"K  c #843B3C",
"L  c #BC3923",
"P  c #A7393B",
"I  c #A73B3B",
"U  c #A7393C",
"Y  c #A73E3F",
"T  c #A83A3B",
"R  c #AA3B3B",
"E  c #AC3A3C",
"W  c #B63D39",
"Q  c #B63F38",
"!  c #D73F27",
"~  c #A55614",
"^  c #BD6112",
"/  c #A94925",
"(  c #BD4436",
")  c #B94A32",
"_  c #B94A33",
"`  c #BC4B33",
"'  c #B24239",
"]  c #B54138",
"[  c #AA612D",
"{  c #CE6919",
"}  c #D56716",
"|  c #EB761E",
" . c #F2721F",
".. c #F3771F",
"X. c #F57E1A",
"o. c #D74F2C",
"O. c #C9572F",
"+. c #D45A2B",
"@. c #CE4232",
"#. c #D74431",
"$. c #C45131",
"%. c #C05933",
"&. c #E3482E",
"*. c #EB5629",
"=. c #E94C31",
"-. c #F15335",
";. c #C66D22",
":. c #DE6A24",
">. c #C57E20",
",. c #D87322",
"<. c #C77130",
"1. c #CE7531",
"2. c #CB7B39",
"3. c #E66325",
"4. c #E16D23",
"5. c #F16C21",
"6. c #E47020",
"7. c #EF7E20",
"8. c #954243",
"9. c #915B47",
"0. c #9F5D4A",
"q. c #835354",
"w. c #805B5A",
"e. c #BA5348",
"r. c #96645E",
"t. c #8C7053",
"y. c #A16B49",
"u. c #B86642",
"i. c #B47B4F",
"p. c #AB6C57",
"a. c #A97B5A",
"s. c #886874",
"d. c #857D7A",
"f. c #AC7466",
"g. c #CE6754",
"h. c #D07C50",
"j. c #E96440",
"k. c #F16741",
"l. c #EE7250",
"z. c #C17062",
"x. c #F6801A",
"c. c #F98018",
"v. c #FB8119",
"b. c #FF8319",
"n. c #C5993C",
"m. c #E2812F",
"M. c #F58524",
"N. c #F5872C",
"B. c #EA9B2D",
"V. c #F7923D",
"C. c #958B7F",
"Z. c #B98E79",
"A. c #AE9071",
"S. c #BE9674",
"D. c #B79878",
"F. c #D28B5B",
"G. c #EF984F",
"H. c #EC8B56",
"J. c #EE9B55",
"K. c #F69D50",
"L. c #C09265",
"P. c #D9976C",
"I. c #C18071",
"U. c #C09B7E",
"Y. c #CF9878",
"T. c #F18F6A",
"R. c #F49B68",
"E. c #F0A460",
"W. c #E5A672",
"Q. c #EFA473",
"!. c #F3AE77",
"~. c #F4B87F",
"^. c #314B82",
"/. c #394F81",
"(. c #395181",
"). c #3D5686",
"_. c #2E5E96",
"`. c #395F90",
"'. c #356283",
"]. c #3A6597",
"[. c #386E9D",
"{. c #3673A3",
"}. c #5A6983",
"|. c #57768F",
" X c #4C799F",
".X c #6C7880",
"XX c #79878C",
"oX c #678193",
"OX c #628BA7",
"+X c #7899AF",
"@X c #7E9EB6",
"#X c #A1A09B",
"$X c #CFA98B",
"%X c #DAAE88",
"&X c #D4B795",
"*X c #EEAB81",
"=X c #F7BF89",
"-X c #E5B894",
";X c #F0BB90",
":X c #C5B5A2",
">X c #FAC794",
",X c #F5C799",
"<X c #F9CD9E",
"1X c #CAC0AE",
"2X c #DEC4A5",
"3X c #DCC8B0",
"4X c #EFC9A2",
"5X c #F6D0A5",
"6X c #FCD3A4",
"7X c #F6D6B4",
"8X c #A7BCCA",
"9X c #FDE6D0",
"0X c #FFEBD5",
"qX c #E4E5E3",
"wX c None",
/* pixels */
"wXwXwXwXwXwXwXwXwXwXwXwXwXwXwXwXwXwXwXwXwXwXwXwXwXwXwXwXwXwXwXwXwXwX",
"wXwXwXwXwXwXwXwXwXwXwXwXwXwXwXwXwXwXwXwXwXwXwXwXwXwXwXwXwXwXwXwXwXwX",
"wXwXwXwXwXwXwXwXwXwXwXwXwXwXwXwXwXwXwXwXwXwXwXwXwXwXwXwXwXwXwXwXwXwX",
"wXwXwXwXwXwXwXwXwXwXwXwXwXwXwXwXwXwXwXwXwXwXwXwXwXwXwXwXwXwXwXwXwXwX",
"wXwXwXwXwXwXwXwXwXwXwXwXwXwXI T T U U U U U U U U U U U U T R wXwXwX",
"wXwXwXwXwXwXwXwXwXwXwXwXwX] W Q Q Q Q Q ( _ ` ` ` ` ` ` _ Q Y P wXwX",
"wXwXwXwXwXwXwXP T T U U T W @.#.#.#.#.#.+.4.4.4.4.4.4.6.:.$.Q P wXwX",
"wXwXwXwXwXwXE W Q _ _ _ ` o.*.*.*.*.*.*.5.X.x.x.x.x.X.| :.O.' wXwXwX",
"wXwXwXwXwXR W @.o.3.4.4.4.6. . . . . . ...X.X.X.x.x.| +.) ] wXwXwXwX",
"wXwXwXwXE W ( o.3. .x.c.c.c.x.x.X.X.X.X.X.X.X.x.c.c.| +.) J wXwXwXwX",
"wXwXwXwXE W $.3...X.x.c.c.c.c.x.X.X.X.X.X.X.X.c.c.c.X...{ t . wXwXwX",
"wXwXwXwXwXH / 6.v.v.7.m.2.2.<.,.| x.M.N.N.N.m.1.<.<.1.7.,.r $ @ wXwX",
"wXwXwXwXwX; r { b.b.m.a..X}.Z 9.,.M.V.G.K.G.i.w.C C w.1.,.r $ @ wXwX",
"wXwXwXwX@ = u [ 1.2.i..X{._.^.B <.M.V.J.P.S.d.).^.^.V u.} r $   wXwX",
"wXwXwXc j g h C Z D |. X{._.^.B <.v.b.m.A.oX X[._.^.V e.o.y $   wXwX",
"wXwX(.).).)./.^.). XOXOXOX}.Z 9.,.| } ~ n '.[.OX|.v k K F q $ @ wXwX",
"c b `.[.[.[._.^.}.#X:X1X:XI.e.+.| { r < * 6 m #XC.9 * 1 < % + @ wXwX",
"v /.].{.[.'.v V s.$X<X<X=XR.l.k...;.s 6 + # M %XD.8 X   O O . wXwXwX",
"v /.].[.z 5 u 8.g.*X<X=X!.!.*XR.N.m.L.d.9 * M $XA.8   o wXwXwXwXwXwX",
"v /.]._.5 # q L k.T.*XQ.E.~.,X~.K.E.4X1XA 5 B &XU.d : o wXwXwXwXwXwX",
"v v /.v 5 # q L -.k.l.H.E.~.,X,X=X,X9XqX@X'.XX&X%Xa.f 3   wXwXwXwXwX",
"c c c x 4 O 0 F L ! =.k.H.!.,X5X5X7X0XqX8X+X#X2X;XP.0.u X o wXwXwXwX",
"wXwXwXwXwXwX& ; w L =.-.j.T.,X5X5X5X7X7X3X1X2X4X;XP.0.u X o wXwXwXwX",
"wXwXwXwXwXwXwX@ : y L ! =.l.Q.;X,X5X5X<X,X>X>X;XY.p.f 3   wXwXwXwXwX",
"wXwXwXwXwXwXwXwXwX- q G &.-.k.T.;X5X5X<X=X!.Q.P.y.p ; & wXwXwXwXwXwX",
"wXwXwXwXwXwXwXwXwX  % w G L @.g.Y.$X$X$XL.i.y.9.d : @ wXwXwXwXwXwXwX",
"wXwXwXwXwXwXwXwXwX  + % < i K 8.q.w.w.N a 7 < < - wXwXwXwXwXwXwXwXwX",
"wXwXwXwXwXwXwXwXwX  + + * u l q.q.N l a 7 1 #     wXwXwXwXwXwXwXwXwX",
"wXwXwXwXwXwXwXwXwX  # 7 a l 9.f.U.Z.r.l l l 7 #   wXwXwXwXwXwXwXwXwX",
"wXwXwXwXwXwXwXwXwX  # u K 8.0.I.-X-XZ.r.p.p.d *   wXwXwXwXwXwXwXwXwX",
"wXwXwXwXwXwXwXwXwX  % i 8.Y Y z.-X4X-X%XW.F.f 1   wXwXwXwXwXwXwXwXwX",
"wXwXwXwXwXwXwXwXwX. % y _ $.%.h.*X,X6X<X>XW.9.1   wXwXwXwXwXwXwXwXwX",
"wXwXwXwXwXwXwXwXwX. % r 4.M.B.B.E.~.>X6X6X;Xt.1   wXwXwXwXwXwXwXwXwX",
"wXwXwXwXwXwXwXwXwX  - t ^ >.n.n.L.S.D.D.U.A.M * . wXwXwXwXwXwXwXwXwX",
"wXwXwXwXwXwXwXwXwXwXwX> 2 p m D oX}.k 8 8 8 1 + . wXwXwXwXwXwXwXwXwX",
"wXwXwXwXwXwXwXwXwXwXwX  X 6 n S .XA p < % + X O   wXwXwXwXwXwXwXwXwX",
"wXwXwXwXwXwXwXwXwXwXwX  X e [ 2.2.2.;.~ w $   wXwXwXwXwXwXwXwXwXwXwX",
"wXwXwXwXwXwXwXwXwXwXwX  X w ~ ^ ^ ^ ^ ~ w X   wXwXwXwXwXwXwXwXwXwXwX",
"wXwXwXwXwXwXwXwXwXwXwX  X % < , , , , < % X   wXwXwXwXwXwXwXwXwXwXwX",
"wXwXwXwXwXwXwXwXwXwXwX  X                 X   wXwXwXwXwXwXwXwXwXwXwX"
};
