/* XPM */
static char *result[] = {
/* columns rows colors chars-per-pixel */
"34 40 216 2 ",
"   c black",
".  c #010000",
"X  c #020100",
"o  c #030001",
"O  c #050101",
"+  c #060507",
"@  c #080402",
"#  c #080503",
"$  c #080505",
"%  c #1F0D0E",
"&  c #181419",
"*  c #2D0B05",
"=  c #341B03",
"-  c #3F130D",
";  c #281214",
":  c #3E2A18",
">  c #111426",
",  c #121D2F",
"<  c #341E25",
"1  c #15213C",
"2  c #12283E",
"3  c #2D283B",
"4  c #42120A",
"5  c #55190E",
"6  c #5A1E0C",
"7  c #521D1C",
"8  c #651C0E",
"9  c #562C0B",
"0  c #5D2908",
"q  c #5E3007",
"w  c #653308",
"e  c #713A0C",
"r  c #6A2016",
"t  c #4F2A34",
"y  c #53303C",
"u  c #6D2C2B",
"i  c #7C3426",
"p  c #5F4027",
"a  c #6B482B",
"s  c #734E2D",
"d  c #1E3555",
"f  c #2E2F42",
"g  c #232948",
"h  c #262B49",
"j  c #33304B",
"k  c #29345C",
"l  c #2C395A",
"z  c #5C3541",
"x  c #5D3543",
"c  c #523945",
"v  c #5B394B",
"b  c #643945",
"n  c #643A44",
"m  c #6D3D46",
"M  c #713841",
"N  c #7E3C43",
"B  c #633F57",
"V  c #18405C",
"C  c #26417E",
"Z  c #364577",
"A  c #394575",
"S  c #394577",
"D  c #394677",
"F  c #394778",
"G  c #364A7B",
"H  c #394D7F",
"J  c #3F517C",
"K  c #754349",
"L  c #7C474A",
"P  c #7F4E49",
"I  c #6A4151",
"U  c #7B5752",
"Y  c #424064",
"T  c #4A446B",
"R  c #504A6E",
"E  c #454B72",
"W  c #545C7F",
"Q  c #6A4662",
"!  c #644E69",
"~  c #8D3D21",
"^  c #973121",
"/  c #89383B",
"(  c #9F3837",
")  c #A03527",
"_  c #AC3523",
"`  c #A83A3B",
"'  c #A93B3B",
"]  c #AA3B3B",
"[  c #AA3C3A",
"{  c #B03F38",
"}  c #B93D38",
"|  c #86450F",
" . c #93431A",
".. c #B65F12",
"X. c #80631A",
"o. c #80533B",
"O. c #AF5C2F",
"+. c #A7403C",
"@. c #AB413C",
"#. c #BB4136",
"$. c #BB4A33",
"%. c #BA4A34",
"&. c #BE4C34",
"*. c #8F793F",
"=. c #C0641F",
"-. c #DE721C",
";. c #F5681D",
":. c #E5771D",
">. c #EB781E",
",. c #F07C1A",
"<. c #F47C1B",
"1. c #F1781D",
"2. c #F57E1C",
"3. c #F97818",
"4. c #C64328",
"5. c #D4422A",
"6. c #DD452E",
"7. c #C1522E",
"8. c #CF5C2B",
"9. c #CB582D",
"0. c #D45426",
"q. c #D35D27",
"w. c #DF5A29",
"e. c #DF582F",
"r. c #C44734",
"t. c #CA4739",
"y. c #EB472B",
"u. c #E7482D",
"i. c #F14A2D",
"p. c #EF5F25",
"a. c #E0512C",
"s. c #D76021",
"d. c #D56A20",
"f. c #D27528",
"g. c #CB7433",
"h. c #E36D23",
"j. c #E97520",
"k. c #E67E24",
"l. c #E87F29",
"z. c #8A4146",
"x. c #854B4D",
"c. c #9C4749",
"v. c #8D554C",
"b. c #9D5F41",
"n. c #915E4B",
"m. c #964A53",
"M. c #995651",
"N. c #A94748",
"B. c #A44B4B",
"V. c #A54C4B",
"C. c #B34845",
"Z. c #AA5857",
"A. c #85674B",
"S. c #95644E",
"D. c #8F6756",
"F. c #976150",
"G. c #A76946",
"H. c #A76B4F",
"J. c #A06750",
"K. c #855160",
"L. c #955962",
"P. c #995F65",
"I. c #8A666A",
"U. c #8F7569",
"Y. c #A76D61",
"T. c #A87861",
"R. c #A57C6D",
"E. c #F68019",
"W. c #F9821A",
"Q. c #FC8018",
"!. c #FA8521",
"~. c #FA8C2D",
"^. c #E49523",
"/. c #E69924",
"(. c #E5893C",
"). c #F88E34",
"_. c #F7923B",
"`. c #F7923D",
"'. c #E6A721",
"]. c #978B57",
"[. c #918B58",
"{. c #918166",
"}. c #919466",
"|. c #8F8377",
" X c #CF8C54",
".X c #CD8859",
"XX c #D08B5A",
"oX c #D6905D",
"OX c #E5924D",
"+X c #E4995A",
"@X c #C78C65",
"#X c #E89F61",
"$X c #E9AC77",
"%X c #F4B77F",
"&X c #FFBD7B",
"*X c #304780",
"=X c #365182",
"-X c #355584",
";X c #395181",
":X c #385A8B",
">X c #2C6698",
",X c #346092",
"<X c #386494",
"1X c #36699C",
"2X c #396B99",
"3X c #386FA0",
"4X c #3976A7",
"5X c #3E77A4",
"6X c #397BAC",
"7X c #2F7AB0",
"8X c #4C638A",
"9X c #4D7297",
"0X c #4E7A9B",
"qX c #8D8985",
"wX c #EABC91",
"eX c None",
/* pixels */
"eXeXeXeXeXeXeXeXeXeXeXeXeXeXeXeXeXeXeXeXeXeXeXeXeXeXeXeXeXeXeXeXeXeX",
"eXeXeXeXeXeXeXeXeXeXeXeXeXeXeXeXeXeXeXeXeXeXeXeXeXeXeXeXeXeXeXeXeXeX",
"eXeXeXeXeXeXeXeXeXeXeXeXeX` ` ' ` ` ` ` ' ` ` eXeXeXeXeXeXeXeXeXeXeX",
"eXeXeXeXeXeXeXeXeXeXeXeXeX} #.#.#.7.7.7.7.7.$.eXeXeXeXeXeXeXeXeXeXeX",
"eXeXeXeXeXeXeXeXeXeX' [ { t.6.6.a.h.j.j.j.j.8.{ eXeXeXeXeXeXeXeXeXeX",
"eXeXeXeXeXeXeXeXeX&.7.7.9.w.p.p.p.<.E.E.W.E.h.9.$.eXeXeXeXeXeXeXeXeX",
"eXeXeXeX` ] [ [ [ 8.j.>.>.1.1.1.<.<.2.2.2.2.<.>.8.{ eXeXeXeXeXeXeXeX",
"eXeXeXeX] #.9.9.9.h.E.W.E.E.E.E.E.E.2.2.2.<.E.E.h.9.%.eXeXeXeXeXeXeX",
"eXeXeXeX' 7.-.>.1.<.2.2.2.2.2.2.<.<.<.2.2.2.2.2.2.j.9.{ eXeXeXeXeXeX",
"eXeXeXeXeX~ | ..,.Q.Q.Q.W.~.).!.3.;.;.3.!.).`._.~.W.h.8.&.eXeXeXeXeX",
"eXeXeXeXeXeX# e :.2.>.>.l.OX+X(.h.e.e.j.(.+X#X+X(.k.,.j.7.( eXeXeXeX",
"eXeXeXeXeXeX# e :.g.n.n.D.|.qX|.U.I.I.U.|.qXqXU.I.S.g.:. .7 eXeXeXeX",
"eXeXeXeXeXeX# e f.S.E Z J :X2X2X2X5X5X5X5X5X<XJ Z E G.-.w X eXeXeXeX",
"eXeXeXeXA k h c U ! Z *XZ d 2 2 V >X7X7X7X7X>X*XC G H.-.w # eXeXeXeX",
"eXeXeXeX;XH H H H H G Z l , + + , -X5X9X9X9X8XR T R b.=.q O eXeXeXeX",
"eXeXA ;X<X2X2X1X1X1X,Xd , 2 g g l G W L.Z.Z.Z.N.N.N.i 9 = eXeXeXeXeX",
"eXeXD :X3X6X4X4X3X4X<Xf ; j G H H G Q t.y.u.u.u.i.6.r # eXeXeXeXeXeX",
"eXeXD :X4X6X6X2X:X:XJ N ^ B H <X<X=XQ t.i.y.y.y.i.u.r o eXeXeXeXeXeX",
"eXeXD -X2X3X2X=Xl Y Q B.C.! :X3X3X-XQ t.y.u.u.u.5._ 5 O eXeXeXeXeXeX",
"eXeXD G =X-X=Xd > u C.m.! 8X3X4X3X-XQ t.y.u.i.u.^ - % eXeXeXeXeXeXeX",
"eXeXF S S S S 1 O 8 ) I H ,X3X3X<X=XQ t.i.u.5._ 8 . eXeXeXeXeXeXeXeX",
"eXeXeXeXeXeXeXeXeX% ; j G =X=X=X=XG Q t.i.u.^ - % eXeXeXeXeXeXeXeXeX",
"eXeXeXeXeXeXeXeXeX% & f Y T T Y Y Y B +.r.r.i ; % eXeXeXeXeXeXeXeXeX",
"eXeXeXeXeXeXeXeXx y t c v I I v v v v M N z.M t y x eXeXeXeXeXeXeXeX",
"eXeXeXeXeXeXeXP v.L b b m L x.L K K K K K x.L m L v.P eXeXeXeXeXeXeX",
"eXeXeXeXeXeXn J.XXS.b b L v.M.M.M.M.M.M.M.M.x.L H.XXJ.n eXeXeXeXeXeX",
"eXeXeXeXeXP F.@X$XT.b M z.c.B.B.B.B.B.B.V.B.z.K T.$X@XF.P eXeXeXeXeX",
"eXeXeXeXz n.oX%XwXR.m / +.@.@.@.@.@.@.@.@.@./ m R.wX%XoXn.z eXeXeXeX",
"eXeXeXeX< o.#X&X%X.XO.7.q.d.f.f.f.f.f.f.f.f.=.O..X%X&X#Xo.< eXeXeXeX",
"eXeXeXeX$ p  X#X+X(.:.:.k./.'.'.'.'.'.'.'.'.^.k.(.+X#X Xp $ eXeXeXeX",
"eXeXeXeXeX: a s s o.S.U.{.}.}.].*.X.X.*.[.}.}.{.A.s s a : eXeXeXeXeX",
"eXeXeXeXeXeX@ + + 3 R 8X0X0X9XJ j & & Y W 9X0X9Xl + + @ eXeXeXeXeXeX",
"eXeXeXeXeXeXeXO + t m.Y.T.Y.K.j > + ; N Z.T.T.P.t + O eXeXeXeXeXeXeX",
"eXeXeXeXeXeXeXeX@ r 4.s.d.0._ -     - _ 0.d.s.4.r @ eXeXeXeXeXeXeXeX",
"eXeXeXeXeXeXeXeXeX4 6 0 0 6 5 * eXeX* 5 6 0 0 6 4 eXeXeXeXeXeXeXeXeX",
"eXeXeXeXeXeXeXeXeXeX@   X   . eXeXeXeX.   X   @ eXeXeXeXeXeXeXeXeXeX",
"eXeXeXeXeXeXeXeXeXeXeXeXeXeXeXeXeXeXeXeXeXeXeXeXeXeXeXeXeXeXeXeXeXeX",
"eXeXeXeXeXeXeXeXeXeXeXeXeXeXeXeXeXeXeXeXeXeXeXeXeXeXeXeXeXeXeXeXeXeX",
"eXeXeXeXeXeXeXeXeXeXeXeXeXeXeXeXeXeXeXeXeXeXeXeXeXeXeXeXeXeXeXeXeXeX",
"eXeXeXeXeXeXeXeXeXeXeXeXeXeXeXeXeXeXeXeXeXeXeXeXeXeXeXeXeXeXeXeXeXeX"
};
