/* XPM */
static char *result[] = {
/* columns rows colors chars-per-pixel */
"40 40 179 2 ",
"   c #A60012",
".  c #BC0018",
"X  c #B13300",
"o  c #8D002A",
"O  c #9E0025",
"+  c #91002D",
"@  c #9A032A",
"#  c #9E142D",
"$  c #9C0032",
"%  c #9D1430",
"&  c #A30026",
"*  c #A80529",
"=  c #B50222",
"-  c #A81929",
";  c #A72B2E",
":  c #A9292B",
">  c #CF0000",
",  c #C3000E",
"<  c #D40000",
"1  c #D90000",
"2  c #D7000A",
"3  c #D91B00",
"4  c #E30000",
"5  c #F51D00",
"6  c #C53B02",
"7  c #D73900",
"8  c #DE3508",
"9  c #EF2100",
"0  c #F12700",
"q  c #F62F00",
"w  c #FF3E02",
"e  c #E4331D",
"r  c #D70530",
"t  c #B04926",
"y  c #B45727",
"u  c #BE6B38",
"i  c #DE4800",
"p  c #D85908",
"a  c #E74700",
"s  c #E74A00",
"d  c #E7480B",
"f  c #F74000",
"g  c #F54B00",
"h  c #FF4E00",
"j  c #E05D00",
"k  c #F75000",
"l  c #FE5400",
"z  c #F55E01",
"x  c #FF5D00",
"c  c #FF5B0B",
"v  c #E25718",
"b  c #C86E09",
"n  c #D76216",
"m  c #CF711D",
"M  c #EF6107",
"N  c #EF630D",
"B  c #FE6400",
"V  c #FE6B01",
"C  c #F46E00",
"Z  c #F77300",
"A  c #FD7401",
"S  c #FE7D02",
"D  c #F67909",
"F  c #F4710B",
"G  c #FD6515",
"H  c #FE6E19",
"J  c #E97117",
"K  c #FF761F",
"L  c #D75825",
"P  c #C64A33",
"I  c #D44C3D",
"U  c #CE5F34",
"Y  c #D05134",
"T  c #E35320",
"R  c #C96829",
"E  c #CB642B",
"W  c #D86C2B",
"Q  c #CE772D",
"!  c #DA7724",
"~  c #C27338",
"^  c #DA7A39",
"/  c #FF6A20",
"(  c #F97121",
")  c #BC5151",
"_  c #D7715E",
"`  c #E07C4F",
"'  c #FF7D4B",
"]  c #F78300",
"[  c #FB8300",
"{  c #F58C00",
"}  c #F88D00",
"|  c #FF8E0D",
" . c #F3860B",
".. c #F79301",
"X. c #F99301",
"o. c #FF9B00",
"O. c #F7920F",
"+. c #F9970D",
"@. c #FC8616",
"#. c #FC9B15",
"$. c #F99C1B",
"%. c #FFA300",
"&. c #FEAC1E",
"*. c #D99127",
"=. c #DC833C",
"-. c #FF872A",
";. c #FF8D2B",
":. c #F4882A",
">. c #F5992A",
",. c #ED9534",
"<. c #FD9433",
"1. c #FB9838",
"2. c #FFA621",
"3. c #FFA02D",
"4. c #FFAB2C",
"5. c #FCB220",
"6. c #EFA13A",
"7. c #FFAE3B",
"8. c #FCA536",
"9. c #FDB43D",
"0. c #FEBA3B",
"q. c #F9B935",
"w. c #FFC217",
"e. c #FFC325",
"r. c #FFC73E",
"t. c #FEC431",
"y. c #D6875A",
"u. c #FF985C",
"i. c #EBAB48",
"p. c #FFA645",
"a. c #F9A842",
"s. c #EDB44B",
"d. c #FFB441",
"f. c #FFB84A",
"g. c #F6B648",
"h. c #ECAB50",
"j. c #F6AE56",
"k. c #FCB35A",
"l. c #DF937A",
"z. c #EDA568",
"x. c #FCBA65",
"c. c #FFC646",
"v. c #FFC943",
"b. c #FEC44B",
"n. c #FFCB4B",
"m. c #FFD14B",
"M. c #FFCC52",
"N. c #FECB5F",
"B. c #FFD254",
"V. c #FFDA57",
"C. c #FFD65D",
"Z. c #FFDE5B",
"A. c #FFD46C",
"S. c #FFD362",
"D. c #FFCF77",
"F. c #FFCF78",
"G. c #FFD572",
"H. c #FFD879",
"J. c #FCD87A",
"K. c #FFC58F",
"L. c #FFDD86",
"P. c #F6D088",
"I. c #FFE38B",
"U. c #FFE395",
"Y. c #FFEE93",
"T. c #FFE69B",
"R. c #FFEB9A",
"E. c #FFDCA1",
"W. c #FFEAA3",
"Q. c #FFEFAA",
"!. c #FFF4AC",
"~. c #FFF6A4",
"^. c #F6E8B6",
"/. c #FFF5B5",
"(. c #FFF7BC",
"). c #FFFABD",
"_. c #FFFAB1",
"`. c #FFFCC4",
"'. c None",
/* pixels */
"'.'.'.'.'.'.'.'.'.'.'.'.'.'.'.'.'.'.'.'.'.'.'.'.'.'.'.'.'.'.'.'.'.'.'.'.'.'.'.'.",
"'.'.'.'.'.'.'.'.'.'.'.'.'.'.'.'.'.'.'.'.'.'.'.'.'.'.'.'.'.'.'.'.'.'.'.'.'.'.'.'.",
"'.'.'.'.'.'.'.'.'.'.'.'.'.'.'.'.'.'.'.'.'.'.'.'.'.'.'.'.'.'.'.'.'.'.'.'.'.'.'.'.",
"'.'.'.'.'.'.'.'.'.'.'.'.'.'.'.'.'.'.'.'.'.'.'.'.'.'.'.'.'.'.'.'.'.'.'.'.'.'.'.'.",
"'.'.'.'.'.'.'.'.'.'.'.'.'.'.'.'.'.'.'.'.'.'.'.'.'.'.'.'.'.'.'.'.'.'.'.'.'.'.'.'.",
"'.'.'.'.'.'.'.'.'.'.'.'.'.'.'.'.'.'.M.M.V.M.M.V.M.'.'.'.'.'.'.'.'.'.'.'.'.'.'.'.",
"'.'.'.'.'.'.'.'.'.'.'.'.'.'.'.'.r.n.Z.B.M.M.M.b.B.V.M.'.'.'.'.'.'.'.'.'.'.'.'.'.",
"'.'.'.'.'.'.'.'.'.'.'.'.'.'.I.Y.~.A.v.M.M.n.M.M.M.M.Z.M.'.'.'.'.'.'.'.'.'.'.'.'.",
"'.'.'.'.'.'.'.'.'.'.'.'.5.U._./.`.`.H.c.M.M.M.n.b.b.b.M.M.'.'.'.'.'.'.'.'.'.'.'.",
"'.'.'.'.'.'.'.'.'.'.'.M.~.W.R.G.T.`./.n.M.M.d.$.} X.} } c.'.'.'.'.'.'.'.'.'.'.'.",
"'.'.'.'.'.'.'.'.'.'.M._.`.`.`.`.U.).W.n.g.$.} X.....X...X.#.'.'.'.'.'.'.'.'.'.'.",
"'.'.'.'.'.'.'.'.'.'.`.`./.(.`./.W.x.0.>.] ..+...} X...} X.o.'.'.'.'.'.'.'.'.'.'.",
"'.'.'.'.'.'.'.'.'.!.`.(.(.(.I.c.e.n.b.;.] ..} A S ..} X.X.o.X.'.'.'.'.'.'.'.'.'.",
"'.'.'.'.'.'.'.'.'.).`.(.`.W.M.W.T.N.B.<.x V l A ] @.+...X.X.X.'.'.'.'.'.'.'.'.'.",
"'.'.'.'.'.'.'.'.H.).).(.).`./.W.A.B.B.6.l c A V K 9.$.} X.o.X.'.'.'.'.'.'.'.'.'.",
"'.'.'.'.'.'.'.'.I.`.).`.(.Q.J.X t ~ M.V.,.f V G 9.} } X...%.'.'.'.'.'.'.'.'.'.'.",
"'.'.'.'.'.'.'.'.r.I.(.U.S.q.y @ @ + u m.h.e x H 8.........X.'.'.'.'.'.'.'.'.'.'.",
"'.'.'.'.'.'.'.'.n.m.b.c.n.=.O - * ; o *.Y._ q / c Z S S X.'.'.'.'.'.'.'.'.'.'.'.",
"'.'.'.'.'.'.'.'.s.i.B.M.M.v . # % % O s.).^.I 5 l h 9 -.#.'.'.'.'.'.'.'.'.'.'.'.",
"'.'.'.'.'.'.'.'.; @ i.B.M.( 3 . :   b R.`.R.P.l.u.J i.0.'.'.'.'.'.'.'.'.'.'.'.'.",
"'.'.'.'.'.'.'.'.'.- 1 g.C.>.w f 1 ` n.G.A.t.M.I.H.B.0.'.'.'.'.'.'.'.'.'.'.'.'.'.",
"'.'.'.'.'.'.'.'.'.'.< p./.N.1.u.K.L.n.m.n.M.n.&.5.4.] '.'.'.'.'.'.'.'.'.'.'.'.'.",
"'.'.'.'.'.'.'.'.'.'.) F.`.Q.B.U.A.n.b.p.8.o.&.| Z Z '.'.'.'.'.'.'.'.'.'.'.'.'.'.",
"'.'.'.'.'.'.'.'.'.'.'.I.1.j.n.c.b.B.;.w ] X.j 8 d V '.'.'.'.'.'.'.'.'.'.'.'.'.'.",
"'.'.'.'.'.'.'.'.'.'.'.X.0 s 2.M.M.M.d.A '.'.'.B X.o.V '.'.'.'.'.'.'.'.'.'.'.'.'.",
"'.'.'.'.'.'.'.'.'.'.'.+.M & 6 9.M.9.<.D '.'.'.'.o.X.A '.'.'.'.'.'.'.'.'.'.'.'.'.",
"'.'.'.'.'.'.'.'.'.'.'.'.>.R Q 9.n.{ U d.2.'.'.'.X.o.A x '.'.'.'.'.'.'.'.'.'.'.'.",
"'.'.'.'.'.'.'.'.'.'.'.'.9.v.7.7.:.y.G.^ : '.'.'.'.%.V x '.'.'.'.'.'.'.'.'.'.'.'.",
"'.'.'.'.'.'.'.'.'.'.'.'.'.E L W P x.Q * . '.'.'.] %.V B x '.'.'.'.'.'.'.'.'.'.'.",
"'.'.'.'.'.'.'.'.'.'.'.'.'.>.>.! ,.'.+ w 8 '.'.V.F B x B '.'.'.'.'.'.'.'.'.'.'.'.",
"'.'.'.'.'.'.'.'.'.'.'.'.'.'.'.'.'.'.= c g '.'.f.p g V '.'.'.'.'.'.'.'.'.'.'.'.'.",
"'.'.'.'.'.'.'.'.'.'.'.'.'.'.'.'.'.'.2 1 T z.j.< g B x '.'.'.'.'.'.'.'.'.'.'.'.'.",
"'.'.'.'.'.'.'.'.'.'.'.'.'.'.'.'.'.'.r Y z.E.1 G B x '.'.'.'.'.'.'.'.'.'.'.'.'.'.",
"'.'.'.'.'.'.'.'.'.'.'.'.'.'.'.'.'.n k.x.d 7 N x B '.'.'.'.'.'.'.'.'.'.'.'.'.'.'.",
"'.'.'.'.'.'.'.'.'.'.'.'.'.'.'.'.'.W 8.s  .X.V B '.'.'.'.'.'.'.'.'.'.'.'.'.'.'.'.",
"'.'.'.'.'.'.'.'.'.'.'.'.'.'.'.'.'.'.z | X.[ x '.'.'.'.'.'.'.'.'.'.'.'.'.'.'.'.'.",
"'.'.'.'.'.'.'.'.'.'.'.'.'.'.'.'.'.'.'.'.'.'.'.'.'.'.'.'.'.'.'.'.'.'.'.'.'.'.'.'.",
"'.'.'.'.'.'.'.'.'.'.'.'.'.'.'.'.'.'.'.'.'.'.'.'.'.'.'.'.'.'.'.'.'.'.'.'.'.'.'.'.",
"'.'.'.'.'.'.'.'.'.'.'.'.'.'.'.'.'.'.'.'.'.'.'.'.'.'.'.'.'.'.'.'.'.'.'.'.'.'.'.'.",
"'.'.'.'.'.'.'.'.'.'.'.'.'.'.'.'.'.'.'.'.'.'.'.'.'.'.'.'.'.'.'.'.'.'.'.'.'.'.'.'."
};
