/* XPM */
static char *result[] = {
/* columns rows colors chars-per-pixel */
"40 40 159 2 ",
"   c #BA0000",
".  c #A8001A",
"X  c #BB0015",
"o  c #950026",
"O  c #9A0027",
"+  c #94002D",
"@  c #9D002A",
"#  c #9D092B",
"$  c #9E1C2A",
"%  c #A20027",
"&  c #A1092B",
"*  c #B30021",
"=  c #A21C2C",
"-  c #A1122C",
";  c #B22627",
":  c #A62231",
">  c #CA0004",
",  c #C7000E",
"<  c #D2000D",
"1  c #C61C07",
"2  c #C70612",
"3  c #C80018",
"4  c #E20000",
"5  c #CF2E00",
"6  c #F73D00",
"7  c #FB3E00",
"8  c #C8002B",
"9  c #B64C28",
"0  c #AE4931",
"q  c #B25433",
"w  c #DA4C00",
"e  c #DC5900",
"r  c #DD5A18",
"t  c #FE4D00",
"y  c #FF4C0D",
"u  c #E75B07",
"i  c #EF5900",
"p  c #FE5301",
"a  c #FE5C00",
"s  c #EC4512",
"d  c #F95C17",
"f  c #D96618",
"g  c #D86F1E",
"h  c #EE6303",
"j  c #FF6301",
"k  c #FB6C00",
"l  c #EE700E",
"z  c #EB7F0B",
"x  c #FC7200",
"c  c #FE7A01",
"v  c #FF6F18",
"b  c #FD6C13",
"n  c #EC7D10",
"m  c #FF7819",
"M  c #CA5E29",
"N  c #D3493A",
"B  c #D95C38",
"V  c #DA692D",
"C  c #C6762B",
"Z  c #DD7420",
"A  c #C5783A",
"S  c #C37539",
"D  c #FE7B26",
"F  c #E78300",
"G  c #FE8500",
"H  c #F78B00",
"J  c #FB8D00",
"K  c #F79701",
"L  c #F99201",
"P  c #FD9D00",
"I  c #F9970E",
"U  c #F79A0C",
"Y  c #FE801C",
"T  c #FF8B1A",
"R  c #FA9314",
"E  c #F99E1D",
"W  c #FFAE18",
"Q  c #DE8037",
"!  c #F18F25",
"~  c #FF8E2D",
"^  c #FF922F",
"/  c #FF992B",
"(  c #F09525",
")  c #FE8F30",
"_  c #F88E3D",
"`  c #FF9F3C",
"'  c #FAA329",
"]  c #FFAD2B",
"[  c #FFB72E",
"{  c #FCA932",
"}  c #FFA83D",
"|  c #FDB335",
" . c #FFBB33",
".. c #F6B03D",
"X. c #FCB43A",
"o. c #FCB93B",
"O. c #FFC42F",
"+. c #FFC334",
"@. c #FFCC34",
"#. c #FFC63D",
"$. c #FFC83C",
"%. c #D69441",
"&. c #DB9B44",
"*. c #E1A445",
"=. c #FFB445",
"-. c #FDBB43",
";. c #F4BC4D",
":. c #FFB94A",
">. c #FBB24A",
",. c #FFC345",
"<. c #FFCB42",
"1. c #FEC34C",
"2. c #FFCA4C",
"3. c #FFD042",
"4. c #FFD34D",
"5. c #F7C357",
"6. c #FDC551",
"7. c #FFCC52",
"8. c #FFCE5B",
"9. c #FFD354",
"0. c #FFD955",
"q. c #FFD35A",
"w. c #FFD958",
"e. c #FFE25A",
"r. c #FFCC64",
"t. c #FFD262",
"y. c #FED36C",
"u. c #FBC871",
"i. c #FED677",
"p. c #FFD779",
"a. c #FFDA7C",
"s. c #FFE666",
"d. c #FFE46E",
"f. c #FFE86E",
"g. c #E8B78D",
"h. c #EFB888",
"j. c #F1BA84",
"k. c #EFD18B",
"l. c #FDD586",
"z. c #FFDD83",
"x. c #FFDF8A",
"c. c #FFE884",
"v. c #FFE18C",
"b. c #FFE394",
"n. c #FFEA94",
"m. c #FFE59B",
"M. c #FFEA9E",
"N. c #FFF091",
"B. c #F2DCAA",
"V. c #FFEAA3",
"C. c #FFEDAA",
"Z. c #FFF4A4",
"A. c #FFF2AF",
"S. c #FFF4B5",
"D. c #FFF7BB",
"F. c #FFF8BE",
"G. c #FFFAC2",
"H. c #FFFDC8",
"J. c None",
/* pixels */
"J.J.J.J.J.J.J.J.J.J.J.J.J.J.J.J.J.J.J.J.J.J.J.J.J.J.J.J.J.J.J.J.J.J.J.J.J.J.J.J.",
"J.J.J.J.J.J.J.J.J.J.J.J.J.J.J.J.J.J.J.J.J.J.J.J.J.J.J.J.J.J.J.J.J.J.J.J.J.J.J.J.",
"J.J.J.J.J.J.J.J.J.J.J.J.J.J.J.J.J.J.J.J.J.J.J.J.J.J.J.J.J.J.J.J.J.J.J.J.J.J.J.J.",
"J.J.J.J.J.J.J.J.J.J.J.J.J.J.J.J.J.J.J.J.J.J.J.J.J.J.J.J.J.J.J.J.J.J.J.J.J.J.J.J.",
"J.J.J.J.J.J.J.J.J.J.J.J.J.J.J.J.J.J.J.J.J.J.J.J.J.J.J.J.J.J.J.J.J.J.J.J.J.J.J.J.",
"J.J.J.J.J.J.J.J.J.J.J.J.J.J.J.J.J.2.$.$.<.q.q.2.9.7.J.J.J.J.J.J.J.J.J.J.J.J.J.J.",
"J.J.J.J.J.J.J.J.J.J.J.J.J.J.t.m.y.f.b.v.v.S.F.V.2.9.0.7.J.J.J.J.J.J.J.J.J.J.J.J.",
"J.J.J.J.J.J.J.J.J.J.J.J.$.s.S.H.S.D.H.G.H.F.G.v.2.7.7.9.9.J.J.J.J.J.J.J.J.J.J.J.",
"J.J.J.J.J.J.J.J.J.J.J.O.n.D.F.D.F.F.D.F.D.G.C.+.7.7.7.7.9.7.J.J.J.J.J.J.J.J.J.J.",
"J.J.J.J.J.J.J.J.J.J.J.f.D.G.F.F.F.F.F.F.D.G.a.,.7.7.7.7.7.e.J.J.J.J.J.J.J.J.J.J.",
"J.J.J.J.J.J.J.J.J.J.#.A.H.D.F.F.F.F.F.D.F.D.t.2.7.7.7.7.9.7.7.J.J.J.J.J.J.J.J.J.",
"J.J.J.J.J.J.J.J.J.J.c.G.D.F.F.F.F.F.F.F.G.b.$.8.7.7.2.7.-.7.7.J.J.J.J.J.J.J.J.J.",
"J.J.J.J.J.J.J.J.J.#.v.G.D.D.F.F.F.F.D.G.V.<.1.' 1.7.2.' H { 9.H J.J.J.J.J.J.J.J.",
"J.J.J.J.J.J.J.J.J.<.v.H.F.F.F.F.F.F.F.G.b.<.~ k | q.X.H K J P J.J.J.J.J.J.J.J.J.",
"J.J.J.J.J.J.J.J.7.4.y.C.A.D.F.D.G.G.F.H.n. .D H X...H H L L P G J.J.J.J.J.J.J.J.",
"J.J.J.J.J.J.J.J.7.w.2.<.i.D.F.G.S.v.p.C.t.} p K R L H E I L K G J.J.J.J.J.J.J.J.",
"J.J.J.J.J.J.J.J.7.w.7.#.V.H.F.b.8.#.2.<.2.6.Y L L L ' -.R H K c J.J.J.J.J.J.J.J.",
"J.J.J.J.J.J.J.J.7.w.7.#.V.A.i.#.2.q.1.5.7.9.^ J H -.} p a j G a J.J.J.J.J.J.J.J.",
"J.J.J.J.J.J.J.J.7.9.7.7.5.2.3.q.7.*.q @ A 7.:.k U =.t j j a j J.J.J.J.J.J.J.J.J.",
"J.J.J.J.J.J.J.J.7.e.9.7.2.7.;.A 0 O @ @ O ;.4.~ H R t p a j J.J.J.J.J.J.J.J.J.J.",
"J.J.J.J.J.J.J.J.J.7.6.6.7.7.= o @ = - @ $ 5.n.) p x v } m a J.J.J.J.J.J.J.J.J.J.",
"J.J.J.J.J.J.J.J.J.J.O ;.9.7.Q # = @ # :   l.D./ ` =.q.,.j J.J.J.J.J.J.J.J.J.J.J.",
"J.J.J.J.J.J.J.J.J.J.O &.9.1.9.V X ; 2 > e z.D.v.q.,.o.J J.J.J.J.J.J.J.J.J.J.J.J.",
"J.J.J.J.J.J.J.J.J.J.# 3 ! 9.7.X.j 6 d _ +.z.H.u.P g 1 J.J.J.J.J.J.J.J.J.J.J.J.J.",
"J.J.J.J.J.J.J.J.J.J.J., l C i.Z.r.] [ @.q.S.l.J Z % y J.J.J.J.J.J.J.J.J.J.J.J.J.",
"J.J.J.J.J.J.J.J.J.J.J.J.F O C k.H.M.M.V.m.a.W M * i c J.J.J.J.J.J.J.J.J.J.J.J.J.",
"J.J.J.J.J.J.J.J.J.J.J.J.J.9 . w z.G.G.m.8.+.n + < x L a J.J.J.J.J.J.J.J.J.J.J.J.",
"J.J.J.J.J.J.J.J.J.J.J.J.J.I s G v.p.z.+.7.[ J.J.< h L a J.J.J.J.J.J.J.J.J.J.J.J.",
"J.J.J.J.J.J.J.J.J.J.J.J.J.U G o.V.r.$.2.8.l.J.J., u L a J.J.J.J.J.J.J.J.J.J.J.J.",
"J.J.J.J.J.J.J.J.J.J.J.J.J.J.P y.S.7.8.6.A.Z.J.J.r K J a J.J.J.J.J.J.J.J.J.J.J.J.",
"J.J.J.J.J.J.J.J.J.J.J.J.J.J.{ 0.v.i.S.j.g.N Q ( J c a J.J.J.J.J.J.J.J.J.J.J.J.J.",
"J.J.J.J.J.J.J.J.J.J.J.J.J.J.J.>.B.h.B 8 F ..-.{ a p J.J.J.J.J.J.J.J.J.J.J.J.J.J.",
"J.J.J.J.J.J.J.J.J.J.J.J.J.J.J.6 4 5 f ..-.,.j t J.J.J.J.J.J.J.J.J.J.J.J.J.J.J.J.",
"J.J.J.J.J.J.J.J.J.J.J.J.J.J.J.J.T 0.| | c a J.J.J.J.J.J.J.J.J.J.J.J.J.J.J.J.J.J.",
"J.J.J.J.J.J.J.J.J.J.J.J.J.J.J.J.J.b a t J.J.J.J.J.J.J.J.J.J.J.J.J.J.J.J.J.J.J.J.",
"J.J.J.J.J.J.J.J.J.J.J.J.J.J.J.J.J.J.J.J.J.J.J.J.J.J.J.J.J.J.J.J.J.J.J.J.J.J.J.J.",
"J.J.J.J.J.J.J.J.J.J.J.J.J.J.J.J.J.J.J.J.J.J.J.J.J.J.J.J.J.J.J.J.J.J.J.J.J.J.J.J.",
"J.J.J.J.J.J.J.J.J.J.J.J.J.J.J.J.J.J.J.J.J.J.J.J.J.J.J.J.J.J.J.J.J.J.J.J.J.J.J.J.",
"J.J.J.J.J.J.J.J.J.J.J.J.J.J.J.J.J.J.J.J.J.J.J.J.J.J.J.J.J.J.J.J.J.J.J.J.J.J.J.J.",
"J.J.J.J.J.J.J.J.J.J.J.J.J.J.J.J.J.J.J.J.J.J.J.J.J.J.J.J.J.J.J.J.J.J.J.J.J.J.J.J."
};
