/* XPM */
static char *result[] = {
/* columns rows colors chars-per-pixel */
"40 40 150 2 ",
"   c #750027",
".  c #B00000",
"X  c #B70018",
"o  c #BC2D15",
"O  c #940024",
"+  c #9C0026",
"@  c #9A002D",
"#  c #8A0034",
"$  c #920030",
"%  c #A80023",
"&  c #9D202F",
"*  c #AE2328",
"=  c #A52A2C",
"-  c #C70000",
";  c #CD0000",
":  c #C0000E",
">  c #C7001F",
",  c #E70000",
"<  c #ED0400",
"1  c #EC2B00",
"2  c #F73300",
"3  c #FB3900",
"4  c #C00F22",
"5  c #B24F2B",
"6  c #B6552D",
"7  c #AD4A30",
"8  c #AF4E38",
"9  c #BB5A34",
"0  c #D0591A",
"q  c #ED5000",
"w  c #FD5107",
"e  c #F15E00",
"r  c #E15216",
"t  c #DF7D08",
"y  c #D3691A",
"u  c #DB6A19",
"i  c #DB721D",
"p  c #E26300",
"a  c #FE6500",
"s  c #FD6C00",
"d  c #FE7500",
"f  c #FF7900",
"g  c #EF6D19",
"h  c #FF6715",
"j  c #FF6E15",
"k  c #FF6219",
"l  c #FF7816",
"z  c #CA4323",
"x  c #C75125",
"c  c #CD5628",
"v  c #CE6D2B",
"b  c #DF682A",
"n  c #C36F31",
"m  c #FF7C25",
"M  c #DE971F",
"N  c #F78207",
"B  c #FC8502",
"V  c #F78C00",
"C  c #FA8D00",
"Z  c #FF850C",
"A  c #FC8908",
"S  c #F79501",
"D  c #F99301",
"F  c #FE9C00",
"G  c #FF940C",
"H  c #FF8C19",
"J  c #F48414",
"K  c #F99611",
"L  c #F99A10",
"P  c #F89E1E",
"I  c #FEA400",
"U  c #D2872A",
"Y  c #DB9527",
"T  c #DC9B3D",
"R  c #FF8027",
"E  c #FE962F",
"W  c #FF9B2C",
"Q  c #F29624",
"!  c #E78F3A",
"~  c #FF8134",
"^  c #E79530",
"/  c #FD9A3C",
"(  c #FCA523",
")  c #FFAF26",
"_  c #FDA32A",
"`  c #FFAF29",
"'  c #EEA73E",
"]  c #FFA137",
"[  c #FAAE35",
"{  c #FFA13D",
"}  c #FAAD3C",
"|  c #FEB233",
" . c #FDB53B",
".. c #FFB83B",
"X. c #FFC533",
"o. c #FFC53C",
"O. c #FFCC3D",
"+. c #FFD03D",
"@. c #D99140",
"#. c #DC9B42",
"$. c #DFA547",
"%. c #E7A34E",
"&. c #F8A941",
"*. c #F1A442",
"=. c #ECB245",
"-. c #FEBD44",
";. c #FEBD49",
":. c #FCB553",
">. c #FFB978",
",. c #FFC643",
"<. c #FFC943",
"1. c #FDC34B",
"2. c #FFC94D",
"3. c #FFD344",
"4. c #FFD34C",
"5. c #FFCC53",
"6. c #FFCD5D",
"7. c #FFD355",
"8. c #FFD955",
"9. c #FFD459",
"0. c #FFDB59",
"q. c #FFE15C",
"w. c #FFCF62",
"e. c #FFD167",
"r. c #FFDA60",
"t. c #FED46B",
"y. c #FFD574",
"u. c #FFD779",
"i. c #FFD97B",
"p. c #FFE07C",
"a. c #FCD581",
"s. c #FFDE84",
"d. c #FFDF8B",
"f. c #FFE087",
"g. c #FFEC80",
"h. c #FFE28E",
"j. c #FFE293",
"k. c #FFE996",
"l. c #FFE69B",
"z. c #FFEA9F",
"x. c #FFEBA4",
"c. c #FFEEAA",
"v. c #FFF0A5",
"b. c #FFF5AF",
"n. c #FFF2B3",
"m. c #FFF6BC",
"M. c #FFF8BE",
"N. c #FFFBC3",
"B. c #FFFFCC",
"V. c None",
/* pixels */
"V.V.V.V.V.V.V.V.V.V.V.V.V.V.V.V.V.V.V.V.V.V.V.V.V.V.V.V.V.V.V.V.V.V.V.V.V.V.V.V.",
"V.V.V.V.V.V.V.V.V.V.V.V.V.V.V.V.V.V.V.V.V.V.V.V.V.V.V.V.V.V.V.V.V.V.V.V.V.V.V.V.",
"V.V.V.V.V.V.V.V.V.V.V.V.V.V.V.V.V.V.V.V.V.V.V.V.V.V.V.V.V.V.V.V.V.V.V.V.V.V.V.V.",
"V.V.V.V.V.V.V.V.V.V.V.V.V.V.V.V.V.V.V.V.V.V.V.V.V.V.V.V.V.V.V.V.V.V.V.V.V.V.V.V.",
"V.V.V.V.V.V.V.V.V.V.V.V.V.V.V.V.V.V.V.2.5.5.V.V.V.V.V.V.V.V.V.V.V.V.V.V.V.V.V.V.",
"V.V.V.V.V.V.V.V.V.V.V.V.V.V.V.V.<.O.7.0.3.0.7.5.7.5.V.V.V.V.V.V.V.V.V.V.V.V.V.V.",
"V.V.V.V.V.V.V.V.V.V.V.V.V.5.5.4.f.f.c.n.i.,.,.5.5.8.7.V.V.V.V.V.V.V.V.V.V.V.V.V.",
"V.V.V.V.V.V.V.V.V.V.V.V.5.0.1.c.N.N.M.N.l.u.i.2.5.5.5.7.V.V.V.V.V.V.V.V.V.V.V.V.",
"V.V.V.V.V.V.V.V.V.V.V.V.q.<.t.m.M.m.M.m.M.N.N.j.o.5.5.7.5.V.V.V.V.V.V.V.V.V.V.V.",
"V.V.V.V.V.V.V.V.V.V.V.5.O.d.N.M.M.M.M.M.M.m.N.x.,.5.2.5.7.2.V.V.V.V.V.V.V.V.V.V.",
"V.V.V.V.V.V.V.V.V.V.5.4.f.N.M.M.M.M.m.M.M.M.N.x.O.5.5.5.5.5.V.V.V.V.V.V.V.V.V.V.",
"V.V.V.V.V.V.V.V.V.V.4.y.N.M.m.M.M.M.N.M.M.m.N.j.,.5.5.5.2.0.V.V.V.V.V.V.V.V.V.V.",
"V.V.V.V.V.V.V.V.V.5.<.c.M.M.M.M.N.z.l.N.M.M.M.6.<.5.5.5.5.0.V.V.V.V.V.V.V.V.V.V.",
"V.V.V.V.V.V.V.V.V.4.i.M.M.M.M.M.M.M.c.l.N.N.x.5.5.5.5.5.2.0.V.V.V.V.V.V.V.V.V.V.",
"V.V.V.V.V.V.V.V.5.+.h.N.m.M.M.M.M.M.N.c.h.m.j.X.5.5._ S S ` V.V.V.V.V.V.V.V.V.V.",
"V.V.V.V.V.V.V.V.5.7.x.N.M.M.M.M.M.M.M.N.c.i.s.,.6.;.V S C ) V.V.V.V.V.V.V.V.V.V.",
"V.V.V.V.V.V.V.V.2.9.m.N.N.m.m.m.M.M.M.M.n.6.<.5.1.S S D D K V.V.V.V.V.V.V.V.V.V.",
"V.V.V.V.V.V.V.V.6.3.d.N.m.m.N.m.M.m.M.N.t.o.6.1.D D D V F C V.V.V.V.V.V.V.V.V.V.",
"V.V.V.V.V.V.V.V.5.3.j.N.m.m.m.N.N.n.s.d.<.6.1.S C D S D F D V.V.V.V.V.V.V.V.V.V.",
"V.V.V.V.V.V.V.V.5.3.u.N.N.N.m.N.M.M.n.w.<.;.V S D S C S F V.V.V.V.V.V.V.V.V.V.V.",
"V.V.V.V.V.V.V.V.V.0.w.j.c.m.m.m.M.M.N.N.j...j V S D C F } V.V.V.V.V.V.V.V.V.V.V.",
"V.V.V.V.V.V.V.V.V.6.N.M.j.n.N.N.m.M.v.h.t.8./ a A D V _ 5.V.V.V.V.V.V.V.V.V.V.V.",
"V.V.V.V.V.V.V.V.V.<.g.n.N.N.n.s.5.6.#.M T $.5.j d V s 7.5.V.V.V.V.V.V.V.V.V.V.V.",
"V.V.V.V.V.V.V.V.V.V.U =.t.t.9.Y 7 5 O $ O * 5.h a E 2. .V.V.V.V.V.V.V.V.V.V.V.V.",
"V.V.V.V.V.V.V.V.V.V.# + i 2.5.8 O @ & = 4 0 5.f :.9.2.V.V.V.V.V.V.V.V.V.V.V.V.V.",
"V.V.V.V.V.V.V.V.V.V.t 1 g 7.7.1.c X : ; < l X.u.c.,.m V.V.V.V.V.V.V.V.V.V.V.V.V.",
"V.V.V.V.V.V.V.V.V.V.h.k.t.=.#.7.&., m / >.c.h.m.i.J 3 V.V.V.V.V.V.V.V.V.V.V.V.V.",
"V.V.V.V.V.V.V.V.V.V.V.a.8.n   v F s.x.z.s.6.c.B.y.p w V.V.V.V.V.V.V.V.V.V.V.V.V.",
"V.V.V.V.V.V.V.V.V.V.V.V.C u > e L ( S | 7.I :.a.%.2 Z V.V.V.V.V.V.V.V.V.V.V.V.V.",
"V.V.V.V.V.V.V.V.V.V.V.V.V.( d A S K  .5.-.Q . - q N V.V.V.V.V.V.V.V.V.V.V.V.V.V.",
"V.V.V.V.V.V.V.V.V.V.V.V.V.<.P [ [ 1.6.` y % @.k C V.V.V.V.V.V.V.V.V.V.V.V.V.V.V.",
"V.V.V.V.V.V.V.V.V.V.V.V.V.5.-. ... .,.y 9 ^ ] d V.V.V.V.V.V.V.V.V.V.V.V.V.V.V.V.",
"V.V.V.V.V.V.V.V.V.V.V.V.V.V.R 6 x o 0 z &.H a C V.V.V.V.V.V.V.V.V.V.V.V.V.V.V.V.",
"V.V.V.V.V.V.V.V.V.V.V.V.V.V.V.b *.^ *.-.B B V.V.V.V.V.V.V.V.V.V.V.V.V.V.V.V.V.V.",
"V.V.V.V.V.V.V.V.V.V.V.V.V.V.V.W o.W F G S V.V.V.V.V.V.V.V.V.V.V.V.V.V.V.V.V.V.V.",
"V.V.V.V.V.V.V.V.V.V.V.V.V.V.V.V.V.V.V.V.V.V.V.V.V.V.V.V.V.V.V.V.V.V.V.V.V.V.V.V.",
"V.V.V.V.V.V.V.V.V.V.V.V.V.V.V.V.V.V.V.V.V.V.V.V.V.V.V.V.V.V.V.V.V.V.V.V.V.V.V.V.",
"V.V.V.V.V.V.V.V.V.V.V.V.V.V.V.V.V.V.V.V.V.V.V.V.V.V.V.V.V.V.V.V.V.V.V.V.V.V.V.V.",
"V.V.V.V.V.V.V.V.V.V.V.V.V.V.V.V.V.V.V.V.V.V.V.V.V.V.V.V.V.V.V.V.V.V.V.V.V.V.V.V.",
"V.V.V.V.V.V.V.V.V.V.V.V.V.V.V.V.V.V.V.V.V.V.V.V.V.V.V.V.V.V.V.V.V.V.V.V.V.V.V.V."
};
