/* XPM */
static char *result[] = {
/* columns rows colors chars-per-pixel */
"40 40 166 2 ",
"   c #85001F",
".  c #BB0000",
"X  c #AA001F",
"o  c #BB1A1F",
"O  c #930025",
"+  c #92002C",
"@  c #9E002A",
"#  c #9D1A2D",
"$  c #AF0022",
"%  c #A1002A",
"&  c #AE0028",
"*  c #A91926",
"=  c #A31C2C",
"-  c #B41D2A",
";  c #A62E2E",
":  c #A3252D",
">  c #A6312E",
",  c #AF352A",
"<  c #B23A27",
"1  c #CC0000",
"2  c #C60008",
"3  c #CC000A",
"4  c #D10000",
"5  c #D2170F",
"6  c #CD051E",
"7  c #CA200F",
"8  c #D92E00",
"9  c #D03100",
"0  c #D53A04",
"q  c #D02C16",
"w  c #C83414",
"e  c #EB2307",
"r  c #FB2100",
"t  c #EA3E00",
"y  c #FB3D00",
"u  c #BA4834",
"i  c #B35432",
"p  c #D35C1D",
"a  c #E34600",
"s  c #F64100",
"d  c #FF4B00",
"f  c #FA4A0A",
"g  c #FF5301",
"h  c #FE5D00",
"j  c #FE6101",
"k  c #FF6D02",
"l  c #FD670A",
"z  c #FF6A0B",
"x  c #FC7102",
"c  c #FD7C00",
"v  c #FF6C13",
"b  c #FF6819",
"n  c #FF741C",
"m  c #CF6C21",
"M  c #DB7B23",
"N  c #CA6E3A",
"B  c #F97226",
"V  c #CD4348",
"C  c #EF8003",
"Z  c #ED840E",
"A  c #F68600",
"S  c #FB8200",
"D  c #F58A00",
"F  c #FA8D00",
"G  c #FF870A",
"H  c #F79300",
"J  c #FA9301",
"K  c #FD9A00",
"L  c #F8960B",
"P  c #F79E12",
"I  c #F89A13",
"U  c #F99418",
"Y  c #FB9B1C",
"T  c #F49114",
"R  c #FDA100",
"E  c #FDA907",
"W  c #FFB905",
"Q  c #CE872F",
"!  c #CB823D",
"~  c #D89735",
"^  c #FF8B21",
"/  c #FF872C",
"(  c #FF8A2C",
")  c #FF9226",
"_  c #FF9F28",
"`  c #E9983C",
"'  c #EA9B35",
"]  c #FF9533",
"[  c #FF9C34",
"{  c #FBA324",
"}  c #FFAC24",
"|  c #F7AA33",
" . c #FBAA33",
".. c #F1A63C",
"X. c #FFA63E",
"o. c #FCAB38",
"O. c #F6B237",
"+. c #FFB431",
"@. c #FCB43C",
"#. c #FFBC3F",
"$. c #FFC324",
"%. c #FFC636",
"&. c #FFCA34",
"*. c #FFC63B",
"=. c #FFCB3A",
"-. c #E6834D",
";. c #DFA246",
":. c #DCA252",
">. c #EAAF48",
",. c #FCAC45",
"<. c #FFB541",
"1. c #FEBC44",
"2. c #F5BB4C",
"3. c #FFB848",
"4. c #FFBD59",
"5. c #E09B7C",
"6. c #FAB66D",
"7. c #EAA979",
"8. c #FFC444",
"9. c #FFC944",
"0. c #F7C14E",
"q. c #FDC44C",
"w. c #FFCB4C",
"e. c #FFD242",
"r. c #FFD54B",
"t. c #FFD94D",
"y. c #FBC652",
"u. c #FFCB52",
"i. c #FFCD5A",
"p. c #FFD355",
"a. c #FFDA52",
"s. c #FFD15B",
"d. c #FFDB59",
"f. c #FFE35A",
"g. c #FFCF60",
"h. c #FFD162",
"j. c #FFD36D",
"k. c #FFD968",
"l. c #FECE7C",
"z. c #FFD572",
"x. c #FFD975",
"c. c #FFDD7D",
"v. c #FFE177",
"b. c #FECC83",
"n. c #FFDC82",
"m. c #FFDD8B",
"M. c #FFE484",
"N. c #FFE28D",
"B. c #FFE88B",
"V. c #FFE293",
"C. c #FFEE95",
"Z. c #FFE69C",
"A. c #FFE89F",
"S. c #FFF09A",
"D. c #F1DAAD",
"F. c #FFEBA4",
"G. c #FEEDAC",
"H. c #FBE3A0",
"J. c #FFF2AE",
"K. c #FFF3B4",
"L. c #FFFFB1",
"P. c #FFF7BC",
"I. c #FFF8BE",
"U. c #FFFBC2",
"Y. c #FEFDCA",
"T. c None",
/* pixels */
"T.T.T.T.T.T.T.T.T.T.T.T.T.T.T.T.T.T.T.T.T.T.T.T.T.T.T.T.T.T.T.T.T.T.T.T.T.T.T.T.",
"T.T.T.T.T.T.T.T.T.T.T.T.T.T.T.T.T.T.T.T.T.T.T.T.T.T.T.T.T.T.T.T.T.T.T.T.T.T.T.T.",
"T.T.T.T.T.T.T.T.T.T.T.T.T.T.T.T.T.T.T.T.T.T.T.T.T.T.T.T.T.T.T.T.T.T.T.T.T.T.T.T.",
"T.T.T.T.T.T.T.T.T.T.T.T.T.T.T.T.T.T.T.T.T.T.T.T.T.T.T.T.T.T.T.T.T.T.T.T.T.T.T.T.",
"T.T.T.T.T.T.T.T.T.T.T.T.T.T.T.T.T.T.T.T.T.T.T.T.T.T.T.T.T.T.T.T.T.T.T.T.T.T.T.T.",
"T.T.T.T.T.T.T.T.T.T.T.T.T.T.T.T.u.*.e.=.r.h.p.w.p.u.T.T.T.T.T.T.T.T.T.T.T.T.T.T.",
"T.T.T.T.T.T.T.T.T.T.T.T.T.%.m.N.a.B.N.m.F.P.P.z.9.d.p.u.T.T.T.T.T.T.T.T.T.T.T.T.",
"T.T.T.T.T.T.T.T.T.T.T.T.%.C.U.U.K.U.U.U.U.U.G.g.u.u.u.f.u.T.T.T.T.T.T.T.T.T.T.T.",
"T.T.T.T.T.T.T.T.T.T.T.u.J.U.P.P.U.P.P.P.P.I.z.9.u.u.u.u.u.T.T.T.T.T.T.T.T.T.T.T.",
"T.T.T.T.T.T.T.T.T.T.9.C.U.P.I.I.P.I.I.I.U.G.9.u.u.u.u.u.p.u.T.T.T.T.T.T.T.T.T.T.",
"T.T.T.T.T.T.T.T.T.T.v.Y.P.U.U.P.I.I.I.P.U.V.9.u.u.u.u.u.u.p.T.T.T.T.T.T.T.T.T.T.",
"T.T.T.T.T.T.T.T.T.9.J.U.P.I.P.I.I.I.I.I.P.i.u.u.u.q.u.q.q.d.8.T.T.T.T.T.T.T.T.T.",
"T.T.T.T.T.T.T.T.T.r.K.U.P.P.I.I.I.I.I.I.z.9.o.@.u.u.@.L H q. .T.T.T.T.T.T.T.T.T.",
"T.T.T.T.T.T.T.T.u.t.K.U.U.P.I.P.P.I.P.P.s.1.h H u.q.I F H J H T.T.T.T.T.T.T.T.T.",
"T.T.T.T.T.T.T.T.u.w.V.J.G.U.P.P.U.U.U.P.s.[ c P q.U H H J J F T.T.T.T.T.T.T.T.T.",
"T.T.T.T.T.T.T.T.u.u.9.u.F.I.I.U.G.j.Z.N.9.b S L L F L Y H J K j T.T.T.T.T.T.T.T.",
"T.T.T.T.T.T.T.T.u.u.u.g.U.Y.G.z.9.9.9.9.p.X.c L D P @.o.A L J j T.T.T.T.T.T.T.T.",
"T.T.T.T.T.T.T.T.u.u.w.g.P.V.i.9.u.p.y.y.p.1.c H { q.n g g S S g T.T.T.T.T.T.T.T.",
"T.T.T.T.T.T.T.T.p.u.u.u.i.=.r.u.2.! = > >.d.( c O./ d l h j h T.T.T.T.T.T.T.T.T.",
"T.T.T.T.T.T.T.T.w.p.u.u.u.y.;.i ; O = O N r.<.x P k d g j h T.T.T.T.T.T.T.T.T.T.",
"T.T.T.T.T.T.T.T.T.y.0.w.p.;.  @ @ = # + Q M.l.d x z ( ] h T.T.T.T.T.T.T.T.T.T.T.",
"T.T.T.T.T.T.T.T.T.T.N p.u.0.i % # @ : $ Q I.b.^ ,.u.p.) T.T.T.T.T.T.T.T.T.T.T.T.",
"T.T.T.T.T.T.T.T.T.T.u y.u.u.2.2 - o 1 1 | K.F.z.9.#.{ T.T.T.T.T.T.T.T.T.T.T.T.T.",
"T.T.T.T.T.T.T.T.T.T.& 0 #.p.q.U y f B ,.&.K.G.E T w a T.T.T.T.T.T.T.T.T.T.T.T.T.",
"T.T.T.T.T.T.T.T.T.T.T.8 M ~ C.V.#.} *.%.V.K.} A < 6 g T.T.T.T.T.T.T.T.T.T.T.T.T.",
"T.T.T.T.T.T.T.T.T.T.T.F p # :.K.K.V.F.Z.V.u.Z , 5 c j T.T.T.T.T.T.T.T.T.T.T.T.T.",
"T.T.T.T.T.T.T.T.T.T.T.T.m - . >.K.Y.K.c.=.{ * $ t J c T.T.T.T.T.T.T.T.T.T.T.T.T.",
"T.T.T.T.T.T.T.T.T.T.T.T.K G s 4.N.c.j.%.w.H T.7 e F c d T.T.T.T.T.T.T.T.T.T.T.T.",
"T.T.T.T.T.T.T.T.T.T.T.T.T.F J c.Z.$.u.9.n.6.T.T.3 D c g T.T.T.T.T.T.T.T.T.T.T.T.",
"T.T.T.T.T.T.T.T.T.T.T.T.T.T.W F.V.9.q.m.L.Z.T.q C K c T.T.T.T.T.T.T.T.T.T.T.T.T.",
"T.T.T.T.T.T.T.T.T.T.T.T.T.T.r.k.N.m.G.7.5.0 ` F F x j T.T.T.T.T.T.T.T.T.T.T.T.T.",
"T.T.T.T.T.T.T.T.T.T.T.T.T.T.R b.D.-.V 4 O. .8.c g T.T.T.T.T.T.T.T.T.T.T.T.T.T.T.",
"T.T.T.T.T.T.T.T.T.T.T.T.T.T.T.r 1 9 ' @.q.Y d g T.T.T.T.T.T.T.T.T.T.T.T.T.T.T.T.",
"T.T.T.T.T.T.T.T.T.T.T.T.T.T.T.g 8.q.+._ j g T.T.T.T.T.T.T.T.T.T.T.T.T.T.T.T.T.T.",
"T.T.T.T.T.T.T.T.T.T.T.T.T.T.T.T.l v g g T.T.T.T.T.T.T.T.T.T.T.T.T.T.T.T.T.T.T.T.",
"T.T.T.T.T.T.T.T.T.T.T.T.T.T.T.T.T.T.T.T.T.T.T.T.T.T.T.T.T.T.T.T.T.T.T.T.T.T.T.T.",
"T.T.T.T.T.T.T.T.T.T.T.T.T.T.T.T.T.T.T.T.T.T.T.T.T.T.T.T.T.T.T.T.T.T.T.T.T.T.T.T.",
"T.T.T.T.T.T.T.T.T.T.T.T.T.T.T.T.T.T.T.T.T.T.T.T.T.T.T.T.T.T.T.T.T.T.T.T.T.T.T.T.",
"T.T.T.T.T.T.T.T.T.T.T.T.T.T.T.T.T.T.T.T.T.T.T.T.T.T.T.T.T.T.T.T.T.T.T.T.T.T.T.T.",
"T.T.T.T.T.T.T.T.T.T.T.T.T.T.T.T.T.T.T.T.T.T.T.T.T.T.T.T.T.T.T.T.T.T.T.T.T.T.T.T."
};
