/* XPM */
static char *result[] = {
/* columns rows colors chars-per-pixel */
"34 40 217 2 ",
"   c black",
".  c #010102",
"X  c #020102",
"o  c #070000",
"O  c #070201",
"+  c #000207",
"@  c #080202",
"#  c #0D0402",
"$  c #0F0808",
"%  c #0D0C08",
"&  c #170C08",
"*  c #1E0D0A",
"=  c #030715",
"-  c #0F0E17",
";  c #030919",
":  c #1B1310",
">  c #1A1611",
",  c #240F05",
"<  c #250F07",
"1  c #2C1503",
"2  c #39120B",
"3  c #3A140C",
"4  c #321610",
"5  c #0A1527",
"6  c #141523",
"7  c #1E2127",
"8  c #2F2920",
"9  c #352B25",
"0  c #392B21",
"q  c #272F34",
"w  c #541A15",
"e  c #402108",
"r  c #572712",
"t  c #5E2618",
"y  c #42321A",
"u  c #5B341D",
"i  c #6D2013",
"p  c #752112",
"a  c #7C3010",
"s  c #502F29",
"d  c #413425",
"f  c #5D2931",
"g  c #52373A",
"h  c #79252A",
"j  c #7E3132",
"k  c #69422A",
"l  c #192344",
"z  c #243253",
"x  c #303A5F",
"c  c #2C3862",
"v  c #303B65",
"b  c #673441",
"n  c #6F3E45",
"m  c #374473",
"M  c #394678",
"N  c #3A477A",
"B  c #384B7D",
"V  c #3A4A7C",
"C  c #5A554B",
"Z  c #42415D",
"A  c #764D4E",
"S  c #715F4B",
"D  c #41456B",
"F  c #55446B",
"G  c #5C596C",
"H  c #645261",
"J  c #696569",
"K  c #7A7A76",
"L  c #953119",
"P  c #88322A",
"I  c #A03323",
"U  c #BC3A26",
"Y  c #A7393B",
"T  c #A6393C",
"R  c #A83B3B",
"E  c #AE3A3A",
"W  c #AB3D3A",
"Q  c #B33E39",
"!  c #B83D38",
"~  c #CB3E28",
"^  c #94490F",
"/  c #964918",
"(  c #A7540E",
")  c #B55A19",
"_  c #975A27",
"`  c #82553A",
"'  c #AA4132",
"]  c #A7403E",
"[  c #B64137",
"{  c #BE4435",
"}  c #BB4A33",
"|  c #B7423A",
" . c #BE5831",
".. c #A96537",
"X. c #CF6B18",
"o. c #D87018",
"O. c #E17216",
"+. c #EE791A",
"@. c #EC7C1D",
"#. c #F57F1A",
"$. c #F57A1C",
"%. c #FB7F18",
"&. c #DC462C",
"*. c #C6552E",
"=. c #CD542F",
"-. c #CF5C2C",
";. c #DD572C",
":. c #CC4433",
">. c #C14F31",
",. c #D74430",
"<. c #E2452C",
"1. c #EC552A",
"2. c #EF5938",
"3. c #CF6E2B",
"4. c #DA6727",
"5. c #DF7E2E",
"6. c #C06D31",
"7. c #C76F33",
"8. c #CF7C37",
"9. c #E26D22",
"0. c #E06925",
"q. c #E47C25",
"w. c #F17020",
"e. c #F77823",
"r. c #F26C3A",
"t. c #893C48",
"y. c #94464C",
"u. c #905F4C",
"i. c #8B5151",
"p. c #815A5A",
"a. c #945451",
"s. c #B34D47",
"d. c #A0504D",
"f. c #BD5B52",
"g. c #806A52",
"h. c #8E6B5A",
"j. c #91785E",
"k. c #AD7044",
"l. c #B0645A",
"z. c #A37456",
"x. c #CD5D49",
"c. c #C17B41",
"v. c #C17E5C",
"b. c #ED6446",
"n. c #F87756",
"m. c #C56F62",
"M. c #BC8E19",
"N. c #F88019",
"B. c #FF851A",
"V. c #FF861B",
"C. c #C8982E",
"Z. c #CC8836",
"A. c #F48629",
"S. c #E99421",
"D. c #E79A21",
"F. c #F79439",
"G. c #97846F",
"H. c #BD8C66",
"J. c #BB8E79",
"K. c #B59777",
"L. c #BE9C7E",
"P. c #E38C41",
"I. c #ED8057",
"U. c #F39D54",
"Y. c #CA8C6D",
"T. c #CD9879",
"R. c #E08E68",
"E. c #F09F63",
"W. c #F19C77",
"Q. c #D5AB7E",
"!. c #E6A16D",
"~. c #F3AB79",
"^. c #F1B378",
"/. c #2C4C86",
"(. c #2F578F",
"). c #395383",
"_. c #385585",
"`. c #395586",
"'. c #32628C",
"]. c #396798",
"[. c #386C9D",
"{. c #396C9D",
"}. c #2A66A1",
"|. c #3975A5",
" X c #397BAB",
".X c #466583",
"XX c #46648F",
"oX c #49789C",
"OX c #617282",
"+X c #6C748B",
"@X c #6084A0",
"#X c #658FAA",
"$X c #7395AC",
"%X c #A68380",
"&X c #A5A094",
"*X c #B4AFA4",
"=X c #BEBBB5",
"-X c #CCA789",
";X c #CFAA8D",
":X c #DCB78F",
">X c #E9AC82",
",X c #E5AF8C",
"<X c #F5BB8A",
"1X c #CBBDA7",
"2X c #E7C39E",
"3X c #F5C595",
"4X c #F7C99B",
"5X c #D8C6AE",
"6X c #F1C9A0",
"7X c #F6D0A5",
"8X c #FDD4A6",
"9X c #FFDCAD",
"0X c #F6D6B4",
"qX c #9BB4C5",
"wX c #FEE9D4",
"eX c #DEE1E1",
"rX c None",
/* pixels */
"rXrXrXrXrXrXrXrXrXrXrXrXrXrXrXrXrXrXrXrXrXrXrXrXrXrXrXrXrXrXrXrXrXrX",
"rXrXrXrXrXrXrXrXrXrXrXrXrXrXrXrXrXrXrXrXrXrXrXrXrXrXrXrXrXrXrXrXrXrX",
"rXrXrXY R E rXrXrXrXrXrXrXrXrXrXrXrXrXrXrXrXrXrXrXrXrXrXrXrXrXrXrXrX",
"rXrXT ] [ { W rXrXrXrXrXrXrXrXrXrXrXrXrXrXrXrXrXrXrXrXrXrXrXrXrXrXrX",
"rXrXT [ =.4.*.R Y Y Y Y Y Y Y Y R R W rXrXrXrXrXrXrXrXrXrXrXrXrXrXrX",
"rXrXT [ 4.+.4.} } } } } } [ [ [ [ [ ! rXrXrXrXrXrXrXrXrXrXrXrXrXrXrX",
"rXrXT [ 4.#.+.9.9.9.9.9.;.,.,.,.,.,.:.! Y Y Y R T rXrXrXrXrXrXrXrXrX",
"rXrXrX| -.9.+.#.#.#.#.#.w.1.1.1.1.1.;.=.} } } [ Q E rXrXrXrXrXrXrXrX",
"rXrXrXrX' >.4.#.N.#.#.#.$.w.w.w.w.w.w.9.9.9.0.;.,.{ Y rXrXrXrXrXrXrX",
"rXrXrXrX' >.4.#.N.N.#.#.#.#.#.#.#.#.N.N.N.N.$.w.1.:.Q W rXrXrXrXrXrX",
"rXrXrX1 / 9.$.N.N.N.N.#.#.#.#.#.#.N.N.N.N.N.#.$.w.=.Q W rXrXrXrXrXrX",
"rXrX. < ^ @.q.7.7.7.5.A.A.A.A.#.@.3.7.c.8.q.#.B.+.) P h rXrXrXrXrXrX",
"rXrX. < ^ q.k.H H H z.P.U.U.F.A.3.u.G OXK c.#.B.+.^ 3 o rXrXM V rXrX",
"rXrX. < ^ 4.u.B /._.+XK.!.U.F.A.6.H /.}.oXj.c.8.6.k 6 + rXV `.).rXrX",
"rXrX. < L ;.i.B (.[.oX@XG.P.B.N.6.H /.}.|.oXOXJ H Z x c m `.].{.rXrX",
"rXrX. & i I b x .X@XoX'.C _ X.+.3.i.G +X#X#X@XXXB B _._._.'.|. XrXrX",
"rXrX. X < 4 : 7 J &XK q - 4 a X.w.=.f.L.1X1X*X+XB (.[.|.[.|.|. XrXrX",
"rXrXo @ @ @   % g.:Xj.: X 7 k X.e.r.I.~.3X8X2X%XH D _.'.[.[.[.{.rXrX",
"rXrXrXrXrXrX+ % g.:Xj.: q K H.5.A.E.~.~.^.3X3XR.s.f 7 z B _._.).rXrX",
"rXrXrXrXrXrX* 0 j.:XG.q G =X6XU.U.<X3X^.E.~.W.n.&.p # 5 v N N V rXrX",
"rXrXrXrXrX$ u u.T.2X&X.X$XeXwX4X<X4X3X^.E.I.b.2.&.p # . rXrXrXrXrXrX",
"rXrXrXrX+ & k v.>X2X*X$XqXeXwX0X7X7X3X!.I.2.<.~ I w $ rXrXrXrXrXrXrX",
"rXrXrXrX+ & k v.>X6X2X1X5X0X0X7X7X7X<XI.2.1.,.a 3 , rXrXrXrXrXrXrXrX",
"rXrXrXrXrX$ u u.H.,X3X3X4X4X7X7X4X<XW.b.<.~ I w . rXrXrXrXrXrXrXrXrX",
"rXrXrXrXrXrX* 0 ` Y.!.~.<X4X7X7X<XI.b.2.~ p 2 O rXrXrXrXrXrXrXrXrXrX",
"rXrXrXrXrXrXO   y ` ..k.H.T.;X;XY.x.~ U L 4   O rXrXrXrXrXrXrXrXrXrX",
"rXrXrXrXrXrXO   # < 4 4 s A p.p.i.y.j r < # #   . rXrXrXrXrXrXrXrXrX",
"rXrXrXrXrXrX8 0 9 9 9 9 g A A n n A n 9 & X X X   o rXrXrXrXrXrXrXrX",
"rXrXrXrXrX> S K.L.K.K.K.L.-XJ.h.i.a.i.n s : X X   o rXrXrXrXrXrXrXrX",
"rXrXrXrX+ : h.6X9X8X8X8X6X,XT.l.d.d.d.y.n 4 X X   rXrXrXrXrXrXrXrXrX",
"rXrXrXrX+ : h.6X9X8X8X7X,Xm.s.] ] ] ] ] j 4 X X   rXrXrXrXrXrXrXrXrX",
"rXrXrXrXrX> S K.L.L.Q.^.R.7. . . . . .>.] s - X   + rXrXrXrXrXrXrXrX",
"rXrXrXrXrXrX8 0 9 d _ P.F.S.D.D.D.D.S.@.3.A z 6 X   $ rXrXrXrXrXrXrX",
"rXrXrXrXrXrX* < - - s ..Z.C.C.M.M.C.C.Z.c.h.H g e & X   rXrXrXrXrXrX",
"rXrXrXrXrX@ w j g z Z H J J C y y C J OXK z.7.X.) r #   rXrXrXrXrXrX",
"rXrXrXrXrX@ w j n F F F D x l = ; l x .XK c.+.O.) u $ rXrXrXrXrXrXrX",
"rXrXrXrXrXrX* 4 f t.y.t.f 6 $ rXrX; 9 ` 8.A.O.^ e , rXrXrXrXrXrXrXrX",
"rXrXrXrXrXrXrX. t Y | Y t $ rXrXrXO 1 ( %.V.o.t . rXrXrXrXrXrXrXrXrX",
"rXrXrXrXrXrXrXrXrXrXrXrXrXrXrXrXrXrXrXrXrXrXrXrXrXrXrXrXrXrXrXrXrXrX",
"rXrXrXrXrXrXrXrXrXrXrXrXrXrXrXrXrXrXrXrXrXrXrXrXrXrXrXrXrXrXrXrXrXrX"
};
