/* XPM */
static char *result[] = {
/* columns rows colors chars-per-pixel */
"34 40 218 2 ",
"   c black",
".  c #000102",
"X  c #070000",
"o  c #060302",
"O  c #000206",
"+  c #060604",
"@  c #090403",
"#  c #130A07",
"$  c #160B06",
"%  c #1A120B",
"&  c #1F130E",
"*  c #050B18",
"=  c #170C12",
"-  c #150F13",
";  c #241007",
":  c #25150B",
">  c #31140B",
",  c #31140D",
"<  c #39120B",
"1  c #3C140F",
"2  c #2E1A16",
"3  c #352718",
"4  c #3B261B",
"5  c #0A1527",
"6  c #211D22",
"7  c #1E2832",
"8  c #2F2626",
"9  c #531B14",
"0  c #5C1E1E",
"q  c #4E2315",
"w  c #6F3706",
"e  c #773B08",
"r  c #732012",
"t  c #743119",
"y  c #403423",
"u  c #4D3426",
"i  c #463B35",
"p  c #543C31",
"a  c #79252A",
"s  c #762929",
"d  c #602E32",
"f  c #78363B",
"g  c #5F4E3F",
"h  c #684229",
"j  c #6F4B2D",
"k  c #1B2545",
"l  c #2D3445",
"z  c #323A5D",
"x  c #2C3862",
"c  c #303B65",
"v  c #493047",
"b  c #643644",
"n  c #394577",
"m  c #394677",
"M  c #384C7D",
"N  c #3A4C7F",
"B  c #4C4459",
"V  c #5C4051",
"C  c #784244",
"Z  c #64594C",
"A  c #795347",
"S  c #414569",
"D  c #505F6F",
"F  c #625166",
"G  c #675B65",
"H  c #776A60",
"J  c #636979",
"K  c #6F757F",
"L  c #8A2C1F",
"P  c #9A341F",
"I  c #88322A",
"U  c #8A3338",
"Y  c #9C3932",
"T  c #9B3A3E",
"R  c #A33320",
"E  c #BA3825",
"W  c #A6393C",
"Q  c #A83A3B",
"!  c #AB3D3A",
"~  c #B33E39",
"^  c #B43C39",
"/  c #B73D38",
"(  c #B83D38",
")  c #974C0C",
"_  c #964E0F",
"`  c #9A4F0D",
"'  c #8C4412",
"]  c #9B4711",
"[  c #964918",
"{  c #AD5E1C",
"}  c #896914",
"|  c #B4741B",
" . c #845532",
".. c #A05B21",
"X. c #BD522E",
"o. c #A8403F",
"O. c #B64436",
"+. c #BE4435",
"@. c #BB4B33",
"#. c #B8433B",
"$. c #B04A3A",
"%. c #CF6B15",
"&. c #E77515",
"*. c #EB791A",
"=. c #EF791C",
"-. c #F67C16",
";. c #F57F1A",
":. c #F57A1D",
">. c #CB402C",
",. c #DC462C",
"<. c #C6552E",
"1. c #DF542B",
"2. c #DD5E29",
"3. c #D74430",
"4. c #CF5430",
"5. c #C65C30",
"6. c #E2452C",
"7. c #EB5629",
"8. c #F25336",
"9. c #D86527",
"0. c #DB6826",
"q. c #D1732D",
"w. c #C16D31",
"e. c #C87232",
"r. c #C27A3D",
"t. c #E16D23",
"y. c #E86F22",
"u. c #E27B27",
"i. c #F17020",
"p. c #F26C3A",
"a. c #914846",
"s. c #85584B",
"d. c #905D4A",
"f. c #895757",
"g. c #AB5B50",
"h. c #BD5B52",
"j. c #846C53",
"k. c #9E7152",
"l. c #93775B",
"z. c #A56841",
"x. c #B07749",
"c. c #BD7453",
"v. c #837B70",
"b. c #CC6651",
"n. c #ED6141",
"m. c #F47856",
"M. c #BF9019",
"N. c #F88019",
"B. c #FF8718",
"V. c #FF851A",
"C. c #DE872A",
"Z. c #CB9C27",
"A. c #D0813C",
"S. c #F48527",
"D. c #F6882E",
"F. c #EE9F22",
"G. c #F7933E",
"H. c #BC8942",
"J. c #9C856C",
"K. c #AD8E71",
"L. c #DE8D4E",
"P. c #C3805C",
"I. c #EC804F",
"U. c #EE835E",
"Y. c #EB9B5C",
"T. c #F49E53",
"R. c #C08B65",
"E. c #DC866E",
"W. c #D59966",
"Q. c #CF9072",
"!. c #C89B74",
"~. c #F19C77",
"^. c #EFA066",
"/. c #EBA26F",
"(. c #F2AA79",
"). c #F3B276",
"_. c #2C4C86",
"`. c #394F80",
"'. c #2F578F",
"]. c #3A5484",
"[. c #395586",
"{. c #32628C",
"}. c #3A6B9B",
"|. c #396C9D",
" X c #2A66A1",
".X c #3873A4",
"XX c #397BAB",
"oX c #4A6985",
"OX c #46638A",
"+X c #49789C",
"@X c #64788A",
"#X c #71768C",
"$X c #6084A0",
"%X c #6C92AB",
"&X c #989992",
"*X c #A68380",
"=X c #B2A695",
"-X c #B4ABA0",
";X c #B4B2A7",
":X c #C29385",
">X c #CBA180",
",X c #D1AB8D",
"<X c #DDB78F",
"1X c #ECAC84",
"2X c #F5BB8A",
"3X c #E4BE97",
"4X c #C8BCAB",
"5X c #F8C796",
"6X c #F3C699",
"7X c #D8C6AE",
"8X c #EBC7A2",
"9X c #F6D0A4",
"0X c #FFD5A1",
"qX c #F6D6B4",
"wX c #9BB4C5",
"eX c #FEE9D4",
"rX c #DEE1E1",
"tX c None",
/* pixels */
"tXtXtXtXtXtXtXtXtXtXtXtXtXtXtXtXtXtXtXtXtXtXtXtXtXtXtXtXtXtXtXtXtXtX",
"tXtXtXtXtXtXtXtXtXtXtXtXtXtXtXtXtXtXtXtXtXtXtXtXtXtXtXtXtXtXtXtXtXtX",
"tXtXtXQ ! W tXtXtXtXtXtXtXtXtXtXtXtXtXtXtXtXtXtXtXtXtXtXtXtXtXtXtXtX",
"tXtXW o.O.+.! tXtXtXtXtXtXtXtXtXtXtXtXtXtXtXtXtXtXtXtXtXtXtXtXtXtXtX",
"tXtXW O.4.0.<.Q Q Q Q Q Q Q Q Q Q ! ! tXtXtXtXtXtXtXtXtXtXtXtXtXtXtX",
"tXtXW O.0.=.9.@.@.@.@.@.O./ / / / / ( tXtXtXtXtXtXtXtXtXtXtXtXtXtXtX",
"tXtXW O.9.;.=.t.t.t.t.t.2.3.3.3.3.3.>.( Q Q Q ! W tXtXtXtXtXtXtXtXtX",
"tXtXtX! 5.t.=.;.;.;.;.;.i.7.7.7.7.7.1.4.@.@.@.O.~ ^ tXtXtXtXtXtXtXtX",
"tXtXtXtX#.X.0.;.N.;.;.;.:.i.i.i.i.i.i.t.t.t.t.1.3.+.Q tXtXtXtXtXtXtX",
"tXtXtXtXY X.0.;.N.N.;.;.;.;.;.;.;.;.N.N.N.N.:.i.7.>.~ ! tXtXtXtXtXtX",
"tXtXX > [ t.:.N.N.N.N.;.;.;.;.;.;.N.N.N.N.N.;.:.i.4.~ ! tXtXtXtXtXtX",
"tXtXo ; _ *.u.e.w.e.u.S.D.D.S.;.*.q.e.r.A.u.;.V.=.X.I a tXtXtXtXtXtX",
"tXtX. ; ` u.z.G F G k.L.T.T.G.S.q.d.G J v.r.;.V.*.' 1 X tXtX`.n tXtX",
"tXtX. ; ] 0.f.M _.].K K.W.Y.G.S.w.F _. X+Xv.r.q.w.h 6 = tXN [.`.tXtX",
"tXtX. ; P 4.f.M '.}.+X$XJ.L.V.N.w.F _. X.X+X@XJ F B z x m [.}.|.tXtX",
"tXtX. # r P b z OX$X+X{.Z ..%.*.q.f.F @X%X%X$XOXM M ].].].{..XXXtXtX",
"tXtX. @ ; , - 6 H =Xv.7 - , w %.y.4.h.:X4X4X-X#XM '.}..X}..X.XXXtXtX",
"tXtXX O O O   # j.<Xl.% @ 6 h %.:.p.m.(.5X0X3X*XF S ].{.}.}.}.|.tXtX",
"tXtXtXtXtXtX. + j.<Xl.% 8 v.R.C.D.^.1X(.).5X6XE.$.d 7 l M ].].`.tXtX",
"tXtXtXtXtXtX: 4 l.<Xv.l D 4X8XT.T.2X6X).^.(.~.m.,.r # 5 c m m N tXtX",
"tXtXtXtXtX$ u d.!.3X&XoX%XrXeX5X2X6X6X).Y.I.n.8.,.r # . tXtXtXtXtXtX",
"tXtXtXtX  # h P.1X8X;X%XwXrXeXqX9X9X6X/.I.n.6.>.R 9 $ tXtXtXtXtXtXtX",
"tXtXtXtX  # h P.1X6X8X4X7XqXqX9X9X9X2XU.n.8.3.L 1 = tXtXtXtXtXtXtXtX",
"tXtXtXtXtX$ u d.R.<X5X5X5X9X9X9X6X2X~.n.6.>.R 9 o tXtXtXtXtXtXtXtXtX",
"tXtXtXtXtXtX: 4 A R./.).2X5X9X9X2XU.n.8.>.r < & tXtXtXtXtXtXtXtXtXtX",
"tXtXtXtXtXtX  + 4  .z.x.R.>X,X,XQ.b.>.E L ,   tXtXtXtXtXtXtXtXtXtXtX",
"tXtXtXtXtXtX  + # ; 2 3 p A f.f.f.a.f q ; @   tXtXtXtXtXtXtXtXtXtXtX",
"tXtXtXtXtXtX: 4 3 3 2 ; 8 d b b b s.s.p 8 #   tXtXtXtXtXtXtXtXtXtXtX",
"tXtXtXtXtX$ j x.H.x.z.C C C b b A c.W.!.J.y   tXtXtXtXtXtXtXtXtXtXtX",
"tXtXtXtX  %  .Y.^.L.c.g.a.a.C f a.c.^.5X<Xj.u & tXtXtXtXtXtXtXtXtXtX",
"tXtXtXtX  %  .Y.P.d.a.o.o.T T T T $.b.1X8X<XK.g o tXtXtXtXtXtXtXtXtX",
"tXtXtXtX  % h z.s.V b T $.X.5.5.$.L a.Q.5X0X3XZ +   tXtXtXtXtXtXtXtX",
"tXtXtXtX  @ % 3 l S V C z.C.F.F.| q q x.).0X3XZ @   O tXtXtXtXtXtXtX",
"tXtXtXtX  @ ; , l M ].F j.H.Z.M.} 3 8 s.R.!.K.g , # @   tXtXtXtXtXtX",
"tXtXtXtX  # w { H }..X}.oXG g y 3 l z B V i y d s 1 @   tXtXtXtXtXtX",
"tXtXtXtXtX$ e { k.K @X@XD z k * * k z v v 2 , 0 s 9 $ tXtXtXtXtXtXtX",
"tXtXtXtXtXtX: q  .r.A.r. .6 O tXtX* 6 d U U s q , = tXtXtXtXtXtXtXtX",
"tXtXtXtXtXtXtXo t &.B.-.) > X tXtX  $ t Q #.Y > o tXtXtXtXtXtXtXtXtX",
"tXtXtXtXtXtXtXtXtXtXtXtXtXtXtXtXtXtXtXtXtXtXtXtXtXtXtXtXtXtXtXtXtXtX",
"tXtXtXtXtXtXtXtXtXtXtXtXtXtXtXtXtXtXtXtXtXtXtXtXtXtXtXtXtXtXtXtXtXtX"
};
