/* XPM */
static char *result[] = {
/* columns rows colors chars-per-pixel */
"34 40 215 2 ",
"   c black",
".  c #000100",
"X  c #030101",
"o  c #000103",
"O  c #040201",
"+  c #060202",
"@  c #060302",
"#  c #01030A",
"$  c #03070A",
"%  c #150B08",
"&  c #1D0E08",
"*  c #020711",
"=  c #10131E",
"-  c #210E05",
";  c #2C0E0B",
":  c #2A150F",
">  c #381C06",
",  c #30140A",
"<  c #261612",
"1  c #3F1511",
"2  c #362516",
"3  c #3D2110",
"4  c #392319",
"5  c #3D2819",
"6  c #3D3317",
"7  c #071128",
"8  c #221E22",
"9  c #1B2833",
"0  c #16203B",
"q  c #302920",
"w  c #3A2D28",
"e  c #35373C",
"r  c #52170C",
"t  c #401414",
"y  c #5F1D12",
"u  c #5B1E1D",
"i  c #4D2D12",
"p  c #5E3512",
"a  c #753A0B",
"s  c #7A2815",
"d  c #773A13",
"f  c #4D2C29",
"g  c #573A29",
"h  c #642322",
"j  c #702928",
"k  c #762929",
"l  c #5D4A3B",
"z  c #6F492A",
"x  c #794C37",
"c  c #1E3858",
"v  c #2E385B",
"b  c #2E3964",
"n  c #563541",
"m  c #413652",
"M  c #63394A",
"N  c #753E43",
"B  c #3A415D",
"V  c #384475",
"C  c #394E72",
"Z  c #3A4C7E",
"A  c #49415F",
"S  c #5B4B56",
"D  c #695345",
"F  c #6D595D",
"G  c #5E4E68",
"H  c #4C5676",
"J  c #636267",
"K  c #606E7F",
"L  c #912D1D",
"P  c #9E301F",
"I  c #832E2A",
"U  c #833436",
"Y  c #8E3732",
"T  c #9B3B3D",
"R  c #B53723",
"E  c #BF3924",
"W  c #A73A39",
"Q  c #A6393B",
"!  c #A83A3B",
"~  c #A93B3B",
"^  c #AC3A3C",
"/  c #BB3D37",
"(  c #B83E38",
")  c #84420A",
"_  c #9C4F0F",
"`  c #A9560F",
"'  c #916E14",
"]  c #BD7A1D",
"[  c #905D3F",
"{  c #A94925",
"}  c #A25E27",
"|  c #AB403B",
" . c #B44237",
".. c #B54636",
"X. c #B14937",
"o. c #BA4934",
"O. c #B5423A",
"+. c #B36837",
"@. c #CD6A17",
"#. c #D4661A",
"$. c #DD721A",
"%. c #EA7615",
"&. c #EC761E",
"*. c #FA7E17",
"=. c #F2711F",
"-. c #F5761F",
";. c #F57E1A",
":. c #F27C1C",
">. c #D7422E",
",. c #D24F2B",
"<. c #DF4C2D",
"1. c #CD5B2C",
"2. c #D05B2B",
"3. c #C24533",
"4. c #D14233",
"5. c #C65230",
"6. c #C05A32",
"7. c #ED5B27",
"8. c #E9512C",
"9. c #F15335",
"0. c #DD6327",
"q. c #D7762B",
"w. c #C67032",
"e. c #CC7331",
"r. c #CB7D3B",
"t. c #E36D22",
"y. c #EC7D21",
"u. c #F46E36",
"i. c #884545",
"p. c #924B49",
"a. c #915949",
"s. c #815856",
"d. c #A7574F",
"f. c #BA5348",
"g. c #9D6441",
"h. c #9B6E4E",
"j. c #89725D",
"k. c #AA6F4C",
"l. c #B77B48",
"z. c #BA6C51",
"x. c #A97959",
"c. c #B97D5A",
"v. c #886874",
"b. c #C66551",
"n. c #CE6754",
"m. c #EF6343",
"M. c #ED714C",
"N. c #BE9438",
"B. c #C6971F",
"V. c #F78019",
"C. c #F98018",
"Z. c #FF8319",
"A. c #FF8718",
"S. c #DC8F24",
"D. c #E4822F",
"F. c #F68629",
"G. c #EE9F22",
"H. c #F4913E",
"J. c #F9933C",
"K. c #8A827C",
"L. c #AA896A",
"P. c #B09373",
"I. c #C98553",
"U. c #EC8955",
"Y. c #F29C52",
"T. c #C59166",
"R. c #D7946E",
"E. c #C08277",
"W. c #C79876",
"Q. c #EE8E63",
"!. c #E29862",
"~. c #F5976A",
"^. c #E29C7C",
"/. c #CBA17F",
"(. c #EEA569",
"). c #F2AA7C",
"_. c #F3B47A",
"`. c #2E4881",
"'. c #344E81",
"]. c #3A5485",
"[. c #395586",
"{. c #305D80",
"}. c #2A5E99",
"|. c #376490",
" X c #396797",
".X c #386D9E",
"XX c #3876A7",
"oX c #465B84",
"OX c #556583",
"+X c #437298",
"@X c #51779B",
"#X c #6E7D85",
"$X c #5C86A2",
"%X c #678AA3",
"&X c #7B9CB3",
"*X c #A29C95",
"=X c #A3B2B9",
"-X c #D0AA8F",
";X c #D3B08B",
":X c #CBB79F",
">X c #E4AD88",
",X c #F7BD87",
"<X c #F0BA8F",
"1X c #ECC69E",
"2X c #FAC792",
"3X c #F4C79A",
"4X c #F8CC9D",
"5X c #CAC0AE",
"6X c #DDC6A9",
"7X c #F6D0A5",
"8X c #FDD2A1",
"9X c #F6D6B4",
"0X c #FEE9D3",
"qX c #E4E5E3",
"wX c None",
/* pixels */
"wXwXwXwXwXwXwXwXwXwXwXwXwXwXwXwXwXwXwXwXwXwXwXwXwXwXwXwXwXwXwXwXwXwX",
"wXwXwXwXwXwXwXwXwXwXwXwXwXwXwXwXwXwXwXwXwXwXwXwXwXwXwXwXwXwXwXwXwXwX",
"wXwXwXwXwXwXwXwXwXwXwXwXwXwXwXwXwXwXwXwXwXwXwXwXwXwXwXwX! ! ! wXwXwX",
"wXwXwXwXwXwXwXwXwXwXwXwXwXwXwXwXwXwXwXwXwXwXwXwXwXwXwXO.o.X.| W wXwX",
"wXwXwXwXwXwXwXwXwXwXwXwXwXwX~ ! Q Q Q Q Q Q Q Q Q Q ..1.0.5.| W wXwX",
"wXwXwXwXwXwXwXwXwXwXwXwXwXW  .( ( ( ( ( o.o.o.o.o.o.5.t.&.2.| W wXwX",
"wXwXwXwXwXwXwXW ! ! Q Q ! / 4.>.>.>.>.>.0.t.t.t.t.t.t.;.&.2.| W wXwX",
"wXwXwXwXwXwX^ / ( o.o.o.o.,.8.7.8.8.8.7.=.;.V.V.V.V.:.&.0.1.O.wXwXwX",
"wXwXwXwXwX~ / 4.<.0.t.t.t.t.=.=.=.=.=.=.:.;.;.;.V.V.&.2. .W wXwXwXwX",
"wXwXwXwX^  .3.<.7.-.;.V.C.V.V.V.;.;.;.;.;.;.;.;.V.V.&.2. .W wXwXwXwX",
"wXwXwXwX^  .5.t.-.;.;.C.C.C.C.V.;.;.;.;.;.;.;.V.C.C.;.&.#.d - wXwXwX",
"wXwXwXwXwXI { $.C.C.:.q.r.r.w.q.y.;.F.F.F.F.D.e.w.w.q.y.$.a % o wXwX",
"V Z wXwXwX; a @.Z.Z.D.x.#XK J a.q.F.H.Y.Y.Y.c.s.G G s.e.$.a % o wXwX",
"].[.Z wX7 = f } e.r.l.#XXX}.'.F e.F.J.Y.!.W.K.oX`.`.G +.#.a %   wXwX",
".X X[.V b v B S J K K +XXX}.'.F e.C.Z.D.L.%X@X.X}.'.G f.,.s %   wXwX",
"XXXX|.].].].'.`.].@X%X%X%XK G a.q.&.@.} D {.+X$X@XC m U P r + o wXwX",
"XXXX.X.X.X.X|.'.OX*X:X5X:XE.f.2.&.@.a , % 9 J *XK.e % < , % @ o wXwX",
".X.X.X.X|.{.C G v.-X4X8X,X~.M.u.-.@.z 8 $ @ D ;XP.w +   * #   wXwXwX",
"].].].'.c 9 f T n.>X4X,X_.).).~.F.D.T.K.e % D ;XP.w     wXwXwXwXwXwX",
"V V V V 0 + r E m.~.).(.(._.3X,XY.Y.1X5XK 9 F ;XW.l : & wXwXwXwXwXwX",
"wXwXwXwXo O r E 9.m.M.U.(._.3X3X,X3X0XqX&X|.#X:X>Xx.x 4 X wXwXwXwXwX",
"wXwXwXwXwXX 1 L E >.8.m.U.).3X7X7X9X0XqX=X&X=X6X<XR.g.5 O   wXwXwXwX",
"wXwXwXwXwXwX& ; y R 8.9.m.Q.3X7X7X7X9X9X6X5X6X1X<XR.g.5 O   wXwXwXwX",
"wXwXwXwXwXwXwXo : s R >.8.M.).<X3X7X7X4X4X2X2X<X/.x.x 4 X wXwXwXwXwX",
"wXwXwXwXwXwXwXwXwX- r P <.9.m.Q.<X7X7X4X,X_.(.R.h.g : & wXwXwXwXwXwX",
"wXwXwXwXwXwXwXwXwXX % y P E 3.n.W.-X-X/.T.l.k.[ g % # wXwXwXwXwXwXwX",
"wXwXwXwXwXwXwXwXwXX @ % , h U p.s.s.s.s.g 5 , < % . # wXwXwXwXwXwXwX",
"wXwXwXwXwXwXwXwXwXX @ < w l a.s.M n M n w < < 3 5 5 2 & wXwXwXwXwXwX",
"wXwXwXwXwXwXwXwXwXX % D P.W.T.k.N n M N N N [ k.l.l.g.i X wXwXwXwXwX",
"wXwXwXwXwXwXwXwXwXq l P.1X,X!.z.i.N N i.p.d.z.I.!.(.I.g O   wXwXwXwX",
"wXwXwXwXwXwXwXo q j./.1X3X^.b.X.T T T T | | p.p.k.!.I.g O wXwXwXwXwX",
"wXwXwXwXwXwX    w P.8X8X<Xc.Y Y X.6.6.6.X.T N M D h.[ 5 O wXwXwXwXwX",
"wXwXwXwXwXX   + w P.8X2X(.[ 3 p ] G.G.S.+.i.M A m w < % O wXwXwXwXwX",
"wXwXwXwX  O @ % f j.P.T.c.D 8 6 ' B.B.N.h.F H ].B w , % O wXwXwXwXwX",
"wXwXwXwX  O , h j f w n S A v e 5 6 l J OX+X.X.XK g._ 3 O   wXwXwXwX",
"wXwXwXwXwXX 1 j j t < w n m v 0 # # 0 v H K #X#Xj.+._ i X wXwXwXwXwX",
"wXwXwXwXwXwX& ; t h U Y U f 8 * wXwX* 8 z l.r.r.} p > & wXwXwXwXwXwX",
"wXwXwXwXwXwXwXo - k O.O.Q u   wXwXwXwX- ) %.A.*.` - o wXwXwXwXwXwXwX",
"wXwXwXwXwXwXwXwXwXwXwXwXwXwXwXwXwXwXwXwXwXwXwXwXwXwXwXwXwXwXwXwXwXwX",
"wXwXwXwXwXwXwXwXwXwXwXwXwXwXwXwXwXwXwXwXwXwXwXwXwXwXwXwXwXwXwXwXwXwX"
};
