/* XPM */
static char *result[] = {
/* columns rows colors chars-per-pixel */
"34 40 214 2 ",
"   c black",
".  c #010101",
"X  c #020100",
"o  c #020101",
"O  c #050201",
"+  c #050302",
"@  c #030104",
"#  c #0A0507",
"$  c #0E0705",
"%  c #040408",
"&  c #130702",
"*  c #120B08",
"=  c #150D0A",
"-  c #1B0E09",
";  c #0F1016",
":  c #270B09",
">  c #24100B",
",  c #2F100E",
"<  c #2E1B0C",
"1  c #3F1A0A",
"2  c #211A1E",
"3  c #3C1412",
"4  c #372218",
"5  c #382A1D",
"6  c #050E25",
"7  c #1C1C32",
"8  c #1C293B",
"9  c #312E37",
"0  c #4C190B",
"q  c #5A1F1F",
"w  c #4F2909",
"e  c #532013",
"r  c #5C2312",
"t  c #76390C",
"y  c #7F381D",
"u  c #422C23",
"i  c #502125",
"p  c #4D2E39",
"a  c #642624",
"s  c #752720",
"d  c #6C5019",
"f  c #524436",
"g  c #57473C",
"h  c #744935",
"j  c #232B46",
"k  c #39394A",
"l  c #2B3760",
"z  c #503E5C",
"x  c #6C3C43",
"c  c #304267",
"v  c #374373",
"b  c #394677",
"n  c #394B7B",
"m  c #3A4A7D",
"M  c #76484E",
"N  c #615040",
"B  c #605140",
"V  c #6E5F4D",
"C  c #796056",
"Z  c #5D4965",
"A  c #454670",
"S  c #4E4C72",
"D  c #545877",
"F  c #685460",
"G  c #5B686F",
"H  c #7B7473",
"J  c #883D17",
"K  c #8B2C20",
"L  c #9E3737",
"P  c #AE3623",
"I  c #BE3923",
"U  c #A73B39",
"Y  c #A6383C",
"T  c #A93A3B",
"R  c #AA3B3B",
"E  c #AF3F39",
"W  c #AE3E3A",
"Q  c #BD3F37",
"!  c #BF3F36",
"~  c #B73C39",
"^  c #C13F36",
"/  c #81430F",
"(  c #88430A",
")  c #8B4C1D",
"_  c #9C551D",
"`  c #B45E19",
"'  c #834D33",
"]  c #B04F25",
"[  c #AB413A",
"{  c #AF4038",
"}  c #BD4D32",
"|  c #B24338",
" . c #816C38",
".. c #9D6239",
"X. c #B66A3C",
"o. c #CA6916",
"O. c #D86E18",
"+. c #E57415",
"@. c #E4761A",
"#. c #EF791D",
"$. c #F37D1A",
"%. c #F67F19",
"&. c #F47E1B",
"*. c #F4791D",
"=. c #D6422B",
"-. c #C3522F",
";. c #CB592C",
":. c #D85828",
">. c #C44834",
",. c #C45132",
"<. c #E0482E",
"1. c #E45829",
"2. c #ED4E32",
"3. c #D46129",
"4. c #CB702B",
"5. c #D67825",
"6. c #D97D28",
"7. c #DB7C2C",
"8. c #DF7F2D",
"9. c #D07F3D",
"0. c #ED6025",
"q. c #E06B24",
"w. c #EF6B21",
"e. c #E17223",
"r. c #EA7520",
"t. c #E97C21",
"y. c #ED7E20",
"u. c #F16731",
"i. c #833B41",
"p. c #9E4546",
"a. c #87514E",
"s. c #8B5D4E",
"d. c #834551",
"f. c #9A5550",
"g. c #B95949",
"h. c #AD5451",
"j. c #85634D",
"k. c #92634D",
"l. c #8A635C",
"z. c #8E7653",
"x. c #A06648",
"c. c #BC7D46",
"v. c #A56F55",
"b. c #AA7958",
"n. c #897265",
"m. c #937B66",
"M. c #AC7D7B",
"N. c #C05E4D",
"B. c #EE6042",
"V. c #ED6E4A",
"C. c #C56E61",
"Z. c #FD8216",
"A. c #F5801F",
"S. c #F98119",
"D. c #FF861D",
"F. c #E0A51E",
"G. c #F98829",
"H. c #EB9325",
"J. c #F3923F",
"K. c #E4A223",
"L. c #B78C65",
"P. c #BE8470",
"I. c #B49375",
"U. c #BD9A7E",
"Y. c #C48A55",
"T. c #F59B4C",
"R. c #ED885A",
"E. c #F69659",
"W. c #EFA15D",
"Q. c #D5936B",
"!. c #D0977B",
"~. c #ED9069",
"^. c #EF986F",
"/. c #F2AB77",
"(. c #2E4C84",
"). c #395483",
"_. c #3A5788",
"`. c #2D5C96",
"'. c #395F90",
"]. c #3B668C",
"[. c #386A9A",
"{. c #3871A1",
"}. c #397AAA",
"|. c #4D5E86",
" X c #476A93",
".X c #507696",
"XX c #5082A6",
"oX c #7B9CB2",
"OX c #848A8E",
"+X c #9A9C96",
"@X c #B1A9A0",
"#X c #ACB0A8",
"$X c #CFAD8B",
"%X c #D6BB9B",
"&X c #E3AD88",
"*X c #ECB88E",
"=X c #F3BA81",
"-X c #F3B58D",
";X c #E1BB94",
":X c #EEB892",
">X c #C3BEB5",
",X c #EDC69D",
"<X c #F3C193",
"1X c #FBC691",
"2X c #F4C89A",
"3X c #DCC4A7",
"4X c #F8CEA0",
"5X c #F6D0A5",
"6X c #FFDDAE",
"7X c #F6D6B3",
"8X c #A8BDCA",
"9X c #FEE8D3",
"0X c #E4E4E2",
"qX c None",
/* pixels */
"qXqXqXqXqXqXqXqXqXqXqXqXqXqXqXqXqXqXqXqXqXqXqXqXqXqXqXqXqXqXqXqXqXqX",
"qXqXqXqXqXqXqXqXqXqXqXqXqXqXqXqXqXqXqXqXqXqXqXqXqXqXqXqXqXqXqXqXqXqX",
"qXqXqXqXqXqXqXqXqXqXqXqXqXqXqXqXqXqXqXqXqXqXqXqXqXqXqXqXT R T qXqXqX",
"qXqXqXqXqXqXqXqXqXqXqXqXqXqXqXqXqXqXqXqXqXqXqXqXqXqXqX} -.| [ Y qXqX",
"qXqXqXqXqXqXqXqXqXqXqXqXqXqXT U R R R R R R R R T T ] 3.q.;.{ Y qXqX",
"qXqXqXqXqXqXqXqXqXqXqXqXqX~ ^ ! ! ! ! ! >.-.-.-.-.-.;.r.#.;.| Y qXqX",
"qXqXqXqXqXqXqXT W W U U W ^ =.<.<.<.<.<.0.r.#.r.r.r.#.$.r.;.{ Y qXqX",
"qXqXqXqXqXqX~ ^ >.-.;.;.;.:.0.0.0.0.0.0.*.%.S.S.S.S.#.q.3.,.E qXqXqX",
"qXqXqXqXqXT Q =.1.w.#.#.#.#.*.*.*.*.*.*.$.$.$.$.%.%.r.;.W E qXqXqXqX",
"qXqXqXqXqXW >.1.w.*.S.Z.Z.Z.Z.S.%.%.%.%.$.%.%.S.Z.Z.*.q.-.y qXqXqXqX",
"qXqXqXqXqXU -.e.%.%.$.y.t.t.t.y.$.A.A.A.A.A.y.t.t.t.y.A.O.t *   qXqX",
"v qXqXqXqXe J O.Z.Z.y.c.m.n.k.X.e.A.J.J.J.J.9.x.s.s.x.7.O.t = # qXqX",
"n m qXqX@ * r ` t.y.9.H .X`.n C 4.G.J.W.W.Q.m.D n n F X.O.t &   qXqX",
"[.'._.v l j k M l.n.H .X{.`.(.F 4.S.G.J.L.OX.X[.`.(.Z g.:.t &   qXqX",
"}.{.'.).n n n n )..XXXXXXX XS a.4.$.+.4.C ].{.XX Xn z p.P r &   qXqX",
"}.}.{.[.[.[.`.(.|.OX#X#X@XM.h.-.r.O.( 0 2 8 G +XOXk 2 3 0 > o # qXqX",
"{.{.{.{.[.].).S H $X4X4X<X^.V.u.*.o.d 2 o $ V $XI.u %   . . X @ qXqX",
").).).(.c 8 p p.C.&X4X1X/././.E.G.8.L.H 9 = N $XI.u . @ qXqXqXqXqXqX",
"b b m l 8 % 0 I B.^././.W.=X2X=XT.W.,X>XG 8 V $XU.g - qXqXqXqXqXqXqX",
"qXqXqXqX# + 0 I 2.B.V.R.W.=X2X2X=X2X9X0XoX].OX%X&Xb.h 4 O qXqXqXqXqX",
"qXqXqXqXqXO 1 K I =.2.V.R./.2X5X5X7X9X0X8XoX#X3X:XQ.x.u o @ qXqXqXqX",
"qXqXqXqXqXqX@ , r P 2.2.B.~.<X5X5X5X7X7X3X3X3X,X*XQ.x.u o @ qXqXqXqX",
"qXqXqXqXqXqXqX@ : s P =.2.V.^.-X2X5X4X4X1X1X<X*X!.v.h 4 # qXqXqXqXqX",
"qXqXqXqXqXqXqXqXqX: 3 K <.2.B.R.-X5X5X2X=X/.^.Q.k.u - qXqXqXqXqXqXqX",
"qXqXqXqXqXqXqXqX@ X $ 0 K P ! N.P.U.U.I.b...' ' u $ X qXqXqXqXqXqXqX",
"qXqXqXqXqXqXqX  o % o $ > i i.d.M M M x u > = = = o X qXqXqXqXqXqXqX",
"qXqXqXqXqXqXqX. o o o = 2 p M d.M M l.n.C N g N N N B 5 qXqXqXqXqXqX",
"qXqXqXqXqXqXqXX o o $ u x a.f.f.f.v.!.;X;X;X;X;X;X;XI.f X qXqXqXqXqX",
"qXqXqXqXqXqXqXX o o $ i i.p.p.p.p.h.C.!.:X5X6X6X6X6X$Xg + @ qXqXqXqX",
"qXqXqXqXqXqXqXX o o = a [ | [ [ [ [ [ g.Q.<X2X,X,X,XU.g . qXqXqXqXqX",
"qXqXqXqXqXqX  o % 7 9 ' ;.q.5.6.6.6.5.6.J.W.Y.j.V V B 5 qXqXqXqXqXqX",
"qXqXqXqXqX  o $ 2 k Z x.7.H.K.F.F.F.F.K.H.6.) < $ = - qXqXqXqXqXqXqX",
"qXqXqXqX@ + < t _ ..x.m.n.m.z. .d d  .z.z.j.g 8 7 i e : @ qXqXqXqXqX",
"qXqXqXqXqXX w ` +.$.7.m..X].c j ; ; j c A A A A Z i.K 3 X qXqXqXqXqX",
"qXqXqXqXqXqX5 e ( o.y.9.v.N 7 6 @ @ 6 7 p M d.d.x i , # qXqXqXqXqXqX",
"qXqXqXqXqXqXqX  1 ] &.D.@./ -   qXqX  - q L R R s ,   qXqXqXqXqXqXqX",
"qXqXqXqXqXqXqXqXqXqXqXqXqXqXqXqXqXqXqXqXqXqXqXqXqXqXqXqXqXqXqXqXqXqX",
"qXqXqXqXqXqXqXqXqXqXqXqXqXqXqXqXqXqXqXqXqXqXqXqXqXqXqXqXqXqXqXqXqXqX",
"qXqXqXqXqXqXqXqXqXqXqXqXqXqXqXqXqXqXqXqXqXqXqXqXqXqXqXqXqXqXqXqXqXqX",
"qXqXqXqXqXqXqXqXqXqXqXqXqXqXqXqXqXqXqXqXqXqXqXqXqXqXqXqXqXqXqXqXqXqX"
};
