/* XPM */
static char *result[] = {
/* columns rows colors chars-per-pixel */
"34 40 214 2 ",
"   c black",
".  c #000001",
"X  c #030100",
"o  c #010002",
"O  c #000003",
"+  c #020102",
"@  c #080404",
"#  c #0C0509",
"$  c #1A0C06",
"%  c #1F1301",
"&  c #060A14",
"*  c #050E14",
"=  c #00071A",
"-  c #1B1212",
";  c #290D08",
":  c #351B04",
">  c #3D1F07",
",  c #311008",
"<  c #34120A",
"1  c #2C1E11",
"2  c #23141D",
"3  c #3E1818",
"4  c #3C2913",
"5  c #37221D",
"6  c #3A2718",
"7  c #141F3F",
"8  c #301B25",
"9  c #122334",
"0  c #302323",
"q  c #541B16",
"w  c #49280B",
"e  c #6C350D",
"r  c #7F3F0F",
"t  c #6F2115",
"y  c #47292E",
"u  c #5E2023",
"i  c #592F26",
"p  c #51352F",
"a  c #4E2B39",
"s  c #5A3A37",
"d  c #753322",
"f  c #69343F",
"g  c #74373B",
"h  c #6F550A",
"j  c #614226",
"k  c #694527",
"l  c #1C314B",
"z  c #3C2B44",
"x  c #29375C",
"c  c #2C3860",
"v  c #2F3B67",
"b  c #303B63",
"n  c #582F40",
"m  c #503D51",
"M  c #603643",
"N  c #673A44",
"B  c #1B4464",
"V  c #21456B",
"C  c #34406E",
"Z  c #2D4372",
"A  c #2B4F79",
"S  c #394577",
"D  c #374678",
"F  c #30447C",
"G  c #394678",
"H  c #364B7C",
"J  c #2D567E",
"K  c #6F4141",
"L  c #6E464D",
"P  c #6F464D",
"I  c #704446",
"U  c #794249",
"Y  c #7F4A4D",
"T  c #6B584A",
"R  c #684F5A",
"E  c #7A5555",
"W  c #7B5959",
"Q  c #53496A",
"!  c #474B71",
"~  c #574F70",
"^  c #505A7B",
"/  c #604667",
"(  c #714963",
")  c #665664",
"_  c #8E2C1C",
"`  c #8B321E",
"'  c #903A27",
"]  c #843A3D",
"[  c #903B3A",
"{  c #A03422",
"}  c #AE3624",
"|  c #A03C2E",
" . c #A5373D",
".. c #A23B3A",
"X. c #A5383B",
"o. c #A7393C",
"O. c #A73A3C",
"+. c #AF3E39",
"@. c #B33F38",
"#. c #C23C26",
"$. c #CB3E26",
"%. c #955116",
"&. c #B95E13",
"*. c #8E610F",
"=. c #9F433E",
"-. c #AC413A",
";. c #B24137",
":. c #B24435",
">. c #B44436",
",. c #B64832",
"<. c #B5463B",
"1. c #BF463C",
"2. c #BD4938",
"3. c #99752A",
"4. c #B46228",
"5. c #BB6D38",
"6. c #D46C18",
"7. c #F3691F",
"8. c #E4781E",
"9. c #EE7B1D",
"0. c #F97718",
"q. c #F57C1A",
"w. c #F57F1B",
"e. c #F37C1C",
"r. c #DF452C",
"t. c #DB4C2E",
"y. c #CB592D",
"u. c #D65D2A",
"i. c #D05B2E",
"p. c #C84035",
"a. c #C04F31",
"s. c #C8493C",
"d. c #D24431",
"f. c #D84732",
"g. c #D14A30",
"h. c #EF492B",
"j. c #E9482D",
"k. c #EC482C",
"l. c #E84E2C",
"z. c #F24B2E",
"x. c #E3582D",
"c. c #EA5A28",
"v. c #C56B25",
"b. c #D36227",
"n. c #D96626",
"m. c #DD6826",
"M. c #D96428",
"N. c #D2752E",
"B. c #E46C23",
"V. c #EC7121",
"C. c #974040",
"Z. c #88514E",
"A. c #94544E",
"S. c #834B50",
"D. c #805659",
"F. c #875F5E",
"G. c #9F5751",
"H. c #A44748",
"J. c #AB4C49",
"K. c #AD4E49",
"L. c #816143",
"P. c #94614E",
"I. c #9D6749",
"U. c #A06648",
"Y. c #AF7647",
"T. c #A1745C",
"R. c #9D6261",
"E. c #A17C70",
"W. c #C85043",
"Q. c #B48018",
"!. c #B5801A",
"~. c #B98218",
"^. c #A78937",
"/. c #E9801C",
"(. c #F88019",
"). c #FB831D",
"_. c #EA9A1D",
"`. c #ECA91F",
"'. c #EC852E",
"]. c #F98D32",
"[. c #F7923C",
"{. c #BC804A",
"}. c #A28262",
"|. c #A48668",
" X c #A18D7B",
".X c #BA8E74",
"XX c #C88457",
"oX c #CF8A5B",
"OX c #E9934D",
"+X c #E9964F",
"@X c #E59B5F",
"#X c #EBAA71",
"$X c #2C5F87",
"%X c #315185",
"&X c #395182",
"*X c #395282",
"=X c #395284",
"-X c #385588",
";X c #385A8E",
":X c #356495",
">X c #386C9D",
",X c #2D6DA0",
"<X c #3872A3",
"1X c #397AAB",
"2X c #2F7AB1",
"3X c #466B94",
"4X c #4C7598",
"5X c #4C7B9D",
"6X c #6F6780",
"7X c #C8A185",
"8X c #DAB292",
"9X c #F2C699",
"0X c #FFD39C",
"qX c None",
/* pixels */
"qXqXqXqXqXqXqXqXqXqXqXqXqXqXqXqXqXqXqXqXqXqXqXqXqXqXqXqXqXqXqXqXqXqX",
"qXqXqXqXqXqXqXqXqXqXqXqXqXqXqXqXqXqXqXqXqXqXqXqXqXqXqXqXqXqXqXqXqXqX",
"qXqXqXqXqXqXqXqXqXqXqXqXqXqXqXX.X.o.o.o.o.X.X.qXqXqXqXqXqXqXqXqXqXqX",
"qXqXqXqXqXqXqXqXqXqXqXqXqXqX;.@.@.@.<.<.<.<.<.;.qXqXqXqXqXqXqXqXqXqX",
"qXqXqXqXqXo. . . . . . . .+.p.d.d.g.u.n.n.n.n.y.+.qXqXqXqXqXqXqXqXqX",
"qXqXqXqX+.-.@.:.:.:.:.:.:.1.t.l.l.c.V.w.e.w.w.B.a.;.qXqXqXqXqXqXqXqX",
"qXqXqXqXO.<.i.m.M.b.b.b.b.M.B.7.7.7.q.w.w.(.(.9.m.y.>.qXqXqXqXqXqXqX",
"qXqXqXqXo.,.b.8.9.e.e.e.e.e.e.q.e.q.w.w.w.w.w.w.w.B.a.+.qXqXqXqXqXqX",
"qXqXqXqXqX' r %.6.).(.w.(.w.w.w.w.w.w.w.w.w.q.w.(.9.n.y.>.qXqXqXqXqX",
"qXqXqXqXqXqX+ > &.(.(.w.w.w.w.w.w.q.e.e.q.w.w.w.w.w.e.B.a.+.qXqXqXqX",
"qXqXqXqXqXqX@ < &.).).(.(.).].].).0.7.7.0.).].[.[.].).e.M.y.2.qXqXqX",
"qXqXqXqXqXqX+ > &.(.e.9.9.'.+X+X'.V.x.x.V.'.+X@X@XOX'.9.9.m.,.X.qXqX",
"qXqXqXqXqXv 7 p v.9.5.U.U.T. X X|.T.R.R.T.}. X XE.T.U.5.8.6.` u qXqX",
"qXqXG D D D Z R v.N.W ! ! ^ 3X5X4X4X4X4X4X5X5X4X^ ! ! W N.&.w @ qXqX",
"qXqXS H =X;X;X^ P.P.~ F F Z V B B A ,X2X2X2X2X,X%XF F ) N.&.> + qXqX",
"qXqXS =X:X<X<X3X^ Q ! H H b 9 * * 9 $X1X1X1X1X>X=XF F ) N.&.> @ qXqX",
"qXqXS =X>X1X1X<X:XA x x H A l 9 9 l J 3X6X6X6X6X( ( ( Y %.r :   qXqX",
"qXqXS =X>X1X1X1X<XJ 9 9 J >X:X$X$X$X%X~ G.W.W.W.s.s.s.| q , qXqXqXqX",
"qXqXv *X:X>X>X>X>XJ 9 9 B $X>X<X<X:X%X/ 1.h.h.k.k.h.z.} < + qXqXqXqX",
"qXqXqXqX&X=X=X=X-XH b l 9 9 Z -X-X%XH / 1.k.k.j.j.k.z.} < + qXqXqXqX",
"qXqXqXqXG S S C c b Q m 3 3 m / / / / S.s.j.j.j.j.r.#._ ,   qXqXqXqX",
"qXqXqXqXqXqXqXqX& 0 [ 1.} } @.<.<.<.<.1.f.j.j.j.z.#.t , qXqXqXqXqXqX",
"qXqXqXqXqXqXqXqX@ < ` $.r.k.j.j.j.j.j.j.j.j.j.r.$._ ,   qXqXqXqXqXqX",
"qXqXqXqXqXqXqXqX5 3 3 t $.z.z.h.h.h.h.k.k.k.h.#.t , qXqXqXqXqXqXqXqX",
"qXqXqXqXqXqXqXqXI s - 3 { f.f.d.d.d.d.d.f.f.f.{ 3 + qXqXqXqXqXqXqXqX",
"qXqXqXqXqXqXqX5 I.U.p y ] =.C.[ [ [ [ C.=.=.C.g y 8 a n n qXqXqXqXqX",
"qXqXqXqXqXqX@ 4 Y.oXZ.N U U K N N N N K U U N M M M P P P L qXqXqXqX",
"qXqXqXqXqXqX& 4 {.@XP.U S.Z.S.Y Y Y Y S.Z.S.P N M P E..X.XE.D.qXqXqX",
"qXqXqXqXqXqX  6 Y.XXA.Y A.G.G.G.G.G.G.G.G.A.S.K M W 7X9X9X7XE a qXqX",
"qXqXqXqXqXqXqX1 j K K U C.H.J.K.K.J.H.H.H.H.C.] f F.8X0X0X.Xs 8 qXqX",
"qXqXqXqXqXqXqXqX@ - y g C.-.........-.-.-.-.-.[ f E 7X9X#XY.6 . qXqX",
"qXqXqXqXqXqXqXqXqXo 2 i 4.4.d q q d 4.N.N.N.M.:.i y T L.L.k 5 qXqXqX",
"qXqXqXqXqXqXqXqXqXqX+ 4 Q.~.w # # w !.`.`._./.&.> # - - $ @ qXqXqXqX",
"qXqXqXqXqXqXqXqXqXqX@ % h *.e q q d 3.^.3.*.%.e %         qXqXqXqXqX",
"qXqXqXqXqXqXqXqXqXqX+ X $ w { $.$.-.R m 0 % % $ X + qXqXqXqXqXqXqXqX",
"qXqXqXqXqXqXqXqXqXqX+ O O $ t { { d z 7 = o o o o qXqXqXqXqXqXqXqXqX",
"qXqXqXqXqXqXqXqXqXqX+ O O X $ ; ; $ # & qXqXqXqXqXqXqXqXqXqXqXqXqXqX",
"qXqXqXqXqXqXqXqXqXqX                    qXqXqXqXqXqXqXqXqXqXqXqXqXqX",
"qXqXqXqXqXqXqXqXqXqXqXqXqXqXqXqXqXqXqXqXqXqXqXqXqXqXqXqXqXqXqXqXqXqX",
"qXqXqXqXqXqXqXqXqXqXqXqXqXqXqXqXqXqXqXqXqXqXqXqXqXqXqXqXqXqXqXqXqXqX"
};
