/* XPM */
static char *result[] = {
/* columns rows colors chars-per-pixel */
"34 40 220 2 ",
"   c black",
".  c #010000",
"X  c #000001",
"o  c #050302",
"O  c #070402",
"+  c #040305",
"@  c #0C0403",
"#  c #0C0805",
"$  c #04050B",
"%  c #140705",
"&  c #160D0A",
"*  c #180F0C",
"=  c #1D1204",
"-  c #0F0810",
";  c #090D13",
":  c #1A1215",
">  c #240D07",
",  c #210F08",
"<  c #261304",
"1  c #24100B",
"2  c #3B1E08",
"3  c #371510",
"4  c #2A231C",
"5  c #0E1D2B",
"6  c #0E182C",
"7  c #3B2427",
"8  c #362129",
"9  c #36212F",
"0  c #3E2431",
"q  c #49160D",
"w  c #51170C",
"e  c #551913",
"r  c #661F13",
"t  c #443009",
"y  c #753C0A",
"u  c #602217",
"i  c #682D16",
"p  c #793916",
"a  c #481C22",
"s  c #5C1E23",
"d  c #4C322F",
"f  c #563920",
"g  c #5F2C31",
"h  c #522C3B",
"j  c #562E3E",
"k  c #563A3D",
"l  c #763423",
"z  c #754A1D",
"x  c #6F4834",
"c  c #152141",
"v  c #162245",
"b  c #162B41",
"n  c #1C3750",
"m  c #273659",
"M  c #2E3D6C",
"N  c #333E6C",
"B  c #462D40",
"V  c #5A2F41",
"C  c #5A3D57",
"Z  c #613643",
"A  c #693944",
"S  c #6E3F46",
"D  c #673E48",
"F  c #244469",
"G  c #284278",
"H  c #384475",
"J  c #394576",
"K  c #30467C",
"L  c #384778",
"P  c #394D7E",
"I  c #215275",
"U  c #6E464D",
"Y  c #6E474D",
"T  c #784E41",
"R  c #72474B",
"E  c #79434A",
"W  c #7F4B4D",
"Q  c #74495E",
"!  c #7F644B",
"~  c #474560",
"^  c #5D4768",
"/  c #524F6F",
"(  c #454A71",
")  c #4C5277",
"_  c #735764",
"`  c #72677F",
"'  c #80291B",
"]  c #8F2B1A",
"[  c #932D1C",
"{  c #9F311E",
"}  c #80383B",
"|  c #903C3B",
" . c #AE3622",
".. c #AB392A",
"X. c #BF3F2D",
"o. c #A4373C",
"O. c #A13B3A",
"+. c #A7393B",
"@. c #A6393C",
"#. c #A93B3B",
"$. c #B23D39",
"%. c #B23F39",
"&. c #B93C38",
"*. c #CE3F27",
"=. c #80430D",
"-. c #894710",
";. c #855511",
":. c #9D5114",
">. c #8D610E",
",. c #9D741B",
"<. c #BE671F",
"1. c #8B4F3E",
"2. c #98403F",
"3. c #835934",
"4. c #80543B",
"5. c #AE5B26",
"6. c #AD4136",
"7. c #A0423D",
"8. c #AB413A",
"9. c #B34337",
"0. c #B44535",
"q. c #B64536",
"w. c #997238",
"e. c #F16F1F",
"r. c #EA791A",
"t. c #ED781E",
"y. c #ED7C1F",
"u. c #F67E17",
"i. c #F87518",
"p. c #F37C1B",
"a. c #F47E1B",
"s. c #D6452F",
"d. c #DD482F",
"f. c #C15924",
"g. c #CD5D29",
"h. c #C54A3D",
"j. c #D14432",
"k. c #C05031",
"l. c #C15031",
"z. c #C15131",
"x. c #C55231",
"c. c #C95339",
"v. c #E3462C",
"b. c #E7482D",
"n. c #EF482B",
"m. c #EA482C",
"M. c #F44B2E",
"N. c #E3572C",
"B. c #EA5B28",
"V. c #D86626",
"C. c #DF6426",
"Z. c #D46028",
"A. c #CD742F",
"S. c #DD7522",
"D. c #D6762B",
"F. c #E76F21",
"G. c #F26820",
"H. c #E07926",
"J. c #86454B",
"K. c #894F4F",
"L. c #9A5352",
"P. c #9E5751",
"I. c #A24648",
"U. c #A84949",
"Y. c #AC4D49",
"T. c #B54742",
"R. c #A05851",
"E. c #916245",
"W. c #88635B",
"Q. c #9E695D",
"!. c #A36643",
"~. c #AD7053",
"^. c #A47C5F",
"/. c #BF7B5A",
"(. c #9D756C",
"). c #A17C6E",
"_. c #AD842A",
"`. c #CA901A",
"'. c #EE8A1E",
"]. c #F68019",
"[. c #F4801E",
"{. c #FB811A",
"}. c #E89D1D",
"|. c #ECAA1F",
" X c #EC842B",
".X c #FC8620",
"XX c #FA8B2C",
"oX c #EB8A3A",
"OX c #F89139",
"+X c #AB8373",
"@X c #A18C7A",
"#X c #B28B78",
"$X c #CC8954",
"%X c #EA9449",
"&X c #E39657",
"*X c #E79C5E",
"=X c #E09E64",
"-X c #394F80",
";X c #315383",
":X c #395283",
">X c #36568A",
",X c #345B8F",
"<X c #2D6089",
"1X c #2D6E9C",
"2X c #356595",
"3X c #3F6593",
"4X c #38699B",
"5X c #3A6E9E",
"6X c #3671A4",
"7X c #3979AA",
"8X c #2F7AB0",
"9X c #4A5F84",
"0X c #4C7498",
"qX c #4C799B",
"wX c #616A8A",
"eX c #DEB690",
"rX c #F6BE87",
"tX c #E8BF98",
"yX c #FAD2A1",
"uX c None",
/* pixels */
"uXuXuXuXuXuXuXuXuXuXuXuXuXuXuXuXuXuXuXuXuXuXuXuXuXuXuXuXuXuXuXuXuXuX",
"uXuXuXuXuXuXuXuXuXuXuXuXuXuXuXuXuXuXuXuXuXuXuXuXuXuXuXuXuXuXuXuXuXuX",
"uXuXuXuXuXuXuXuXuXuXuXuXuX#.@.@.@.@.@.@.@.@.#.uXuXuXuXuXuXuXuXuXuXuX",
"uXuXuXuXuXuXuXuXuXuXuXuXuX$.%.%.%.q.q.q.q.q.0.6.uXuXuXuXuXuXuXuXuXuX",
"uXuXuXo.+.o.o.o.o.o.o.+.&.j.j.j.j.Z.V.V.V.V.Z.k.#.uXuXuXuXuXuXuXuXuX",
"uXuX+.8.%.9.9.9.9.9.9.9.h.d.m.b.B.e.a.a.a.].t.g.0.6.uXuXuXuXuXuXuXuX",
"uXuX@.%.c.V.V.Z.Z.Z.Z.Z.C.G.G.G.e.p.].].].].p.F.Z.l.#.uXuXuXuXuXuXuX",
"uXuX#.0.g.S.r.p.p.p.p.p.p.p.p.p.a.a.a.a.a.a.a.].t.g.0.#.uXuXuXuXuXuX",
"uXuXuX6.p =.<.p.{.].].].].u.].a.a.].a.a.a.a.u.u.p.F.Z.z.#.uXuXuXuXuX",
"uXuXuXuXX < -.r.{.a.a.a.[.[.[.a.a.p.p.a.a.[.[.[.[.[.t.Z.0.#.uXuXuXuX",
"uXuXuXuXO # =.r..X{.{.{..XOXXX{.i.G.G.i.{.XXOXOXOXXX{.F.Z.x.6.uXuXuX",
"uXuXuXuXX = -.r.{.y.y.y.oX&X%X XF.N.N.F. X%X*X*X&XoXy.p.t.Z.0.o.uXuX",
"uXuXuXN c 8 :.r.D.!.!.!.^.@X@X^.^.Q.Q.Q.^.@X@X@X).Q.!.A.y.f.l s uXuX",
"L L L L M ~ !.S.!.^ ( / 9X0XqXqX0X0X0XqXqXqXqX9X) ( / !.S.:.3   uXuX",
"L L :X>X,X9XW.!._ L K K G F F F I 1X8X8X8X8X6X,XK G L W.H.:.=   uXuX",
"L -X2X6X6X5X9X/ ( L L L m 5 ; ; b <X7X7X7X7X6X,XL K ( E.S.:.>   uXuX",
"L :X4X7X7X7X4X>XF m F :XF b 5 5 n ;X3XwX` ` ` _ Q Q Q 1.:.y 1 uXuXuX",
"L :X4X7X7X7X7X4Xn 5 n 2X5X<X<X<X<X;X/ L.h.c.h.h.h.h.h.' 2 1 uXuXuXuX",
"J P 3X4X4X4X5X2Xm 5 b I <X4X6X6X2X;X^ T.m.n.m.m.m.M.v.' % X uXuXuXuX",
"uXuXP :X:X:X:X:XL m b 5 b K >X>X;XK ^ T.m.n.b.b.m.M.v.' % X uXuXuXuX",
"uXuXN P H H M m ~ ^ B 3 a C ^ ^ ^ ^ Q T.b.m.b.m.b.*. .r - o uXuXuXuX",
"uXuXuXuXuXuX6 : g T.q. ...%.T.T.T.T.h.s.b.b.b.M.v.[ q 1 uXuXuXuXuXuX",
"uXuXuXuXuXuXuX- r  .s.b.m.m.m.m.m.m.m.b.b.m.v.s. .u * + uXuXuXuXuXuX",
"uXuXuXuXuXuXuXuX, w [ d.M.n.n.n.n.n.n.m.m.n.s.] e 3 8 9 uXuXuXuXuXuX",
"uXuXuXuXuXuXuXuX+ & u X.d.s.s.s.j.j.j.j.s.d.X.u : 7 S R uXuXuXuXuXuX",
"uXuXuXuXuXj V h 0 8 g } 2.7.7.| | | | | | 7.2.g 7 T ~.4., uXuXuXuXuX",
"uXuXuXuXU Y Y Y D Z Z Z S E E S A A A A A E E A S ~.&X3.* O uXuXuXuX",
"uXuXuXR (.#X#X+XW.D Z D E K.K.W W W W W W K.K.E W /.*X3.=   uXuXuXuX",
"uXuXh Y #XtXyXtX).D Z E K.L.R.P.P.P.P.P.P.R.L.J.W ~.$X3.&   uXuXuXuX",
"uXuX1 d ^.rXyXyX#XS A | 2.I.I.I.U.Y.Y.Y.Y.U.I.J.S x x f o uXuXuXuXuX",
"uXuXX 4 E.=XrXeX).D } O.8.8.8.8.8.O.O.O.O.8.7.} k 7 & + uXuXuXuXuXuX",
"uXuXuXO f 3.! ! k 7 l f.V.D.D.D.5.l e a i 5.<.z 8 - + uXuXuXuXuXuXuX",
"uXuXuXuX, * : * # % i V.'.}.|.|._.t @ @ 2 ,.`.z & + uXuXuXuXuXuXuXuX",
"uXuXuXuXuX  O X $   2 =.>.>.,._.w.l e e i ;.>.t . o uXuXuXuXuXuXuXuX",
"uXuXuXuXuXuXuXuX+ . @ = = = 4 ~ Q 8.*.*. .u = @ . o uXuXuXuXuXuXuXuX",
"uXuXuXuXuXuXuXuXuXO   X X X - v B l { { ' 3     . o uXuXuXuXuXuXuXuX",
"uXuXuXuXuXuXuXuXuXuXuXuXuXuXuX$ ; > > > > @     . o uXuXuXuXuXuXuXuX",
"uXuXuXuXuXuXuXuXuXuXuXuXuXuXuX+                 X uXuXuXuXuXuXuXuXuX",
"uXuXuXuXuXuXuXuXuXuXuXuXuXuXuXuXuXuXuXuXuXuXuXuXuXuXuXuXuXuXuXuXuXuX",
"uXuXuXuXuXuXuXuXuXuXuXuXuXuXuXuXuXuXuXuXuXuXuXuXuXuXuXuXuXuXuXuXuXuX"
};
