/* XPM */
static char *result[] = {
/* columns rows colors chars-per-pixel */
"40 40 38 1 ",
"  c gray8",
". c gray7",
"X c gray10",
"o c #202020",
"O c #1D1D1D",
"+ c #161616",
"@ c #151515",
"# c gray11",
"$ c gray9",
"% c #191919",
"& c #222222",
"* c #181818",
"= c #1E1E1E",
"- c gray13",
"; c #232323",
": c #1B1B1B",
"> c #131313",
", c gray12",
"< c gray14",
"1 c gray16",
"2 c gray15",
"3 c #101010",
"4 c #282828",
"5 c gray6",
"6 c #2A2A2A",
"7 c #111111",
"8 c #272727",
"9 c #252525",
"0 c gray17",
"q c #2C2C2C",
"w c #0E0E0E",
"e c gray5",
"r c #0C0C0C",
"t c #252526",
"y c #1C1C1D",
"u c #1D1D1E",
"i c #1A1A1B",
"p c #0B0B0B",
/* pixels */
" .XoO+@#O$%&*#=+%-;=oO$@X#X#;#-&X:%@X#%+",
"+>Xo: $,:>%O%:#+OX#<;#%*:&#:##;; %:O-=*@",
"@*%OX@Xo#@-,:Xo=-:%1;#O#:=%  %-o%o=-;:@*",
" :%$++%=,%;o-+:2<o,2==&#@++..OX::;-:X@@O",
"+::$+$*X# :=o$*,&:#<OO&%3*,*+<%,:X=@$+ X",
"+#,X==$%,$>O#:;#:>@O*%O* =1::=*<,@ @*@.+",
"Oo=O2<X,4&.::%<o%:O:+$:O##=##5+OX*>*%$+@",
"#%OOX=oOo#+O,;6>*X=&&#+$o,3$: ;=%*+7>$*%",
" =,+$*@*OO:8=,:@X,o@=-* $+. %*X+X&=%@@+$",
"@#X@#=,48O=8+=X-@.X>#,*@@*%>X<%+X&: 77. ",
"=o:*:X%#*X&o#=,O X=$ *#,;,:*:#9%%X@>XX*=",
"#X*0q*.%+##w*9+%%O#% %XO,**$>e,8-#:#:*O4",
"$ 7:,O##X@ @-2:=O6;X*+XX@+.@@%,#;+++X++o",
"O+3@+X:+$. @+$>>*$*X:+..@%@+O&**<,$+++*X",
"3,O@:;#%;OO* +:O%$#X>> *,:*@,=@.,<:$XOX*",
"$,%>$X$@  %+%:O:.&,$*+@**X:X#&X%*>@X<o++",
"=%++$*X%>3:oOO&#:<:@X++X$@*%X;>$%#+*=#*:",
"XO=#%*X+@O-:X%OO:o*. $%:#%+%o-*O># .*O:X",
"X&&=%***=#:#@ $@$&+3$$$**%*#*##&+*+ $O=:",
"#o-,#*%-9:X%7+>>$=X@$ @%*+#,>:X:>+%:,-<-",
"&&-,O$X<9O$+*$7X+ %#%*$%:X*X##@=+$*%::O&",
"<,#=: @:=:%$*@7X%@$OO,X *:*$o#@o%+X*$+*o",
"O$$-=%$+X$,O*+>$o=###=#+>+*@XO*%%>:#XXXX",
"+$%;,oo%: =o;X%$O=O*:##X  .. O*#:$%$++@ ",
"+*#=$Oo@+:#X;:O%@ +$:#:$ @5+>*%-*#:+ $$+",
"**,:@-8*@=%+, %%%X+*X$>@X$ O$:::$+*,&=#O",
"$%X*%:;;7@,*$.: 3:O%$73$X$*X.::$r7#9-$.:",
"%;+$:75*@@#&=>OoO*@@*:::#X.7.O .eX,:+>.:",
"$*:<;o,: >@.o..:X>*%*57#,=:+ 5*=$:O+53.$",
"*>&&=X:,O@$@7X:*$##o#%,<&#o=.. :$>::##*$",
":+o%..@++*@@7.,+>#$XXXO#*$++++*37$% %X%o",
"O7>@@:#X&#5@+7# *<=O&-=:%$5.$>@+e*#*:X%&",
"-,:#,o#++$5+$7#.@XXO:@37@ >%*X+,++*,=%+>",
"-ty$:X*@@, %*$+3#+>X*77%XXo@ =#::@. @$%*",
"#ui*.3+* OOX:&O@%+X:%7.%#: p%X$$+>5w>@$*",
"%O#@%O:XX@$X+%=#: +XX+**+*>.*%>@%$33@+XO",
"#,:+OO@@+$#9%@*o=@ %:XOO+X=:O:>7+  @X*%O",
":X$ *$>@+@%o@>@#*+$$%:O:@$=+@: 5.>+@@> #",
"@%X@@%*$%+$+37**.$o#:#X*@+@**%@5 *XX+> %",
"5$%$$X#%*%#+.X*$$$;-o#%$*$@O=%,*%O,oX$*+"
};
