/* XPM */
static char *result[] = {
/* columns rows colors chars-per-pixel */
"40 40 66 1 ",
"  c #4A4F69",
". c #4D5366",
"X c #4E5269",
"o c #505867",
"O c #53566C",
"+ c #56596C",
"@ c #595B6E",
"# c #575870",
"$ c #5D5E71",
"% c #605F77",
"& c #625E7E",
"* c #756E6E",
"= c #77706F",
"- c #7A736E",
"; c #616277",
": c #65627C",
"> c #69657E",
", c #6C697D",
"< c #736E75",
"1 c #726C7B",
"2 c #767074",
"3 c #7C7473",
"4 c #7F7876",
"5 c #77737C",
"6 c #7B757E",
"7 c #7E797E",
"8 c #807975",
"9 c #847E7E",
"0 c #87807E",
"q c #89827F",
"w c #666180",
"e c #6B6580",
"r c #6E6982",
"t c #726C82",
"y c #777183",
"u c #7B7581",
"i c #7E7880",
"p c #787288",
"a c #7E7889",
"s c #837C83",
"d c #857D89",
"f c #878080",
"g c #8B8481",
"h c #87808E",
"j c #8C848A",
"k c #908785",
"l c #928986",
"z c #90878C",
"x c #958B8B",
"c c #998F8D",
"v c #9C928F",
"b c #888190",
"n c #968E96",
"m c #9F9490",
"M c #9A9298",
"N c #A0948F",
"B c #A19591",
"V c #A39994",
"C c #A59C9B",
"Z c #A89E9C",
"A c #A9A39E",
"S c #A89FA0",
"D c #ACA3A2",
"F c #B0A7A4",
"G c #B2A9A6",
"H c #B5ABA8",
/* pixels */
"ccvNBvs7aaMCGGVVBmmmmmmmcl::7sxvvvvNvvs6",
"qgvNNvetDGGHGGGFBBmmmmmvg9OX:e0qqgvvBvrw",
"qqvvmxerDGGGGGGFBvmmmmmvg7@o:e0q0qvvvxr:",
"q083ttO$DGFGGGGDlgmmmmmvt,=*000qqq34yr+$",
"g0-*w:X+SGGGGGHDg0mmmmmvr:=30qqqq0==::X@",
"0g88iu;:DGGGGGGFCmllvmlkre480qqqqq88i6;:",
"qqggqqetDHGGGGGGHFg0vmq0eefgqqqqqqgqg0er",
"qqqqqserCDFGGGGGGFcczj725y0qgqqqqqq0qs,e",
"qqqgqq,tcVDGGGGFGGGDr&XO9gg0qqqqqqqqq0e:",
"qqq0s9eexmFGGGGGGGGDpeO@00qqqqqqqqqqf9,:",
"qqq0r,eeepDGGGGGGGGGDSe:90qqqqqgqqq0ree:",
"qqqseww>wrDHGGGGGGGGGDtefgqqqqq0qqq0e:e&",
"qqqqjjjjsiddFHGGGGGFCVe>3400qqg0qqqqzzzh",
"qqqgNVVNg9:eDHGGGGHGVmte=-0gqqqq0q0qvmmm",
"klllvvBvlj>tSHGFDZMnbd:$<<670g7iklllvmmc",
"vvvBNNBvBmetDHGGBcwww$XX:wwe0feevBmmmmmm",
"cNmmBBBvvxetZDSZxzt,tt%%1tet99:>cmmmmmmm",
"cBmmvvBvggeefgr>#@9gcvccccg9r>O@cmmmmmmv",
"cBmmBBBvg9,es0>:XO9gvBBBBmg9e:XOcmmmmmmm",
"cBmBBclgt1<20q97::lvcBmBBmcxxj:>vmmmmmlg",
"mBmmNNq9e:*-0qqq,ecVBNBcmmmBBveevmmmmvg0",
"lxvmxls5yi880qq011djcBNBmmmmBvddlxmmxliu",
"qsmvq9e,qqggqqq0-=:evVBBmmmmBBBvqqmvg0ee",
"ggxxss:>9qsgqqqq33,exccBmmmmNvBvggxzf7::",
"qq,eeeXO9qqqqqqqqqeesgmmmmmmBmmcg0,we:O.",
"g9eee:O+0qqqqqqqqs,>9gcmmBmBmvmmqqree:O.",
"cvxzs9::230qqqqqq9$#,ttucmmvuygjvcxlf7:;",
"NBBmg9e:*-0qqqqqq9X &w&emBBce&9qmmmmg0e:",
"vmBvxlhd110qqqq075<1hguisdsdddxxmmmmxlh9",
"BmmBBBNvre0gqqq0>e9gvNg9w&wemBBNmmmmmmmv",
"vBBvBvNvr>89g0s71tglvvjgeetycmvBmmmmmmmv",
"vBmmmNNcr,2-00e,sgmmmmNmre9gvmNBmmmmmmvc",
"BBmmmmBve:*-q9eefjvVvNNvr>ggvVvNBmmvmmBv",
"BvmmBvBc$O,,9qetxmvvvNvvrrxvvmNvmmvVmmBv",
"mmBvNBNc+X&>99>ecmmmVvVveevBBNvvmmNNmmvv",
"BmmBNvlj;:hjVVjjmmmmvNvvjddsllvVmmmmBvlj",
"BmBBvvg9:evVGGVBmmmmmmmmBmr>9gvvBBBNvvg0",
"xcvNNvsidhmCDFCVmmmmmmmmcl:;79xxxvvNBvii",
"qqvNBmerDGGGHHGFmmmmmmmmg9OX&e0g0qvvBvrr",
"qqcvvx>rDGZAAAGFmvmmmmmmg7+o:,400qvvvx,,"
};
