/* XPM */
static char *result[] = {
/* columns rows colors chars-per-pixel */
"40 40 158 2 ",
"   c #0E0E0E",
".  c #14110F",
"X  c #1D150E",
"o  c #151515",
"O  c #1B1613",
"+  c #1E1915",
"@  c #1B1B1B",
"#  c #24150A",
"$  c #2A1709",
"%  c #24180F",
"&  c #2B1A0B",
"*  c #2C1707",
"=  c #341B04",
"-  c #311B08",
";  c #3B1F03",
":  c #201710",
">  c #221A14",
",  c #281F19",
"<  c #30200F",
"1  c #3E2308",
"2  c #3F2205",
"3  c #26201B",
"4  c #342412",
"5  c #222222",
"6  c #292929",
"7  c #3D2F20",
"8  c #3E3021",
"9  c #422605",
"0  c #472806",
"q  c #4C2D09",
"w  c #492C09",
"e  c #53330B",
"r  c #58370B",
"t  c #5C3504",
"y  c #462E11",
"u  c #4C3516",
"i  c #5B3C14",
"p  c #653D09",
"a  c #5A580C",
"s  c #6B4507",
"d  c #6B470C",
"f  c #764F0E",
"g  c #754402",
"h  c #624010",
"j  c #6E4D18",
"k  c #684919",
"l  c #714F1A",
"z  c #6E5810",
"x  c #76541D",
"c  c #7A561C",
"v  c #7C5918",
"b  c #755317",
"n  c #4E6209",
"m  c #556C0A",
"M  c #68690F",
"N  c #60780A",
"B  c #767610",
"V  c #574839",
"C  c #594A3B",
"Z  c #6B4F25",
"A  c #6D522E",
"S  c #7A5721",
"D  c #6D5638",
"F  c #735A34",
"G  c #7A6B24",
"H  c #7C7424",
"J  c #745E42",
"K  c #74614C",
"L  c #885303",
"P  c #925D06",
"I  c #825A15",
"U  c #815D1A",
"Y  c #95620D",
"T  c #8A611A",
"R  c #926C1F",
"E  c #A46F11",
"W  c #A3731C",
"Q  c #876322",
"!  c #886421",
"~  c #87662C",
"^  c #8B6628",
"/  c #936C25",
"(  c #987126",
")  c #95722A",
"_  c #9B742A",
"`  c #9E782D",
"'  c #997622",
"]  c #A77827",
"[  c #A07A2D",
"{  c #A57F31",
"}  c #867042",
"|  c #937C54",
" . c #8B7C65",
".. c #758F16",
"X. c #7E863D",
"o. c #81941D",
"O. c #879718",
"+. c #90AD1D",
"@. c #A1BF1F",
"#. c #808A26",
"$. c #898030",
"%. c #948031",
"&. c #BB8A2C",
"*. c #BE9A29",
"=. c #AA8333",
"-. c #AF8835",
";. c #A88636",
":. c #B48D3A",
">. c #BA8F39",
",. c #B68B35",
"<. c #BF9037",
"1. c #B49F35",
"2. c #9BA321",
"3. c #BDBD2C",
"4. c #ADA031",
"5. c #B9AC32",
"6. c #C4953A",
"7. c #DFB73E",
"8. c #ACC023",
"9. c #AA9144",
"0. c #B29047",
"q. c #B89D45",
"w. c #ABA04F",
"e. c #B3A04D",
"r. c #939570",
"t. c #A38C64",
"y. c #B6A067",
"u. c #BFB36E",
"i. c #BAA57A",
"p. c #C29B45",
"a. c #C29C48",
"s. c #C99B41",
"d. c #CBA047",
"f. c #C7A04A",
"g. c #D6AD47",
"h. c #C4A950",
"j. c #D2AC52",
"k. c #DBB45B",
"l. c #C7AD65",
"z. c #D4BE6E",
"x. c #DDBF76",
"c. c #E2BA61",
"v. c #D4C277",
"b. c #DFC27F",
"n. c #EAC267",
"m. c #EFC86F",
"M. c #EBC56B",
"N. c #ECC770",
"B. c #7DA09E",
"V. c #BAAC91",
"C. c #A9B291",
"Z. c #D4CC97",
"A. c #F5D484",
"S. c #FFDC8D",
"D. c #E8D4A5",
"F. c #FCE3A6",
"G. c #FFE9B2",
"H. c #FFF2CE",
/* pixels */
"o o @ 5 @ o o @ @ @ @ 5 @ @ @ o @ 5 5 5 5 @ o o @ @ @ @ 5 @ 5 5 @ @ @ o @ @ @ o ",
"o o @ 5 @ o o 5 @ o o @ @ @ @ o @ @ @ 5 5 5 @ o @ 5 @ @ @ @ 5 5 o o @ @ 5 5 o o ",
"o o @ @ @ o @ 5 @ o 5 @ @ @ 5 5 5 @ @ 6 5 @ @ @ @ 5 @ o o @ 5 5 @ 5 @ 5 5 @ o o ",
"o @ o o o o @ @ @ @ 5 5 5 o @ 5 5 5 5 5 @ 5 5 @ o o o o o @ @ @ @ 5 5 @ o o o 5 ",
"@ @ @ @ o @ o @ @ o @ 5 5 o o 5 5 @ 5 5 @ @ 5 @   @ 5 @ o 5 @ 5 @ @ @ o o o o @ ",
"o @ @ @ @ 5 o @ @ o o @ @ @ 5 @ @ o o @ @ @ @ @ o @ 6 @ @ @ o 5 5 o o o o o o o ",
"@ 5 @ @ 6 5 @ @ 6 5 o @ @ @ 5 5 o @ @ @ o o @ @ @ @ @ @ @   o @ @ o o @ @ o o o ",
"@ @ @ @ @ 5 5 @ 5 @ o @ 5 5 6 o @ @ @ 5 5 @ o @ 5 5   @ @ o 5 5 @ o o   o @ @ @ ",
"o @ 5 o @ o o o @ @ @ 6 5 5 @ o @ @ @ o @ 5 o o o o o o o o @ o @ 5 @ @ o o o o ",
"o @ @ o @ @ 5 6 6 @ @ 6 o @ o 5 o o @ o & & # o o o @ o @ 5 @ o @ 5 @ o o     o ",
"@ @ @ @ @ @ @ @ @ @ 5 5 @ 5 @ 5 o @ 5 X V.i.y.& 5 5 @ @ @ @ 6 o o @ o o o @ o 5 ",
"@ @ @ 6 6 o o @ o @ @   o 6 o o @ @ @ @ V D.A.c.~ 4 O o o   @ 6 5 @ @ 5 @ @ @ 6 ",
"@ o   @ @ @ @ @ @ o o o 5 5 @ , @ 6 5 @ >  .D.m.k.~ y O o @ @ @ 5 o o o @ @ o 5 ",
"@ o o o @ @ @ o o o o o o o o o @ o @ @ u Z F F.c.c.;.y > 5 @ @ 5 5 @ o o o o @ ",
"o @ @ o @ 5 @ @ 5 @ @ @ o o @ @ @ + 7 F 9.%.) A A.x.c.q.S > o o 5 5 @ o @ @ @ o ",
"o 5 @ o o @ @ o o o @ o @ @ @ @ X J t.v.m n H c | x.M.0.^ * @ o o o o @ 5 5 @ o ",
"5 o o @ o @ @ @ o   @ 5 @ @ & V V.Z.X.o.@.2...G x Z l.i e 0 - O o @ o o 5 @ o @ ",
"@ 5 @ @ @ o @ o o @ 5 > 7 K H.G.F.N @.3.5.s.C.B._ ) r U { r - > o 5 o o o @ @ @ ",
"@ 5 5 @ @ o @ o 5 @ 3 F t.Z.l.v.S.#.2.g.6.&.6.r.I ;.c { ` 1 > 5 o o o o @ @ @ @ ",
"@ @ 5 5 @ o o 5 5 % } m.v.o.O.o.z.q.m 1.E P P ] s ) ( l w > @ @ o o @ @ 5 5 5 5 ",
"5 5 5 5 @ o @ 6 3 9.j.e.B 7.*.O.h.M 4.,.L p t d ) / i @ @ @ o 5 o o @ @ @ @ @ 5 ",
"6 @ @ @ @ o o @ > 9.6.k.>.W d.j.c.;.I P p U ^ / S 4 > o 5 @ o 5 @ o @ o o o @ 5 ",
"@ @ o 5 @ @ @ o X 4.j.f.=.s.n.n.c.a.Q p g { :.i & @ o o @ @ o @ @ o @ 5 @ @ @ @ ",
"o o @ 5 5 @ 5 o @ X k T / p.$.a [ a.a.:.{ y $ @ o o o . o @ @ @ @ o o o o o o o ",
"o @ @ @ o @ 5 o @ @ > j { a.z ' s p.:.c y @ @ o o o   @ o @ @ @ @ @ @ o o o o o ",
"o @ 5 @ o 5 6 @ o @ @ 4 S p.' f v -.! q 0 O o o @ o o @ o @ @ @ o o @ 5 5 5 @ @ ",
"o @ @ @ @ @ 5 5 o o @ o O k =.=.[ b 9 i 9 # . @ @ o @ @ o @ @ @     @ 6 5 o   @ ",
"@ 5 o o @ o   o o o @ 5 @ O j / R q 9 9 p ; : @ @ @       @ o     o 5 @ o o o @ ",
"o o @ 6 5 5 @ @ o o o o @ o & e U = w q q $ . @ @ 5 @ o o   @ @ o @ @ o   o o o ",
"o o 5 5 @ @ @ 5 @ o o o o @ @ @ # * = 9 > o 5 5 5 @ 5 @ o   o @ o o @ @ @ @ o o ",
"@ o @ o o o o o o @ o o o   @ o o @ # : @ @ @ @ @ o o @ o @ @   o o o o @ @ @ 5 ",
"@ o o o o @ @ @ 5 @   o o o @ o @ 5 5 @ 5 5 5 @ @ o   . o   o @   o 5 o @ @ o 5 ",
"5 @ @ @ 5 5 o o o @   o o o @ o o @ @ @ @ o     o o o o o @ o 5 o o o 5 5 o o o ",
"5 6 5 o @ @ o o o 5 o @ @ o o   @ o o @ o o o @ @ @ 5 o o 5 @ @ @ o o o o o @ @ ",
"@ @ @ o o   o @ o 5 @ @ @ 5 @ o @ o @ @ @   o o @ @ o   @ @ o o o o     o o o @ ",
"@ 5 @ o o 5 @ @ o o o @ o o 5 @ @ o o @ @ o o @ o o o   o @ o o @ o     o o @ @ ",
"@ 5 @ o 5 @ o o o o 5 5 @ o o 5 5 o o o @ @ @ 5 o @ @ @ @ @ o   o o o o @ @ @ @ ",
"@ o o o @ o o o o o o 5 o o o @ @ o o o @ @ @ @ o @ 5 o o @ o o o o o o o o o @ ",
"o @ @ o o @ o o @ o o o   o @ o o o 5 @ @ @ @ o o o o @ o o o   o o @ o o o o @ ",
"  o @ o o @ 5 o @ @ @ o o @ @ o o o 5 5 5 @ @ o o o o 5 5 @ 5 o o @ 5 5 @ o o o "
};
