/* XPM */
static char *result[] = {
/* columns rows colors chars-per-pixel */
"40 40 107 2 ",
"   c #1D1A18",
".  c #1F222E",
"X  c #252427",
"o  c #252428",
"O  c #242836",
"+  c #2C2B34",
"@  c #313235",
"#  c #36383F",
"$  c #38393F",
"%  c #2E2E40",
"&  c #332D46",
"*  c #323342",
"=  c #393A41",
"-  c #37324C",
";  c #393C4D",
":  c #3D3E51",
">  c #3F4245",
",  c #3D4152",
"<  c #424548",
"1  c #424354",
"2  c #49465C",
"3  c #47485E",
"4  c #4A4663",
"5  c #4C4B64",
"6  c #534B65",
"7  c #554C6C",
"8  c #4F5268",
"9  c #535366",
"0  c #56556D",
"q  c #59566F",
"w  c #5A5670",
"e  c #5C5A73",
"r  c #5F5F78",
"t  c #625276",
"y  c #635C77",
"u  c #6C547C",
"i  c #655E7A",
"p  c #695C7B",
"a  c #616277",
"s  c #63627B",
"d  c #6A627E",
"f  c #67697F",
"g  c #6D5F80",
"h  c #6D6582",
"j  c #6D6985",
"k  c #6F6A88",
"l  c #726584",
"z  c #796587",
"x  c #726986",
"c  c #776788",
"v  c #786788",
"b  c #756C8A",
"n  c #7B6D8D",
"m  c #74738E",
"M  c #7C708F",
"N  c #7D6F90",
"B  c #777591",
"V  c #7F7191",
"C  c #7D7997",
"Z  c #7E7C99",
"A  c #866F91",
"S  c #817393",
"D  c #867897",
"F  c #897996",
"G  c #867698",
"H  c #857C9B",
"J  c #8B7D9B",
"K  c #83809F",
"L  c #8F809E",
"P  c #91829E",
"I  c #8582A1",
"U  c #8D85A6",
"Y  c #8B8FA4",
"T  c #8E8AAA",
"R  c #9586A2",
"E  c #9B8BA7",
"W  c #928CAD",
"Q  c #8F90AE",
"!  c #9C93AF",
"~  c #939AA9",
"^  c #968FB1",
"/  c #9494B3",
"(  c #9B94B4",
")  c #9C97B9",
"_  c #9C9BBB",
"`  c #A196B5",
"'  c #A098B7",
"]  c #A19BBD",
"[  c #9CA3B2",
"{  c #A3A4BC",
"}  c #ABA5BF",
"|  c #9F9FC0",
" . c #A19FC0",
".. c #9FA0C1",
"X. c #A2A1C2",
"o. c #A8A6C2",
"O. c #ABAEC4",
"+. c #A7A6C8",
"@. c #B2B7CA",
"#. c #B7BDCE",
"$. c #B7C0CE",
"%. c #BDC5D6",
"&. c #C1C3D5",
"*. c #C4CCDA",
"=. c #C9CDDE",
"-. c #CAD2E2",
";. c #D3D9EA",
/* pixels */
"o : 3 9 9 0 w e y s d H Z Y [ ~ 9 * ; .   + ; , , 1 , , , : % % ; : , : , , : O ",
"o 2 s d f d s s i a a y e q 7 7 d j d 9 * 2 i h s h h h h s 8 B B d h h h f i q ",
"+ b C M V S V S S S S S S V S V V V S x 5 m S b j k N V S c e ..) z V S V b b N ",
"$ ) U v S V S V S S M S S S V S V V G x s _ T d k V V V H x r _ ) n S V b j B N ",
"= _ U c S V V V n A M M A n M M V V S x s X.^ l V L P P J n c k / ) N N V x x k ",
"$ _ U v V V V V S S M S M S S S V N S l s | W l S R E P H J S i Z W N N V N N l ",
"= _ U v S V V V S n S n M S M M V N S l s ..W x J R P D J P S S n h B V V V S N ",
"= _ T v V S V V S n S S S M A S V V G x s ..^ V R R D J J n n S N n b V V V S N ",
"= _ U v S S M n S S S n S S n n S N S x s ..^ v D R R J A n N S b b V V V V C N ",
"= _ R v S n S S S n A S M S S S N N G x s ..^ c S H H v H +. .m h V V V V V V k ",
"= _ U c S S S S S M M M S M S M S n S l s | ^ x v z l U / Q W m x S V V N b M h ",
"= _ U c S n S n S S M S M M A S S V S x s X.( V W U U ) T 6 2 n S V V V b k k h ",
"= _ U v S M S S n S n S S A S M N S S z r _ U I +.+.+.U b n r x V V V V S b x x ",
"$ _ U v S S n S n S S M M M M M S n V c r s r j C C C B n S n a h V V V V V V n ",
"= _ U v S S M M S M S S M M S A V V D x r I H h c x x V S V S c d h S V V V S n ",
"= _ U v S M S S A M M S S S M S V V S h s +.( l N S S V V V V S k h N V V V S n ",
"= _ U v S S V V S S S S S S S S S S S x s | T h k N V C N N S V S S c M V V S n ",
"= _ U z N N N N n M n V n M n V N n S l a X.T y j h h b N N N N N N n x b V S n ",
"< #.W u V n n n n n n n n n n n n n S g f %.{ t h h h h j l N N n n n n b b S n ",
"> =.-.o._ ] | | ] ] ] ] ] ] ] _ ]  .( p r -.;.O.) ) _ ) ) ) ] _  ._ ] _ I n G N ",
"@ [ #.{ / / / / / / / / / / / / ( / I 6 1 [ #.O./ / / / / / / / / / / / C d x y ",
"X - 5 q w 0 0 0 q w e e w e w q 0 w 0 1 + & 4 0 w 0 w 0 0 0 0 e e w q e e e q 2 ",
"O i h h h h j j h x n n M n v h h h x i 2 i h h h h h h h h j n n c h n b x b h ",
"$ / H h x n B b b V V V S S S V V b M d y ) T h k k B V M b N S S S S S S M V x ",
"= _ I d n x V M n S S J F n S S J S n d s +.T h B N N S N n c B M S n n S N N c ",
"= _ K d M n V V S n S J F n n S P J H z s  .T l S N S N S N b n S S S S n D H V ",
"= _ I d M V V V S n S n V V S n n P U d s | T h N S N S S N S V V V V V n J R v ",
"= _ K l V V V V S n S S V V M S N S V i s ..^ c S N S N n S N S V V V S S S N x ",
"= _ K h S V V V S S n n S M S V S c b s s ..^ n S n n S S S S n V V V V V n c j ",
"= _ I z S V V S n S S S S S M V V n M p s ..^ c A S S S S n S S V S V V V V b j ",
"= _ U c V V V V S S n S n S V V V S V i s X.! v n M n S S S S n V V V V V V V h ",
"= _ U h M V V V n S S S n S V V N V V s a X.W v M S S S n n S S V V V V V V V x ",
"= _ U c S M S S S n n S S S n n b n S j a X.( v S S M S V V V V V V V S V V V n ",
"= _ U v S M S n S S S S n S S S M b V c a | ` S n V S n V V S V V V S n V V S M ",
"$ _ W A S S M S n n S S S S S n S c n h s ..) S n S S S V V V A n S S S V V V c ",
"# _ ` S n S M n S S S n n n S S M b c i s ..( n S n S n M V V n S S n n M V M j ",
"# _ ! D M S D S S M M A S n S n n k b p s { ' F n S S S S n n S S n M b M n x x ",
"$ ( U F J S P R F M M S S S M v l h B l s ] ] F N n N J J N A S S n c n n j b n ",
"< @.! z F J P P P D v n n v d d h l N g h $.} A F n F P P J n n v d d l d l c x ",
"< *.&.! W ' ' ` ` ( W W W T T W T T U e a *.=.} ` W ( ' ' ' ^ W W T W W T W W c "
};
