/* XPM */
static char *result[] = {
/* columns rows colors chars-per-pixel */
"40 40 191 2 ",
"   c #040505",
".  c #0D0D0D",
"X  c #070809",
"o  c #150C05",
"O  c #150808",
"+  c #1B170C",
"@  c #151105",
"#  c #0F1010",
"$  c #151515",
"%  c #1B1B1B",
"&  c #1D1913",
"*  c #28160B",
"=  c #3A130F",
"-  c #221E13",
";  c #201E1A",
":  c #2C1918",
">  c #3F1A14",
",  c #391C1B",
"<  c #29210D",
"1  c #262116",
"2  c #2C2213",
"3  c #23201B",
"4  c #2B251B",
"5  c #2E281C",
"6  c #332B1B",
"7  c #372915",
"8  c #3E3114",
"9  c #3E321B",
"0  c #3A2908",
"q  c #222222",
"w  c #2A2622",
"e  c #2B2925",
"r  c #2A2A29",
"t  c #312620",
"y  c #342B27",
"u  c #3D3421",
"i  c #323137",
"p  c #511B12",
"a  c #7F1A15",
"s  c #412E05",
"d  c #49340A",
"f  c #5C2419",
"g  c #42351A",
"h  c #49381A",
"j  c #523812",
"k  c #4F330F",
"l  c #682713",
"z  c #7D2912",
"x  c #7A2114",
"c  c #653713",
"v  c #793E10",
"b  c #4C392C",
"n  c #453627",
"m  c #513B2E",
"M  c #583627",
"N  c #4B3C36",
"B  c #682B21",
"V  c #6A392C",
"C  c #723326",
"Z  c #7B392A",
"A  c #594315",
"S  c #684908",
"D  c #6F500C",
"F  c #775409",
"G  c #674D17",
"H  c #7B4C11",
"J  c #6D5014",
"K  c #745513",
"L  c #795A18",
"P  c #5C4624",
"I  c #664835",
"U  c #754230",
"Y  c #6C513E",
"T  c #755238",
"R  c #6B5525",
"E  c #7E623F",
"W  c #353941",
"Q  c #443D43",
"!  c #583C45",
"~  c #3F4041",
"^  c #574F49",
"/  c #55555B",
"(  c #6D5642",
")  c #725642",
"_  c #764251",
"`  c #7F6349",
"'  c #4C4E69",
"]  c #5F5C76",
"[  c #665761",
"{  c #746E71",
"}  c #8D1E17",
"|  c #841B16",
" . c #911B17",
".. c #941B19",
"X. c #981E18",
"o. c #862317",
"O. c #912F13",
"+. c #9A2B17",
"@. c #9A251B",
"#. c #942717",
"$. c #983615",
"%. c #A1381A",
"&. c #813229",
"*. c #944C0F",
"=. c #855F0F",
"-. c #885D0F",
";. c #99530E",
":. c #8F4710",
">. c #9A4915",
",. c #9B5413",
"<. c #A5540F",
"1. c #A34616",
"2. c #A95513",
"3. c #8D630C",
"4. c #976C0E",
"5. c #9D6E0A",
"6. c #9E700F",
"7. c #856219",
"8. c #956C18",
"9. c #9E7419",
"0. c #AE7A0B",
"q. c #A67309",
"w. c #AC6414",
"e. c #B6671D",
"r. c #A67815",
"t. c #B37E13",
"y. c #BA7A15",
"u. c #884D38",
"i. c #89593F",
"p. c #956C2A",
"a. c #C26E1F",
"s. c #C4711F",
"d. c #8D5E42",
"f. c #865C53",
"g. c #A45A42",
"h. c #8E6248",
"j. c #96684B",
"k. c #866B55",
"l. c #8E705E",
"z. c #B76E51",
"x. c #A77756",
"c. c #B27B58",
"v. c #B1694C",
"b. c #907364",
"n. c #C06F4F",
"m. c #C8795B",
"M. c #BD8514",
"N. c #B98619",
"B. c #B68620",
"V. c #BB9136",
"C. c #C28A15",
"Z. c #C18B18",
"A. c #CA8B1B",
"S. c #C18518",
"D. c #C89017",
"F. c #C7901A",
"G. c #CC931B",
"H. c #D1961D",
"J. c #D49A1E",
"K. c #D28F21",
"L. c #D49221",
"P. c #D99E21",
"I. c #D49B20",
"U. c #DDA222",
"Y. c #B3835F",
"T. c #9F8B7C",
"R. c #B98962",
"E. c #A28776",
"W. c #D19D5C",
"Q. c #C58B64",
"!. c #C9936B",
"~. c #C89771",
"^. c #D79C71",
"/. c #CCA078",
"(. c #D9A175",
"). c #DAA578",
"_. c #E4AA7C",
"`. c #626B81",
"'. c #7E8185",
"]. c #7C87A0",
"[. c #989094",
"{. c #868EA6",
"}. c #B5B4B8",
"|. c #CFA786",
" X c #EBB585",
".X c #E5B081",
"XX c #E9BE93",
"oX c #DFBCA2",
"OX c #DBC79B",
"+X c #F2CFB1",
"@X c #D8CCC5",
/* pixels */
"$ $ % q % $ $ % % $ % q $ % q $ % q q q q % $ $ % % % % q % q q % % $ $ % % % $ ",
"$ $ % q % $ $ q % # % q $ % % $ % % % q q % % % % q % % % % q q $ % % % q q $ $ ",
"$ $ % % % $ % q % $ q % % % q % q $ $ r q % q % % q $ $ $ $ q q % q % q q % $ % ",
"$ % $ $ $ $ % % q % q q q $ % r q q q r q % q % $ $ $ $ $ q % % % q q ; % $ $ % ",
"$ % % $ $ % $ % % $ % q q $ % q e 5 5 y 6 5 w % # $ q $ $ q % q % % % $ $ $ # % ",
"$ % q % q % $ % q $ # % % % q 9 L B.r.3.B.4.A 1 $ q r % % % % q % $ $ $ % $ $ % ",
"% q % q q q % % r q $ % % A 7.7.9.G.I.F.U.G.9.A 1 q q % % . $ % % $ # % % $ $ $ ",
"% % % q % q q % q % $ q g 7.N.C.N.J.U.P.F.J.M.H k ; # $ % $ q q % % $ # $ $ $ % ",
"$ % q $ % % $ % % % ; u L N.G.J.J.U.J.H.M.D.y.:.f p : g h 7 % $ % q % % $ $ % $ ",
"$ % % $ % % % r q q 5 G t.D.D.J.U.U.J.C.J.s.<.O.a l H 8.9.=.8 - ; q % $ # # # $ ",
"% % % % % % % % % % g 7.A.J.J.J.U.U.J.H.J.2.$. .O.,.t.H.H.M.L 7 7 % $ $ % % $ % ",
"% % % r r $ $ % $ 1 G q.J.U.U.U.U.U.U.J.e.$.o.O.,.y.G.P.G.N.J n n % % % % % ; r ",
"% $ . % % % % % % 2 4.G.H.J.U.U.U.J.D.s.X.| z ;.M.J.J.D.N.S 5 % q $ $ $ % $ $ q ",
"% $ $ $ % % % $ $ < -.Z.C.C.H.L.K.s.<.+.o.o.*.y.G.J.M.5.S < $ % r % $ $ $ $ % % ",
"$ % % $ % q % % q 3 g -.M.S.w.1.%.+.+.X.o.;.t.G.D.M.q.S + & $ # % r % $ % % % $ ",
"$ q % $ $ % % $ $ $ 2 c :.>.+.@... .$.a.e.S.C.M.5.S 0 < X % % % % $ $ % q q $ $ ",
"% % $ $ $ $ % % $ + j v z |  . .+.1.e.J.F.F.6.8.p.P + X # q # $ $ % $ $ q % % % ",
"% % q % % % $ $ $ 6 3.q.,.>.%.>.w.M.G.G.0.V.R ` Y.Y.b . % 3 % % $ % $ $ % % % $ ",
"% q q % % $ $ % % 6 4.A.H.K.H.K.G.C.0.0.0.OX{ ` ~./.Y $ X % % q $ % $ $ $ % % % ",
"% q q q % % % q P r.C.C.J.P.H.C.0.q.F d W.XX|.~.).!.Y % # % % % $ $ % % q q r q ",
"q q q q % % % q P N.M.C.J.H.M.q.F d j P .X X X X(.x.b % % % $ q $ % $ $ % % % q ",
"q q % % % # $ % g J K K L K S d 0 7 T R. X.X_.^.Y.Y 5 % q % $ q $ $ % % $ $ % q ",
"% % $ q % % $ $ 3 1 4 < + o O O * M j.^.^.Q.Q.~.k.u % $ % % $ % % $ % % % % % % ",
"$ $ % q q q q % $ $ % % .     O p V h.Y.Q.h.h.l.^ r # # $ % % % % $ % % $ $ $ $ ",
"$ % % % $ % q $ $ % % % % . O = B u.d.d.Q.Y m y q $ . $ $ % % q % % % $ $ % $ $ ",
"% $ q % $ q r % $ q % $ q O : f u.x.g.Z m.V : i r $ $ % $ % % % $ $ % % q % % % ",
"$ % % % % % q q # $ % % $ # , C z.^.n.@...| p N r $ % % $ % % $ . # % r q $ $ % ",
"% q $ $ % # # $ $ $ % q q # , &.z.!.c.c.....>.c 6 q # $ # % $ # . % % % $ $ $ % ",
"$ $ % q q q % % $ $ $ $ q # : C g.!.).(.a  .o.f t q ; $ $ . % % $ % % % # # $ $ ",
"% $ q q q % % q % $ $ $ . % y ! f.R..X^.Z o.O.c t q q % # $ $ % $ $ % % % % $ $ ",
"% $ q $ $ # $ $ $ % $ $ # # W ' { b.R.x.[ _ Z h ; % % % % $ % . # $ % $ % % % q ",
"% $ $ $ $ % % % q % # $ $ $ W `.{.[.E.b.].] Q w ; $ . $ % % $ $ . % % $ % % $ q ",
"q q % % q q % $ $ $ # $ $ $ ~ '.}.@X@X@X}./ q $ $ $ $ $ % % $ % % $ % % % % $ $ ",
"q q q $ % % $ $ $ q $ % % $ r ^ T.oX+X+X|.( t ; % % q $ $ % % % % $ $ $ $ $ % % ",
"% q $ % $ # $ $ $ % q $ % q % % b ) ` ` T b 4 % % % $ . % % % $ $ $ . . $ $ $ % ",
"$ % % $ $ q % % % $ $ % $ $ q % % . X X X $ $ % $ $ $ # % $ $ $ % $ . $ $ $ % % ",
"q q % $ q % $ $ $ $ % r % $ $ q q $ # $ $ $ q % $ % % % q % $ # $ $ $ $ % % % % ",
"% $ % $ $ $ $ $ $ $ % q $ $ $ % % $ $ $ % % % % $ % % $ $ % $ . $ $ $ $ $ $ $ % ",
"$ % % $ $ $ % $ % $ $ $ # $ % $ $ $ q $ % % % % $ $ $ % % % $ . $ $ % % $ $ $ % ",
"# $ $ $ % % % % $ % % $ # % % $ $ $ q q q q $ % $ % $ % % % % % $ ; q % % $ $ $ "
};
