/* XPM */
static char *result[] = {
/* columns rows colors chars-per-pixel */
"40 40 140 2 ",
"   c #0F120F",
".  c #0F1212",
"X  c #151514",
"o  c #1B1516",
"O  c #1A1A15",
"+  c #141619",
"@  c #1E1718",
"#  c #1F1818",
"$  c #211616",
"%  c #211D15",
"&  c #211718",
"*  c #261918",
"=  c #29191A",
"-  c #331D1E",
";  c #3D1E1E",
":  c #2F2915",
">  c #2D2318",
",  c #2F2819",
"<  c #332917",
"1  c #302718",
"2  c #3F201F",
"3  c #33291B",
"4  c #3E2D1D",
"5  c #3E1F20",
"6  c #3D2021",
"7  c #42231F",
"8  c #43351E",
"9  c #4C2424",
"0  c #432E21",
"q  c #4F2C24",
"w  c #552626",
"e  c #552D26",
"r  c #562629",
"t  c #592729",
"y  c #5F2B2E",
"u  c #423521",
"i  c #4A3C24",
"p  c #573627",
"a  c #5A3B26",
"s  c #5A3928",
"d  c #632C2A",
"f  c #6E2F2F",
"g  c #6C2F30",
"h  c #6E3130",
"j  c #743132",
"k  c #7B3232",
"l  c #514026",
"z  c #5F4B27",
"x  c #5F4B28",
"c  c #614A27",
"v  c #624B2A",
"b  c #6C4B2D",
"n  c #6F562D",
"m  c #71552D",
"M  c #715931",
"N  c #7E6234",
"B  c #823433",
"V  c #843B32",
"C  c #8F393A",
"Z  c #933736",
"A  c #903A3B",
"S  c #A53B3B",
"D  c #834132",
"F  c #874C37",
"G  c #8A5334",
"H  c #A7483A",
"J  c #8E6035",
"K  c #936E37",
"L  c #926739",
"P  c #9B633A",
"I  c #946E38",
"U  c #927036",
"Y  c #A2743F",
"T  c #A47C3F",
"R  c #9E4040",
"E  c #A44042",
"W  c #AD4444",
"Q  c #B54544",
"!  c #B94645",
"~  c #B64A42",
"^  c #BC4B41",
"/  c #A37C43",
"(  c #C54947",
")  c #CD4D46",
"_  c #CE4B4B",
"`  c #D14D47",
"'  c #D24A4A",
"]  c #CF5144",
"[  c #CE5048",
"{  c #C25F48",
"}  c #CF5848",
"|  c #D15246",
" . c #D35B46",
".. c #D35349",
"X. c #D45B49",
"o. c #C86D49",
"O. c #D56247",
"+. c #D76B45",
"@. c #D5634A",
"#. c #D96549",
"$. c #DA6A4A",
"%. c #CC7749",
"&. c #CA7C4B",
"*. c #DD7547",
"=. c #DD7F47",
"-. c #DE744B",
";. c #D47F4A",
":. c #DE7D4B",
">. c #E17F4D",
",. c #BC8A3F",
"<. c #B68944",
"1. c #BD8940",
"2. c #DE814D",
"3. c #CF924E",
"4. c #D5924F",
"5. c #D39E4D",
"6. c #D49351",
"7. c #E0834B",
"8. c #E38A4C",
"9. c #E6954E",
"0. c #E8954E",
"q. c #E69A4D",
"w. c #E99A4E",
"e. c #E78F51",
"r. c #E99551",
"t. c #EB9C51",
"y. c #D9A24E",
"u. c #D8A251",
"i. c #EFA44F",
"p. c #E6AC4F",
"a. c #EFAE4F",
"s. c #F1AF4F",
"d. c #EEB14F",
"f. c #F1B04E",
"g. c #EEA451",
"h. c #E6AA51",
"j. c #EEAE50",
"k. c #F1AE51",
"l. c #EEB050",
"z. c #F1B050",
/* pixels */
"X X X X X X + X X X X X X X X X X X + X X X X X X X X X + X X X X X X o X X X X ",
"< 8 8 8 u 8 8 0 2 = X O u u 8 8 u 8 4 9 6 0 8 8 8 8 6 6 # + > 8 8 u u 8 8 4 5 5 ",
",.j.j.j.j.j.j.@._ k X 1 h.d.s.j.j.j.g.( _ 9.l.k.l.t.[ _ 2 X n a.j.l.l.z.z.2.) ' ",
",.k.j.k.k.k.k.@.` k X 1 h.f.k.k.l.j.g.` ' r.k.k.k.t.` _ 2 X n j.z.z.z.z.l.7.' ' ",
"H X.X.X.X.X.X.` ' k X 1 p.s.-.X.X.X.X.' ' ..X.X.X.X.' _ ; X n d.i.X.X.X. ...' ' ",
"S ' ' ' ' ' ' ' ' k X < h.k.#.' ' ' ' ' ' ' ' ' ' ' ' ' 2 X n d.i.` ' ' ' ' ' ' ",
"S ' ' ' ' ' ' ' ' k X > ;.7.X.' ' ' ' ' ' ' ' ' ' ' ' _ 2 X n a.i.' ' ' ' ' ' ( ",
"S ' ' ' ' ' ' ' ' k X = _ ' ' ' ' ' ' ' ' ` ' ' ' ' ` _ 2 X n f.i.' ' ' ' ' ' ~ ",
"Z ! ! H ! ! Q Q Q f X = W ! Q ! ! ! ! ! ! ! ! ! ! Q Q Q 2 X v 5.4.Q ! Q ! ! Q E ",
"o $ $ = & & $ $ $ O X X $ $ $ $ $ $ $ $ $ $ $ $ $ $ $ $ X X O O % $ $ & $ $ $ # ",
"  X o o X X X O O X X X X X X X X X X X X X X X o X X X X X X X X X X X X X X X ",
"  X i L I B B G U G B V K U U U G B j @ X m K U K K K K D B G U U U U D B w X # ",
". X n z.g.| _ 9.d.2.' X.j.a.z.d.>.' Q o X <.s.s.f.s.z.j.O.' -.s.f.f.a.O.' k X * ",
". X m d.g.| ' 7.q.-.' ..0.0.w.r.+.' Q o X <.f.f.f.j.w.r. .' $.w.0.w.w. .' k X = ",
". X m j.g.` ' ` ` ` ' _ ` ` ' ` ` ' Q o X <.z.k.f.w.` ` ' ' ' ` _ ` ' ' ' k X = ",
". X m k.g...' ' ' ' ' ' ' ' ' ' ` ' Q o X <.z.z.z.t.` ' ' ' ' ' ' ' ' ' ' k X = ",
"X X m z.g.` ' ' ' ' ' ' ' ' ' ' ' ' Q o X <.f.8.O. .' ' ' ' ' ' ' ' ' ' ' k X = ",
". X m z.g.` ' ' ' ' ' ' ' ' ' ' ' ' Q @   ,.f.8.' ' ' ' ' ' ' ' ' ' ' ' ' k X * ",
". X i / / C Z C C C C C C C C A A A k X X N T P A A A A C C C C Z A A A C t X $ ",
". X X X X X X X X X o X X X o X X X + X X X O o X X X X X o X X X X X X X X X X ",
"o $ $ % % % % @ $ @ X X * % % % % % % % % % = % % $ & & X X o % % % % % % & & * ",
"Z ! o.y.y.y.u.o.! f X > 5.5.y.y.y.u.q.5.y.y.5.5.y.6.^ ! ; X v y.y.5.y.y.y.;.! ! ",
"S ' >.s.s.k.k.#._ k X 3 h.s.k.k.s.s.s.s.f.i.s.s.f.t.) ' ; X M f.s.s.s.s.s.>.' ' ",
"S '  .-.-.-.-...' k X , p.k.7.>.>.-.-.-.>.>.>.+.>.$.` ` ; X n f.a.*.-.-.-.@.' ( ",
"S ' ' ' ' ' ' ' ' k + 3 h.l.#.' ' ' ' ' ' ' ' ' ' ' ' _ 5 X n a.g.' ' ' ' _ ' ! ",
"S ' ' ' ' ' ' ' ' k X , h.z.$._ ' ' ' ' ' ' ' ' ' ' ' _ 5 X b 0.e.` ' ' ' ! S A ",
"S ' ' ' ' ' ' ' ' k X : h.l.#.' ' ' ' ' ' ' ' ' ' ' ' _ ; X d ` ' ' ' ' ' k $ @ ",
"S ' _ _ _ _ _ ' [ k + , h.l.#._ _ ' ' _ _ _ _ _ ' _ _ _ 5 X y _ _ _ _ _ ' k X X ",
"; 9 9 9 9 9 9 9 9 = X O l l q 9 r 9 9 9 9 9 9 9 9 9 9 9 # X = 9 9 9 9 9 9 - + X ",
"  X X X + + + + X + X X X X X X + + + + X X X X X X X X X X X X X X X X + X X X ",
"  X 3 v c c a v x a r w x v x x s r 9 + X i v s r w w r w w p v c v z e w 5 X o ",
"  X n j.s.k.k.k.j.2._ } j.j.j.l.:._ Q @ X <.j.8._ ` _ _ _ _ -.l.j.j.j.X._ j X = ",
". X n a.s.j.s.s.j.>.' ] j.k.k.j.:.' Q o X <.f.8.` ' ' ' ' ' $.k.k.s.k.X.' k X = ",
". X m a.s.s.j.+.[ ' ' ` | | | ` ) ' Q o X <.f.a.j.r.) ' ' ' '  .' | | ' ' k o = ",
". X n a.j.j.j.#.' ' ' ' ' ' ' ' ' ' ! o   <.f.d.k.t.) ' ' ' ' ' ' ' ' ' ' k X = ",
". X n s.j.7.>.X.' ' ' ' ' ' ' ' ' ' Q o X <.f.w.>.>.` ` ' ' ' ' ' ' ' ' ' k X = ",
"  X m f.g.| ' ' ' ' ' ' ' ' ' ' ' ' Q o X <.j.8.' ' ' ' ' ' ' ' ' ' ' ' ' k X = ",
"  X v 5.6.~ ! Q ! ! ! ! ! ! ! ! ! ! H o X / 5.%.Q ! ! ! ! ! ! ! ! ! Q Q ! f X * ",
". X X X o o o o o o X o o o o o X o X X X X X X o o o X o o o o o o o o X X X X ",
". X X X X X X X X X X X X X X X X X X X X X X + X X X X X X X + X X X X X o X X "
};
