/* XPM */
static char *result[] = {
/* columns rows colors chars-per-pixel */
"40 40 10 1 ",
"  c #AA3838",
". c #F47F14",
"X c #E7462A",
"o c #F49D14",
"O c #F4B614",
"+ c #EDC55E",
"@ c #EED587",
"# c #F1EABD",
"$ c white",
"% c None",
/* pixels */
"%%%%%%%%%%%%%%%%%%%%%%%%%%%%%%%%%%%%%%%%",
"%%%%%%%%%%%%%%%%%%%%%%%%%%%%%%%%%%%%%%%%",
"%%%%%%%%%%%%%%%%%%%%%%%%%%%%%%%%%%%%%%%%",
"%%%%%%%%%%%%%%%%%%%%%%%%%%%%%%%%%%%%%%%%",
"%%%%%%%%%%%%%%%%%%%%%%%%%%%%%%%%%%%%%%%%",
"%%%%%%%%%%%%%%%%%%%%%%%%%%%%%%%%%%%%%%%%",
"%%%%%%%%%%%%%%%%%%%%%%%%%%%%%%%%%%%%%%%%",
"%%%%%%%%%%%%%%%%%%%%%%%%%%%%%%%%%%%%%%%%",
"%%%%%%%%%%%%%%%%%%%%%%%%%%%%%%%%%%%%%%%%",
"%%%%%%%%%%%%%%%%%%%%%%%%%%%%%%%%%%%%%%%%",
"%%%%%%%%%%%%%%%%%%%%%%%%%%%%%%%%%%%%%%%%",
"%%%%%%%%%%%%%%%%%%%%%%%%%%%%%%%%%%%%%%%%",
"%%%%%%%%%%%%%%%%%%$$$$%%%%%%%%%%%%%%%%%%",
"%%%%%%%%%%%%%%%%$$....$$%%%%%%%%%%%%%%%%",
"%%%%%%%%%%%%%%%$..##@@XX$%%%%%%%%%%%%%%%",
"%%%%%%%%%%%%%%$.$#@OOOOoX$%%%%%%%%%%%%%%",
"%%%%%%%%%%%%%$.$@O   XoOoX$%%%%%%%%%%%%%",
"%%%%%%%%%%%%%$.#O X...XoO $%%%%%%%%%%%%%",
"%%%%%%%%%%%%$.#@ X...O+.Oo $%%%%%%%%%%%%",
"%%%%%%%%%%%%$.#O ...O++.@o $%%%%%%%%%%%%",
"%%%%%%%%%%%%$.@O ..O++#.@. $%%%%%%%%%%%%",
"%%%%%%%%%%%%$.@OX.O+++#.@. $%%%%%%%%%%%%",
"%%%%%%%%%%%%%$XOoX++##.#O $%%%%%%%%%%%%%",
"%%%%%%%%%%%%%$XoOo....#O. $%%%%%%%%%%%%%",
"%%%%%%%%%%%%%%$XoOO@@@O. $%%%%%%%%%%%%%%",
"%%%%%%%%%%%%%%%$X oo..  $%%%%%%%%%%%%%%%",
"%%%%%%%%%%%%%%%%$$    $$%%%%%%%%%%%%%%%%",
"%%%%%%%%%%%%%%%%%%$$$$%%%%%%%%%%%%%%%%%%",
"%%%%%%%%%%%%%%%%%%%%%%%%%%%%%%%%%%%%%%%%",
"%%%%%%%%%%%%%%%%%%%%%%%%%%%%%%%%%%%%%%%%",
"%%%%%%%%%%%%%%%%%%%%%%%%%%%%%%%%%%%%%%%%",
"%%%%%%%%%%%%%%%%%%%%%%%%%%%%%%%%%%%%%%%%",
"%%%%%%%%%%%%%%%%%%%%%%%%%%%%%%%%%%%%%%%%",
"%%%%%%%%%%%%%%%%%%%%%%%%%%%%%%%%%%%%%%%%",
"%%%%%%%%%%%%%%%%%%%%%%%%%%%%%%%%%%%%%%%%",
"%%%%%%%%%%%%%%%%%%%%%%%%%%%%%%%%%%%%%%%%",
"%%%%%%%%%%%%%%%%%%%%%%%%%%%%%%%%%%%%%%%%",
"%%%%%%%%%%%%%%%%%%%%%%%%%%%%%%%%%%%%%%%%",
"%%%%%%%%%%%%%%%%%%%%%%%%%%%%%%%%%%%%%%%%",
"%%%%%%%%%%%%%%%%%%%%%%%%%%%%%%%%%%%%%%%%"
};
