/* XPM */
static char *result[] = {
/* columns rows colors chars-per-pixel */
"40 40 6 1 ",
"  c #AA3838",
". c #F47F14",
"X c #E7462A",
"o c #F49D14",
"O c white",
"+ c None",
/* pixels */
"++++++++++++++++++++++++++++++++++++++++",
"++++++++++++++++++++++++++++++++++++++++",
"++++++++++++++++++++++++++++++++++++++++",
"++++++++++++++++++++++++++++++++++++++++",
"++++++++++++++++++++++++++++++++++++++++",
"++++++++++++++++++++++++++++++++++++++++",
"++++++++++++++++++++++++++++++++++++++++",
"++++++++++++++++++++++++++++++++++++++++",
"++++++++++++++++++++++++++++++++++++++++",
"++++++++++++++++++++++++++++++++++++++++",
"++++++++++++++++++++++++++++++++++++++++",
"++++++++++++++++++++++++++++++++++++++++",
"++++++++++++++++++OOOO++++++++++++++++++",
"++++++++++++++++++O..O++++++++++++++++++",
"++++++++++++++++++OooO++++++++++++++++++",
"++++++++++++++++++OooO++++++++++++++++++",
"++++++++++++++++++OooO++++++++++++++++++",
"++++++++++++++++++O..O++++++++++++++++++",
"++++++++++++++++++O..O++++++++++++++++++",
"++++++++++++++++++OooO++++++++++++++++++",
"++++++++++++++++++O..O++++++++++++++++++",
"++++++++++++++++++OXXO++++++++++++++++++",
"++++++++++++++++++OXXO++++++++++++++++++",
"++++++++++++++++++OXXO++++++++++++++++++",
"++++++++++++++++++OXXO++++++++++++++++++",
"++++++++++++++++++O  O++++++++++++++++++",
"++++++++++++++++++O  O++++++++++++++++++",
"++++++++++++++++++OOOO++++++++++++++++++",
"++++++++++++++++++++++++++++++++++++++++",
"++++++++++++++++++++++++++++++++++++++++",
"++++++++++++++++++++++++++++++++++++++++",
"++++++++++++++++++++++++++++++++++++++++",
"++++++++++++++++++++++++++++++++++++++++",
"++++++++++++++++++++++++++++++++++++++++",
"++++++++++++++++++++++++++++++++++++++++",
"++++++++++++++++++++++++++++++++++++++++",
"++++++++++++++++++++++++++++++++++++++++",
"++++++++++++++++++++++++++++++++++++++++",
"++++++++++++++++++++++++++++++++++++++++",
"++++++++++++++++++++++++++++++++++++++++"
};
