/* XPM */
static char *result[] = {
/* columns rows colors chars-per-pixel */
"40 40 8 1 ",
"  c #AA3838",
". c #F47F14",
"X c #E7462A",
"o c #F49D14",
"O c #F4B614",
"+ c #EED587",
"@ c white",
"# c None",
/* pixels */
"########################################",
"########################################",
"########################################",
"########################################",
"########################################",
"########################################",
"########################################",
"########################################",
"########################################",
"########################################",
"########################################",
"########################################",
"##################@@@###################",
"#################@...@##################",
"#################@X..@##################",
"################@XO+..@#################",
"################@Xo+..@#################",
"###############@XoXO+X.@################",
"###############@X O.OX.@################",
"###############@X O.OXX@################",
"###############@X O.OXX@################",
"###############@X O.OXX@################",
"###############@X+.OO X@################",
"################@X+O X@#################",
"################@ OO X@#################",
"#################@   @##################",
"#################@   @##################",
"##################@@@###################",
"########################################",
"########################################",
"########################################",
"########################################",
"########################################",
"########################################",
"########################################",
"########################################",
"########################################",
"########################################",
"########################################",
"########################################"
};
